<?xml version="1.0" encoding="UTF-8"?>
<svg id="Capa_1" data-name="Capa 1" xmlns="http://www.w3.org/2000/svg" viewBox="0 0 425.2 425.2">
  <defs>
    <style>
      .cls-1 {
        fill: #fefeff;
      }

      .cls-2 {
        fill: #f3c200;
      }

      .cls-3 {
        fill: #53afa2;
      }

      .cls-4 {
        fill: #251827;
      }

      .cls-5 {
        fill: #ee7f32;
      }

      .cls-6 {
        fill: #b1739a;
      }
    </style>
  </defs>
  <path class="cls-4" d="M251.13,107.26h-.01c-1.84-1.44-2.18-4.1-.75-5.94,1.42-1.83,4.07-2.17,5.91-.76.91.7,1.48,1.7,1.62,2.82.14,1.12-.16,2.23-.85,3.12-1.42,1.83-4.08,2.17-5.92.76ZM255.54,101.54c-1.32-1.01-3.2-.77-4.21.53-1.02,1.31-.78,3.2.53,4.21h.01c1.31,1.01,3.19.77,4.2-.53.49-.63.71-1.42.61-2.22-.1-.8-.5-1.51-1.14-2Z"/>
  <path class="cls-2" d="M303.55,98.21s3.46-11.76,4.4-10.32c.94,1.44,3.77,9.32,3.77,9.32,0,0,9.95,3.35,9.69,4.02-.26.67-8.93,4.19-8.93,4.19,0,0-2.8,10.23-4.37,9.22-1.57-1.01-4.29-9.17-4.29-9.17,0,0-8.9-.86-7.81-2.89,1.1-2.03,7.54-4.38,7.54-4.38Z"/>
  <g>
    <g>
      <path class="cls-6" d="M282.19,105c-79,39.49-54.83,87.1-42.33,107.46,3.65,5.95-98.95,101.48-102.31,104.28-3.36,2.8,15.59,25.93,22.07,19.58,9.3-9.12,84.37-112.07,97.73-104.83,56.58,30.64,92.46-34.27,97.98-52.88,2.4-8.1-73.14-73.61-73.14-73.61ZM159.15,324.66c-3.31,4.93-12.95-1.54-12.37-7.02.58-5.48,15.68,2.1,12.37,7.02Z"/>
      <path class="cls-1" d="M300.11,221.96c-.29,0-.55-.2-.62-.5-.08-.34.14-.68.48-.76,33.34-7.43,43.32-38.78,43.42-39.1.1-.33.46-.52.79-.42.33.1.52.46.42.79-.1.32-10.28,32.37-44.36,39.96-.05.01-.09.02-.14.02Z"/>
      <path class="cls-4" d="M291.17,230.9s-.05,0-.07,0c-38.2-4.28-57.07-46.77-57.25-47.2-.14-.32,0-.69.33-.83.32-.14.69,0,.83.33.18.42,18.77,42.25,56.23,46.44.35.04.6.35.56.7-.04.32-.31.56-.63.56Z"/>
      <path class="cls-4" d="M169.39,310.61c-.18,0-.35-.07-.48-.22-.23-.26-.2-.66.06-.89,7.94-6.93,44.04-48.89,44.4-49.31.23-.26.63-.29.89-.07.26.23.29.63.07.89-1.49,1.73-36.52,42.46-44.53,49.44-.12.1-.27.16-.42.16Z"/>
      <g>
        <path class="cls-1" d="M253.71,137.54s-.06,0-.09,0c-.35-.05-.59-.37-.53-.72.49-3.36,3-4.48,4.26-4.6.35-.02.66.22.69.57.03.35-.22.66-.56.69-.12.01-2.67.34-3.13,3.53-.05.31-.32.54-.63.54Z"/>
        <path class="cls-1" d="M254.78,143.94s-.06,0-.09,0c-.35-.05-.59-.37-.53-.72.49-3.36,3-4.48,4.26-4.6.36-.03.66.22.69.57.03.35-.22.66-.56.69-.12.01-2.67.34-3.13,3.53-.05.31-.32.54-.63.54Z"/>
        <path class="cls-1" d="M247.08,144.95s-.06,0-.09,0c-.35-.05-.59-.37-.53-.72.49-3.36,3-4.48,4.26-4.6.35-.02.66.22.69.57.03.35-.22.66-.56.69-.12.01-2.67.34-3.13,3.53-.05.31-.32.54-.63.54Z"/>
        <path class="cls-1" d="M247.25,151.96s-.06,0-.09,0c-.35-.05-.59-.37-.53-.72.49-3.36,3-4.48,4.26-4.6.35-.03.66.22.69.57.03.35-.22.66-.56.69-.12.01-2.67.34-3.13,3.53-.05.31-.32.54-.63.54Z"/>
        <path class="cls-1" d="M254.81,150.83s-.06,0-.09,0c-.35-.05-.59-.37-.53-.72.49-3.36,3-4.48,4.26-4.6.36-.03.66.22.69.57.03.35-.22.66-.56.69-.12.01-2.67.34-3.13,3.53-.05.31-.32.54-.63.54Z"/>
        <path class="cls-1" d="M239.93,153.66s-.06,0-.09,0c-.35-.05-.59-.37-.53-.72.49-3.36,3-4.48,4.26-4.6.35-.03.66.22.69.57.03.35-.22.66-.56.69-.12.01-2.67.34-3.13,3.53-.05.31-.32.54-.63.54Z"/>
        <path class="cls-1" d="M242.28,160.01c-.32,0-.59-.24-.63-.56-.4-3.51,1.63-5.28,2.76-5.72.32-.13.69.03.82.36.13.32-.03.69-.35.82h0c-.1.04-2.36,1.01-1.97,4.41.04.35-.21.66-.56.7-.02,0-.05,0-.07,0Z"/>
      </g>
    </g>
    <g>
      <path class="cls-5" d="M188.51,213.13s-16.95,5.5-8.91,17.93c8.04,12.44,107.98,103.87,107.98,103.87,0,0,15.22-4.97,18.49-22.27l-117.56-99.54ZM284.49,323.96c-4.96-2.4,7.27-14.05,10.79-9.27,3.52,4.78-5.83,11.66-10.79,9.27Z"/>
      <path class="cls-3" d="M206.54,219.82c-21.53-7.79-4.61-10.01-.63-32.47,3.98-22.47-31.27-52.63-62.89-68.09l-73.21,74.47c47.76,68.94,79.09,64.82,96.1,49.31,17.01-15.51,17.77,5.9,25.18,4.67,7.41-1.23,29.08-22.96,15.45-27.89ZM135.94,230.67s-42.1-33.29-35.21-40.59c6.89-7.3,45.17,30.63,44.62,37.25-.55,6.62-5.19,6.77-9.4,3.34ZM151.9,209.14s-42.1-33.29-35.21-40.59c6.89-7.3,45.17,30.63,44.62,37.25-.55,6.62-5.19,6.77-9.4,3.34ZM171.16,188.92s-42.1-33.29-35.21-40.59c6.89-7.3,45.17,30.63,44.62,37.25-.55,6.62-5.19,6.77-9.4,3.34Z"/>
      <path class="cls-4" d="M270.93,297.23c-.22,0-.43-.11-.55-.32-4.41-7.73-45.16-40.26-45.57-40.59-.27-.22-.32-.62-.1-.89.22-.27.62-.32.89-.1,1.69,1.34,41.35,33.01,45.88,40.95.17.3.07.69-.24.86-.1.06-.21.08-.31.08Z"/>
      <path class="cls-1" d="M195.85,182.78c-.09,0-.19-.02-.27-.06-.31-.15-.45-.53-.3-.85,7.65-15.91-27.44-42.99-27.79-43.26-.28-.21-.33-.61-.12-.89.21-.28.61-.33.89-.12.09.07,9.13,7.01,17.06,15.89,10.79,12.07,14.53,21.81,11.1,28.93-.11.23-.34.36-.57.36Z"/>
    </g>
  </g>
</svg>