<?xml version="1.0" encoding="UTF-8"?>
<svg id="Capa_1" data-name="Capa 1" xmlns="http://www.w3.org/2000/svg" viewBox="0 0 425.2 425.2">
  <defs>
    <style>
      .cls-1 {
        fill: #fefeff;
      }

      .cls-2 {
        fill: #251827;
      }

      .cls-3 {
        fill: #db607c;
      }
    </style>
  </defs>
  <g>
    <g>
      <path class="cls-3" d="M219.12,236.63c-3.52,1.39-7.86,4.46-5.43,8.07,5.78,8.6,14.8-3.6,14.8-3.6,6.4-7.02-6.14-16.85-10.53-11.88-2.72,3.08-1.02,6.14,1.16,7.42Z"/>
      <path class="cls-2" d="M221.68,243.34c-.45,0-.88-.07-1.26-.22-.73-.3-1.23-.89-1.46-1.71-.34-1.26.18-2.52,1.45-3.53-.84-.43-1.57-1.03-1.96-1.8-.38-.75-.6-1.96.58-3.45.95-1.2,2.03-1.77,3.22-1.69,2.48.17,4.34,3.25,4.41,3.38.2.35.09.79-.25,1-.35.21-.79.09-1-.25-.42-.71-1.84-2.58-3.26-2.67-.68-.05-1.33.33-1.98,1.14-.95,1.2-.51,1.91-.09,2.34.48.49,1.17.84,1.87,1.07,1.27-.58,2.82-.93,3.51-.36.35.29.45.75.27,1.19-.16.4-.6.88-1.79.93-.53.02-1.18-.05-1.85-.21-.39.22-.77.48-1.09.78-.89.86-.71,1.53-.65,1.74.11.38.29.61.6.74,1.3.53,4.1-.82,4.98-1.34.35-.2.79-.09,1,.26.2.35.09.79-.26,1-.34.2-2.89,1.65-5,1.65Z"/>
    </g>
    <g>
      <path class="cls-3" d="M230.72,242.04s2.58,14.95,11.61,9.86c3.78-2.13,1.29-6.83-1.23-9.65,2.52-.17,5.41-2.13,4.36-6.11-1.69-6.41-17.31-3.25-14.74,5.89Z"/>
      <path class="cls-2" d="M237.23,247.48c-.07,0-.13,0-.2,0-2.37-.19-4.7-3.69-4.95-4.09-.22-.34-.12-.79.22-1.01.34-.22.79-.12,1.01.22.83,1.27,2.6,3.33,3.85,3.43.33.03.6-.09.87-.39.15-.17.61-.68.2-1.85-.14-.41-.36-.81-.62-1.19-.67-.15-1.28-.38-1.74-.64-1.04-.58-1.21-1.21-1.18-1.63.04-.48.34-.85.77-.95.87-.2,2.1.81,2.98,1.91.73.11,1.51.1,2.15-.12.57-.2,1.28-.63.97-2.13-.21-1.02-.62-1.64-1.26-1.91-1.32-.55-3.42.48-4.12.92-.34.22-.79.12-1-.22-.22-.34-.12-.79.22-1,.13-.08,3.17-2,5.46-1.04,1.09.46,1.81,1.46,2.12,2.96.38,1.86-.35,2.84-1.03,3.34-.69.51-1.62.72-2.56.72.68,1.47.58,2.84-.29,3.81-.52.58-1.16.88-1.87.88Z"/>
    </g>
    <path class="cls-2" d="M219.8,255.18c-.58,0-1.12-.16-1.63-.48-.34-.21-.44-.66-.23-1,.21-.34.66-.44,1-.23.43.27.88.33,1.41.18,2.62-.75,5.75-6.2,6.73-8.23.17-.36.61-.51.97-.34.36.17.51.61.34.97-.39.81-3.92,7.93-7.64,9-.32.09-.64.14-.95.14Z"/>
    <path class="cls-2" d="M232.51,257.69c-.13,0-.26-.03-.37-.1-4.68-2.82-2.76-10.86-2.68-11.2.1-.39.49-.62.88-.53.39.1.63.49.53.88-.02.07-1.75,7.34,2.01,9.6.34.21.46.65.25,1-.14.23-.38.35-.62.35Z"/>
  </g>
  <path class="cls-2" d="M229.34,213.64s-.02,0-.03,0c-1.55-.06-2.68-.47-3.09-.64-.37-.16-.54-.58-.39-.95.16-.37.59-.54.95-.39.34.14,1.27.48,2.58.53.4.01.72.35.7.75-.01.39-.34.7-.73.7ZM232.21,213.29c-.32,0-.61-.21-.7-.53-.11-.39.12-.79.51-.9.84-.23,1.68-.6,2.48-1.08.35-.21.79-.09,1,.25.21.35.09.79-.25,1-.92.55-1.87.96-2.84,1.23-.07.02-.13.03-.2.03ZM237.2,210.4c-.2,0-.39-.08-.54-.24-.27-.3-.25-.76.05-1.03.65-.6,1.29-1.28,1.9-2.05.25-.31.71-.36,1.02-.11.31.25.36.71.11,1.02-.66.82-1.35,1.56-2.06,2.21-.14.13-.32.19-.49.19ZM240.86,205.9c-.13,0-.27-.04-.39-.11-.34-.22-.44-.66-.22-1,.48-.76.96-1.59,1.41-2.47.19-.36.62-.5.98-.31.36.19.5.62.31.98-.48.92-.97,1.79-1.48,2.58-.14.22-.37.34-.61.34ZM243.55,200.75c-.09,0-.19-.02-.28-.06-.37-.16-.54-.58-.39-.95.37-.88.69-1.77.94-2.66.11-.39.52-.61.9-.5.39.11.61.52.5.9-.27.94-.61,1.89-1,2.82-.12.28-.39.45-.67.45ZM245.16,195.17s-.08,0-.11,0c-.4-.06-.67-.43-.6-.83.15-.93.23-1.87.26-2.8.01-.4.33-.72.75-.71.4.01.72.35.71.75-.03.99-.12,2-.28,2.99-.06.36-.37.61-.72.61ZM245.31,189.37c-.37,0-.68-.28-.72-.65-.1-.93-.26-1.86-.48-2.77-.09-.39.15-.78.54-.88.39-.1.78.15.88.54.24.97.41,1.97.51,2.96.04.4-.25.76-.65.8-.03,0-.05,0-.08,0ZM243.95,183.73c-.29,0-.57-.18-.68-.47-.33-.87-.73-1.74-1.17-2.56-.19-.36-.05-.8.3-.98.36-.19.8-.05.98.3.47.88.89,1.8,1.24,2.73.14.38-.04.8-.42.94-.09.03-.17.05-.26.05ZM226.89,178.69c-.34,0-.65-.24-.71-.59-.08-.39.18-.78.58-.85.75-.15,1.6-.46,2.52-.94.36-.18.8-.05.98.31.19.36.05.8-.31.98-1.04.55-2.03.91-2.92,1.08-.05,0-.09.01-.14.01ZM241.23,178.61c-.23,0-.46-.11-.6-.31-.54-.77-1.13-1.51-1.75-2.21-.27-.3-.24-.76.06-1.03.3-.27.76-.24,1.03.06.66.74,1.29,1.53,1.86,2.35.23.33.15.78-.18,1.01-.13.09-.27.13-.41.13ZM224.16,178.15c-.19,0-.38-.08-.53-.23-.53-.55-.79-1.33-.8-2.29,0-.33.03-.7.1-1.09.07-.4.45-.66.84-.59.4.07.66.44.59.84-.05.31-.08.59-.08.85,0,.58.13,1.02.39,1.29.28.29.27.75-.03,1.03-.14.13-.32.2-.5.2ZM232.06,176.11c-.22,0-.44-.1-.58-.29-.24-.32-.18-.78.15-1.02.72-.54,1.45-1.16,2.15-1.83.29-.28.75-.27,1.03.02.28.29.27.75-.02,1.03-.74.71-1.51,1.37-2.28,1.94-.13.1-.28.15-.44.15ZM237.35,174.28c-.17,0-.34-.06-.48-.18-.73-.63-1.48-1.2-2.24-1.68-.34-.22-.44-.67-.22-1,.22-.34.67-.44,1-.22.04.03.08.05.13.08.02-.13.07-.26.16-.37.61-.72,1.19-1.48,1.72-2.26.23-.33.68-.41,1.01-.19.33.23.41.68.19,1.01-.56.82-1.17,1.61-1.81,2.37-.06.07-.13.13-.21.17.41.31.82.64,1.22.98.3.26.34.72.07,1.03-.14.17-.35.25-.55.25ZM224.62,172.66c-.13,0-.26-.03-.38-.11-.34-.21-.45-.66-.24-1,.62-1,1.46-1.73,2.51-2.16.37-.15.8.03.95.4.15.37-.03.8-.4.95-.76.31-1.37.84-1.82,1.57-.14.22-.38.35-.62.35ZM232.45,171.19c-.09,0-.18-.02-.27-.05-.91-.37-1.79-.6-2.61-.68-.4-.04-.69-.4-.65-.8.04-.4.39-.69.8-.65.95.1,1.96.36,3,.78.37.15.55.57.4.95-.11.28-.39.45-.67.45ZM239.56,167.32c-.12,0-.24-.03-.35-.09-.35-.19-.48-.64-.28-.99.46-.83.88-1.68,1.26-2.54.16-.37.59-.54.96-.38.37.16.54.59.38.96-.39.91-.84,1.8-1.32,2.67-.13.24-.38.37-.64.37ZM241.88,161.99c-.07,0-.15-.01-.22-.03-.38-.12-.59-.53-.47-.92.29-.9.54-1.83.74-2.74.09-.39.47-.64.87-.56.39.09.64.47.56.87-.21.96-.47,1.93-.77,2.88-.1.31-.38.51-.69.51ZM243.09,156.31s-.04,0-.07,0c-.4-.04-.7-.39-.66-.79.05-.57.08-1.13.08-1.68,0-.38-.01-.75-.03-1.11-.02-.4.28-.75.68-.77.41-.02.75.28.77.68.02.4.04.8.04,1.2,0,.6-.03,1.2-.08,1.81-.03.38-.35.66-.72.66ZM242.74,150.53c-.34,0-.64-.23-.71-.57-.2-.9-.46-1.8-.8-2.68-.14-.38.05-.8.42-.94.38-.14.8.05.94.42.36.95.65,1.92.86,2.89.09.39-.16.78-.56.87-.05.01-.1.02-.15.02ZM240.68,145.11c-.26,0-.51-.14-.64-.38-.45-.81-.96-1.6-1.52-2.36-.24-.32-.17-.78.15-1.02.32-.24.78-.17,1.02.15.6.81,1.15,1.66,1.62,2.53.19.35.07.79-.29.99-.11.06-.23.09-.35.09ZM221.81,142.72c-.35,0-.66-.25-.72-.61-.07-.4.2-.77.59-.84.74-.13,1.59-.44,2.51-.92.36-.19.79-.05.98.31.19.36.05.8-.31.98-1.06.55-2.05.91-2.94,1.06-.04,0-.08.01-.12.01ZM219.13,142.03c-.21,0-.42-.09-.57-.27-.47-.58-.71-1.37-.71-2.34,0-.31.02-.65.08-1.01.06-.4.42-.68.82-.62.4.06.67.42.62.82-.04.29-.06.56-.06.81,0,.63.13,1.11.39,1.42.25.31.21.77-.11,1.02-.14.11-.3.16-.46.16ZM237.24,140.44c-.19,0-.38-.08-.53-.23-.65-.68-1.34-1.32-2.07-1.92-.31-.25-.36-.71-.1-1.02.25-.31.71-.36,1.02-.1.77.63,1.51,1.32,2.2,2.04.28.29.27.75-.02,1.03-.14.13-.32.2-.5.2ZM226.98,140.16c-.22,0-.44-.1-.58-.29-.24-.32-.18-.78.14-1.02.72-.54,1.45-1.16,2.15-1.83.29-.28.75-.27,1.03.02.28.29.27.75-.02,1.03-.74.71-1.51,1.37-2.28,1.95-.13.1-.28.15-.44.15ZM232.74,136.76c-.13,0-.27-.04-.39-.11-.3-.19-.61-.37-.92-.54-.24.09-.52.05-.72-.13-.12-.1-.2-.23-.23-.37-.2-.1-.4-.19-.6-.28-.37-.16-.53-.59-.37-.96.16-.37.59-.53.96-.37.23.1.46.21.68.32.42-.52.82-1.06,1.2-1.61.23-.33.68-.41,1.01-.18.33.23.41.68.18,1.01-.35.5-.72,1-1.1,1.48.22.13.45.26.67.4.34.21.44.66.23,1-.14.22-.38.34-.62.34ZM219.56,136.5c-.13,0-.26-.04-.38-.11-.34-.21-.45-.66-.23-1,.6-.96,1.43-1.69,2.48-2.16.37-.17.8,0,.96.36.17.37,0,.8-.36.96-.78.35-1.4.89-1.84,1.6-.14.22-.38.34-.62.34ZM227.43,134.43c-.06,0-.12,0-.18-.02-.93-.23-1.82-.35-2.65-.35-.4,0-.75-.33-.75-.73s.3-.73.7-.73h.05c.94,0,1.95.13,3,.4.39.1.63.49.53.88-.08.33-.38.55-.7.55ZM234.5,131.38c-.12,0-.24-.03-.36-.09-.35-.2-.47-.64-.28-.99.47-.83.9-1.68,1.27-2.54.16-.37.59-.53.96-.37.37.16.53.59.37.96-.4.9-.85,1.79-1.33,2.66-.13.24-.38.37-.64.37ZM236.85,126.07c-.08,0-.15-.01-.23-.04-.38-.12-.59-.54-.46-.92.25-.76.47-1.53.65-2.3l.1-.43c.09-.39.47-.64.87-.56.39.09.64.47.56.87l-.1.46c-.19.81-.42,1.62-.68,2.42-.1.31-.38.5-.69.5ZM238.07,120.39s-.04,0-.07,0c-.4-.04-.69-.39-.66-.79.05-.57.08-1.11.08-1.63,0-.4-.01-.78-.04-1.16-.03-.4.27-.75.67-.78.4-.03.75.27.78.67.03.41.05.83.05,1.27,0,.56-.03,1.15-.08,1.76-.03.38-.35.66-.72.66ZM237.57,114.64c-.31,0-.6-.2-.69-.51-.28-.88-.67-1.7-1.16-2.43-.22-.33-.13-.79.2-1.01.33-.22.79-.13,1.01.2.56.85,1.01,1.79,1.33,2.8.12.38-.09.79-.47.91-.07.02-.15.03-.22.03ZM234.38,109.88c-.16,0-.33-.06-.46-.17-.67-.56-1.45-1.05-2.3-1.46-.36-.17-.51-.61-.34-.97.18-.36.61-.51.97-.34.96.46,1.83,1.02,2.6,1.66.31.26.35.72.09,1.02-.14.17-.35.26-.56.26ZM229.2,107.33c-.06,0-.12,0-.18-.02-1.55-.4-2.71-.44-2.72-.44-.4-.01-.72-.35-.71-.75.01-.4.36-.7.75-.71.05,0,1.32.04,3.04.48.39.1.62.5.52.89-.09.33-.38.55-.7.55Z"/>
  <g>
    <path class="cls-3" d="M196.13,266.99c-6.05-24.42-4.45-92.64-.85-131.44,1.47-15.81,26.97-1.69,3.35-33.19-10.15-13.53-34.8-6.09-38.74,16.91-1.36,7.95,8.26,8.79,9.27,16.84,2.5,19.85.56,50.41,1.94,97.89.6,20.57-1.61,29.61-3.85,33.56-9.75,1.62-17.98,4.56-22,8.18-11.8,10.63,4.18,108.07,9.4,92.97,4.19-12.13-5.46-73.7,5.12-71.71,9.88,1.86,5.74,71.43,13.04,74.36,7.55,3.03,5-77.02,9.66-76.71,8.91.59,5.23,75.46,13.77,76.71,6.53.95,1.77-77.07,11.5-76.11,9.73.96,1.33,76.12,10.67,75.93,5.6-.12,8.61-65.94,8.61-79.33,0-15.24-14.17-22.59-30.89-24.86Z"/>
    <path class="cls-1" d="M220.99,330.42s-.09,0-.14-.01c-.39-.07-.65-.45-.58-.85.05-.29,5.33-28.86-2.43-41.45-.21-.34-.1-.79.24-1,.34-.21.79-.1,1,.24,8.06,13.07,2.85,41.29,2.62,42.48-.07.35-.37.59-.71.59Z"/>
    <path class="cls-2" d="M174.78,266.9c-.07,0-.15-.01-.23-.04-.38-.12-.59-.54-.47-.92,5.36-16.38,3.59-133.89,2.07-146.49-1.12-9.31-2.92-10.51-3.64-10.6-1.98-.25-4.86,5.27-6.33,9.25-.14.38-.56.57-.93.43-.38-.14-.57-.56-.43-.93.66-1.78,4.1-10.63,7.87-10.19,2.41.28,3.98,4.06,4.92,11.87,1.52,12.64,3.26,130.63-2.14,147.12-.1.31-.38.5-.69.5Z"/>
    <path class="cls-2" d="M186.29,266.9c-.29,0-.56-.17-.67-.45-4.35-10.74-4.71-139.98,1.71-153.13,1.44-2.95,3.1-4.34,4.93-4.21,5.03.43,8.92,13.2,9.34,14.66.11.39-.11.79-.49.9-.39.11-.79-.11-.9-.49-1.5-5.13-5.02-13.36-8.07-13.62-1.47-.13-2.71,1.78-3.5,3.4-6.24,12.8-5.44,142.64-1.67,151.94.15.37-.03.8-.4.95-.09.04-.18.05-.27.05Z"/>
    <path class="cls-1" d="M198.94,110.74c-.29,0-.57-.18-.68-.47-4.47-11.64-15.78-8.12-16.26-7.97-.38.12-.79-.09-.92-.47-.12-.38.08-.79.47-.92.13-.04,13.09-4.11,18.07,8.83.14.37-.04.8-.42.94-.09.03-.17.05-.26.05Z"/>
    <path class="cls-2" d="M149.19,284.11c-.2,0-.4-.08-.54-.24-.27-.3-.24-.76.06-1.03.28-.25,28.03-24.4,62.55-6.23.36.19.49.63.3.98-.19.36-.63.49-.98.3-33.61-17.69-60.63,5.79-60.9,6.03-.14.12-.31.18-.48.18Z"/>
  </g>
</svg>