<?xml version="1.0" encoding="UTF-8"?>
<svg id="Capa_1" data-name="Capa 1" xmlns="http://www.w3.org/2000/svg" viewBox="0 0 425.2 425.2">
  <defs>
    <style>
      .cls-1 {
        fill: #fefeff;
      }

      .cls-2 {
        fill: #f3c200;
      }

      .cls-3 {
        fill: #b7543a;
      }

      .cls-4 {
        fill: none;
      }

      .cls-5 {
        fill: #53afa2;
      }

      .cls-6 {
        fill: #251827;
      }

      .cls-7 {
        fill: #ee7f32;
      }
    </style>
  </defs>
  <path class="cls-6" d="M110.84,157.18h-.02c-2.24-1.75-2.64-4.98-.91-7.21,1.73-2.23,4.95-2.64,7.18-.92,1.1.85,1.79,2.07,1.96,3.43.17,1.36-.2,2.71-1.04,3.79-1.73,2.23-4.95,2.64-7.19.92ZM116.21,150.23c-1.6-1.23-3.89-.94-5.12.65-1.23,1.59-.94,3.89.65,5.12h.01c1.59,1.23,3.88.94,5.11-.65.6-.77.86-1.73.74-2.69-.12-.97-.61-1.83-1.38-2.43Z"/>
  <path class="cls-6" d="M99.92,146.45c-.57,0-1.11,0-2.61-5.97-5.05-.97-5.5-1.57-5.65-1.77-.14-.19-.21-.54-.14-.77.09-.32.3-1.07,6.08-3.4,2.08-5.41,2.78-5.41,3.25-5.41.24,0,.58.17.72.37.37.5.71,1.79,1.22,3.87.16.65.35,1.43.46,1.78.3.14.97.37,1.53.57,2.97,1.06,3.74,1.43,3.87,2.14.05.27-.08.65-.28.83-.6.54-3.47,1.61-4.98,2.14-2.45,5.57-2.97,5.59-3.43,5.62-.01,0-.03,0-.05,0ZM93.62,138.05c1.01.29,2.85.71,4.46,1.01.3.06.53.28.61.57.41,1.67.95,3.56,1.34,4.64.56-1.01,1.41-2.79,2.1-4.37.09-.2.25-.35.45-.42,1.37-.48,2.92-1.08,3.89-1.5-.68-.28-1.6-.61-2.19-.83-1.7-.61-2.02-.74-2.23-1.03-.19-.26-.31-.68-.73-2.4-.16-.64-.4-1.63-.62-2.37-.5.96-1.21,2.6-1.76,4.04-.08.2-.23.36-.43.44-1.78.71-3.81,1.62-4.87,2.21Z"/>
  <path class="cls-2" d="M125.82,110.22s4.2-14.28,5.34-12.54c1.14,1.74,4.58,11.32,4.58,11.32,0,0,12.08,4.07,11.77,4.89-.32.81-10.84,5.09-10.84,5.09,0,0-3.41,12.42-5.31,11.2-1.91-1.22-5.21-11.13-5.21-11.13,0,0-10.82-1.04-9.48-3.51,1.34-2.47,9.16-5.32,9.16-5.32Z"/>
  <g>
    <path class="cls-5" d="M84.99,165.19s260.79,18.85,260.99,30.35c.11,6.09,6.61,55.43-12.38,99.47,0,0-49.58,51.68-129.24,48.3-66.17-2.8-122.53-49.07-122.53-49.07-26.4-58.02-8.92-129.96,3.15-129.05Z"/>
    <path class="cls-4" d="M84.99,165.19s260.79,18.85,260.99,30.35c.21,11.51,23.23,177.43-145.99,170.25-169.22-7.17-134.83-202.09-115-200.61Z"/>
    <path class="cls-3" d="M110.38,183.42s211.45,5.04,212.21,28.12c.76,23.07-77.63,58.77-149.22,36.29-71.59-22.48-95.31-65.51-62.99-64.41Z"/>
    <path class="cls-6" d="M229.3,272.63c-8.7,0-17.83-.42-27.42-1.27-58.29-5.15-96.39-20.65-113.24-46.06-13.64-20.56-7.53-40.29-7.46-40.48.13-.4.57-.62.97-.5.4.13.63.56.5.97-.06.19-5.94,19.27,7.3,39.2,16.36,24.63,55.12,40.31,112.08,45.35,54.46,4.82,94.61-4.13,119.33-26.6,23.4-21.26,23.87-47.42,23.87-47.68,0-.42.35-.76.77-.76h0c.42,0,.77.35.76.77,0,.27-.45,27.05-24.34,48.78-20.68,18.81-51.94,28.29-93.11,28.29Z"/>
    <path class="cls-4" d="M84.99,165.19s260.79,18.85,260.99,30.35c.21,11.51,23.23,177.43-145.99,170.25-169.22-7.17-134.83-202.09-115-200.61Z"/>
    <path class="cls-1" d="M207.93,240.87c-2.7,0-5.52-.05-8.46-.14-18.19-.56-28.78-3.52-33.35-9.32-3.95-5.02-2.67-11.17-1.43-17.12,1.41-6.75,2.62-12.58-3.6-16.06-17.92-10.01-50.17-3.42-50.49-3.35-.41.09-.82-.18-.91-.59-.09-.42.18-.82.59-.91,1.34-.28,33.13-6.78,51.55,3.51,7.21,4.03,5.76,10.99,4.35,17.72-1.17,5.6-2.38,11.4,1.13,15.85,4.2,5.34,14.73,8.19,32.19,8.73,36.31,1.12,47.1-4.66,49.76-9.71,1.45-2.76.81-6.03-1.9-9.73-8.44-11.52-32.59-22.02-45.33-19.71-15.69,2.84-22.91,11.19-22.98,17.74-.05,4.28,2.81,7.42,7.63,8.4,9.62,1.95,29.9-2.39,31.21-7.82.42-1.72-1.08-5.23-15.76-9.34-.41-.11-.65-.54-.53-.95.12-.41.55-.65.95-.53,12.14,3.4,17.81,7.16,16.84,11.18-1.62,6.72-23.3,10.94-33.01,8.96-5.52-1.12-8.92-4.92-8.87-9.93.08-7.17,7.7-16.25,24.24-19.24,13.17-2.38,38.13,8.44,46.84,20.31,3.04,4.15,3.74,8.08,2.02,11.35-3.69,7.01-18.4,10.66-42.71,10.66Z"/>
    <path class="cls-1" d="M225.37,250.96c-1.46,0-2.77-.13-3.89-.4-.41-.1-.67-.51-.57-.93.1-.41.51-.67.93-.57,9.39,2.26,34.11-6.49,45.61-16.13,4.44-3.72,6.68-7.32,6.49-10.41-.8-13.04-34.62-24.11-34.96-24.22-.4-.13-.63-.56-.49-.97.13-.4.56-.63.97-.49,1.43.46,35.16,11.51,36.02,25.59.22,3.65-2.14,7.58-7.04,11.68-10.66,8.94-31.55,16.85-43.06,16.85Z"/>
    <path class="cls-1" d="M271.44,241.1c-.33,0-.63-.21-.73-.54-.13-.4.09-.84.5-.97.3-.09,29.75-9.6,31.49-20.53.27-1.72-.15-3.28-1.28-4.76-5.19-6.81-23.02-8.87-23.2-8.89-.42-.05-.73-.43-.68-.85.05-.42.42-.71.85-.68.76.08,18.67,2.16,24.25,9.49,1.38,1.81,1.91,3.81,1.57,5.94-1.88,11.86-31.29,21.36-32.54,21.76-.08.02-.16.04-.23.04Z"/>
    <path class="cls-1" d="M149.32,227.72c-.38,0-.71-.28-.76-.67-1.28-10.13-7.31-16.85-17.9-19.97-8.01-2.36-15.76-1.68-15.84-1.67-.41.04-.8-.27-.84-.69-.04-.42.27-.8.69-.84.33-.03,32.16-2.71,35.41,22.98.05.42-.24.81-.67.86-.03,0-.07,0-.1,0Z"/>
    <path class="cls-2" d="M328.24,290.49c-16.59-5.29-45.04,25.68-45.04,25.68,0,0,4.09-20.54-11.24-28.74-15.33-8.2-36.57,26.43-36.57,26.43,0,0-5.69-23.34-27.5-29.18s-39.36,25.95-39.36,25.95c0,0-6.85-28.7-23.43-34.28-16.58-5.59-24.79,23.67-24.79,23.67,0,0-8.99-29.69-24.19-32.75-8.52-1.71-14.56,11.17-14.29,26.98,3.52,7.74,13.04,22.28,13.04,22.28,34.24,32.98,53.65,41.63,106.05,43.85,54.86,2.33,82.67-7.71,110.36-31.03,0,0,17.06-22.14,22.32-34.34-1.43-2.27-3.26-3.85-5.37-4.52Z"/>
    <path class="cls-7" d="M275.83,350.27s.06-22.97-14.7-26.67c-21.08-5.29-31.9,32.61-31.9,32.61,0,0-2.93-32.23-28.21-39.79-25.27-7.56-33.56,32.08-33.56,32.08,0,0-2.39-28.07-20.91-32.12-18.52-4.05-21.26,21.63-21.26,21.63,0,0-7.92-29.86-23.06-26.37-3.23.75-5.6,2.53-7.33,4.87,19.83,26.83,52.69,47.06,105.1,49.28,54.87,2.33,89.51-13.55,111.28-36.46-.88-1.18-1.91-2.33-3.1-3.47-12.79-12.23-32.36,24.4-32.36,24.4Z"/>
    <path class="cls-1" d="M301.64,314.83c-.24,0-.47-.11-.62-.32-.25-.34-.17-.83.17-1.07,16.45-11.83,31.2-61.91,31.35-62.41.12-.41.54-.64.95-.52.41.12.64.55.52.95-.61,2.08-15.05,51.09-31.93,63.23-.14.1-.29.15-.45.15Z"/>
    <path class="cls-1" d="M274.71,339.66c-.31,0-.6-.19-.72-.49-.15-.4.05-.84.44-.99,4.9-1.88,20.31-14.72,20.47-14.85.33-.27.81-.23,1.08.1.27.33.23.81-.1,1.08-.64.54-15.76,13.13-20.9,15.1-.09.03-.18.05-.27.05Z"/>
  </g>
</svg>