<?xml version="1.0" encoding="UTF-8"?>
<svg id="Capa_1" data-name="Capa 1" xmlns="http://www.w3.org/2000/svg" viewBox="0 0 425.2 425.2">
  <defs>
    <style>
      .cls-1 {
        fill: #1d1d1b;
      }
    </style>
  </defs>
  <path class="cls-1" d="M314.86,249.44c-.87-.49-1.8.49-1.34,1.34.77,1.43,1.82,2.56,2.34,4.15.55,1.66.63,3.36.27,5.06-.27,1.28,1.63,1.83,1.98.55.97-3.6.35-9.05-3.24-11.1Z"/>
  <path class="cls-1" d="M253.71,189.88c-8.49,32.9-48.13,34.22-75.37,37.27-1.77.2-2.53,2.97-.46,3.39,24.35,4.96,78.66-7.84,77.61-40.42-.03-1-1.52-1.26-1.78-.24Z"/>
  <path class="cls-1" d="M226.98,197.2c-19.12.21-43.88,5.75-59.34,17.56-1.12.86-.56,2.98,1.05,2.48,9.76-3.04,18.78-8.11,28.62-11.14,9.83-3.03,19.88-4.82,29.93-6.93,1.12-.23.85-1.98-.27-1.97Z"/>
  <path class="cls-1" d="M307.92,216.43c-4.26-2.14-8.73-3.57-12.81-6.15-4-2.52-7.1-6.27-11.09-8.69-.94-.57-1.78.52-1.39,1.39,1.91,4.18,6.36,7.38,10.03,9.99,4.02,2.85,8.97,5.83,13.88,6.71,1.85.33,3.3-2.28,1.37-3.25Z"/>
  <path class="cls-1" d="M295.94,245.17c-.53-1.04-1.83-.96-2.61-.34-.67.53-.74,1.36-1.3,1.96-.51.54-1.25.86-1.97,1.02-1.49.34-3.15,0-3.98-1.39-.9-1.51-3.68-.5-2.96,1.25.8,1.93,2.29,3.17,4.09,3.71-.39.39-.68.92-.74,1.6-2.4,26.67-25.04,46.28-51.85,45.57-25.65-.69-42.51-17-54.16-37.88,2.84-.15,5.66-1.3,7.78-3.38,1.57-1.54-.84-3.95-2.41-2.41-3.42,3.35-8.86,3.4-12.6.5-1.16-.9-2.62.48-1.63,1.63,1.68,1.95,3.9,3.09,6.25,3.5,6.84,26.37,35.5,43.62,61.78,42.43,27.26-1.23,50.33-22.34,51.82-49.96.03-.62-.12-1.11-.39-1.49,2.65-.61,6.41-3.33,4.87-6.33Z"/>
  <path class="cls-1" d="M214.34,261.33c-.74-5.22-7.62-7.57-10.83-4.04-4.17,1.89-3.83,8.69-.16,11.15,4.83,3.24,11.79-1.49,10.98-7.11Z"/>
  <path class="cls-1" d="M267.06,255.11c-2.41-1.66-5.94-1.76-8.17.23-.03.01-.06.01-.09.03-5.93,2.82-3.39,12.3,2.73,12.96,6.92.75,11.67-8.99,5.54-13.22Z"/>
  <path class="cls-1" d="M272.61,241.27c-1.25-1.28-4.34-3.69-6.14-2.33-.61.46-.86,1.14-.49,1.86.45.85,1.08.95,1.92,1.27.82.31,1.61.76,2.29,1.33,1.34,1.13,2.29,2.68,2.71,4.37.33,1.33,2.55,1.09,2.44-.33-.19-2.36-1.07-4.47-2.73-6.17Z"/>
  <path class="cls-1" d="M207.47,245c-1.66-1.25-4.8.23-6.38,1.12-2.11,1.19-3.86,2.95-4.94,5.12-.59,1.18.96,2.02,1.73,1.01,1.29-1.69,2.88-3.06,4.8-3.98,1.55-.74,3.75-.57,4.98-1.75.49-.47.29-1.16-.2-1.52Z"/>
  <path class="cls-1" d="M238.8,273.6c-.81-4.52-1.48-9.05-2.62-13.5-.26-1-1.82-.8-1.8.24.06,3.58.41,7.13.75,10.69-2.94-1.44-6.01-2.54-9.23-3.34-1.36-.34-2.45.85-2.17,2.17,1.32,6.24,5.07,12.17,10.88,15.1,1.97.99,3.47-1.66,1.71-2.92-3.87-2.78-6.67-5.87-8.27-10.06,2.84.91,5.53,2.09,8.21,3.58,1.39.77,2.79-.5,2.53-1.94Z"/>
  <path class="cls-1" d="M351.72,92.14c1.19-.94.54-3.21-.92-3.48-12.51-2.3-25-6.6-37.6-8.09-1.21-.14-1.74,1.61-.91,2.33-1.82,4.97-3.38,10.34-4.46,15.58-2.3-.71-4.55-1.22-6.64-1.31-3.39-.15-4.97.76-7.07,3.44-4.92,6.29-8.14,16.25-11.04,23.9-5.35-2.48-11.18-4.31-17.09-5.52,6-7.64,11.21-16.07,16.1-24.46,1.21-.48,2-2.05.77-3.19-3.5-3.21-7.2-6.23-11.05-9.04,5.21-5.68,9.48-12.52,13.77-18.9,1.15-1.72-1.15-3.31-2.6-2.34-2.56-2.87-5.66-5.35-8.47-7.93-3.8-3.48-7.52-7.04-11.23-10.61-.95-.92-2.56-.51-2.93.77-2.31,8,.63,16.3,7.27,21.19-2.26.98-4.17,2.24-5.95,4.3-1.1,1.28-2.52,3.17-3.25,5.1-5.05-2.68-10.31-4.93-15.78-6.63-.68-1.16-2.32-1.64-3.25-.4-.19.17-.33.39-.4.64-8.19,16-14.12,33.31-18.01,50.84-3.37,15.18-6.81,32.61-4.85,48.29-12.16-.2-24.55,1.24-36.62,2.02-1.45.09-2.57,1.65-1.73,3.01,2.78,4.49,7.23,6.86,11.33,9.87-15.46,3.2-30.73,10.27-39.6,23.89-2.75,4.22-14,21.72-7.87,26.37,1.44,1.09,3.48-1.04,2.48-2.48-1.33-1.9,3.05-10.05,3.75-11.62,2.08-4.68,4.43-9.31,7.65-13.31,9.55-11.87,24.21-17.28,38.79-19.7,1.53-.25,1.94-2.43.9-3.4-3.45-3.26-8.3-5.55-11.73-8.93,23-1.85,47.24-5.4,68.26,6.3,1.23.68,3.14-.48,2.57-1.98-1.84-4.85-4.34-9.36-6.56-14.02,5.91,3.23,11.06,7.4,14.17,13.69.22.46.69.56,1.11.47-.47,1.2,1.22,2.39,2.2,1.37,4.61-4.79,9.27-8.07,15.34-9.57-2.23,3.81-3.45,7.77-3.93,12.58-.1.99.93,1.86,1.85,1.85,30.06-.4,44.47,27.48,49.17,53.29.35,1.95,3.75,1.52,3.5-.47-1.9-15.04-7.05-30.17-17.61-41.4-4.02-4.27-8.79-7.89-14.04-10.51.38-.03.75-.21.96-.62,5.39-10.28,10.61-20.55,17.06-30.22,7.04-10.55,15.54-19.63,23.36-29.53,1.57-1.99-.85-4.54-2.82-2.82-17.81,15.5-32.26,39.43-40.04,61.54-.14.39-.06.73.12,1.01-.28-.13-.55-.27-.83-.39-3.8-1.66-8.45-1.7-12.05-3.33-1.2-.17-2.41-.27-3.62-.28-1-4.57.42-8.56,4.26-11.98.85-1.1.49-3.41-1.33-3.2-8.56,1-15.73,4.45-20.72,11.45,0-.02,0-.03,0-.05-3.28-8.89-10.34-13.96-18.68-17.91-1.15-.55-3.04.39-2.45,1.88,1.89,4.75,4.36,9.22,6.45,13.87-9.75-4.59-20.07-6.3-30.6-6.67,2.58-15.7,2.74-31.59,6.36-47.26,3.97-17.19,10.14-33.33,17.45-49.34,13.18,5.97,25.27,12.99,36.12,22.7-5.15,7.98-10.25,16.28-14.25,24.88-.15.32-.11.67.03.97-7.36-1.36-14.78-1.78-21.5-1.38-1.69.1-1.7,2.53,0,2.63,9.23.53,18.3,1.59,27.15,4.36,8.9,2.79,16.48,7.81,24.88,11.6,1.49.67,3.25-1.13,1.87-2.42-3.3-3.09-7.19-5.68-11.42-7.85,2.91-4.86,5.43-9.94,8-14.99,3.87-7.62,6.95-9.84,15.03-7.02,12.13,4.23,23.68,9.09,33.44,17.63,2,1.75,4.94-1.17,2.93-2.93-6.02-5.25-12.62-9.35-19.88-12.65.29-2.34.44-4.68.59-7.02,9.22,2.32,18.94-.61,26.35-6.49ZM261.5,75.6c.14-.33.27-.68.44-1.03.58-1.23,1.31-2.38,2.12-3.46,1.66-2.23,4.04-4.62,6.44-6.04.59-.35.41-1.21-.11-1.42.05-.53-.12-1.09-.66-1.48-4.88-3.48-7.23-9.16-6.59-14.9,2.92,2.83,5.88,5.62,8.89,8.36,2.89,2.63,5.84,5.6,9.17,7.77-3.93,5.68-8.09,11.52-11.07,17.7-2.79-1.96-5.67-3.79-8.62-5.49ZM321.62,104.19c-3.36-1.54-7.18-3.36-11.02-4.78,1.94-4.87,3.57-10.06,4.78-15.11,9.19,3.81,19.64,5.72,29.52,7.49-6.63,3.71-13.9,4.09-21.63,2.39-2.3-.51-3.09,2.65-.96,3.47.26.1.53.18.79.27-.53,2.08-1.07,4.15-1.49,6.26Z"/>
  <path class="cls-1" d="M311.14,243.95s-.03.01-.05.02c.12-3.18.19-6.34.22-9.47.01-1.08-.53-1.81-1.27-2.18.41-.8.12-2.04-.91-2.39-13.99-4.78-26.26-8.92-37.83-18.58-.87-.73-1.89-.73-2.77,0-14.54,12.03-31.52,20.49-49.96,24.61-18.61,4.16-35.92,2.52-54.44-.18.02-.13.04-.26.06-.39.38-2.02-2.53-2.89-3.12-.86-2.96,10.17-3.12,20.13-1.13,29.46-5.67,1.94-12.87.68-14.48-6.03-1.33-5.54,2.62-8.57,7.14-8.65-3.22,1.19-4.7,5.22-4.18,8.49.24,1.55,2.91,1.2,2.75-.37-.3-3,1.44-4.73,3.51-6.56.38-.34.38-.93.13-1.36.39.08.79.17,1.18.29,1.4.43,2.51-1.47,1.44-2.47-7.02-6.54-17.24,2.16-16.11,10.26,1.36,9.67,11.49,13.11,19.3,9.28,2.04,7.71,5.62,14.92,10.29,21.41-5.72,5.71-10.7,12.8-12.92,20.6-3.11-4.52-7.88-7.64-13.5-8.41-.73-.1-1.72.31-1.62,1.24.24,2.36.97,4.41,2.19,6.13-4.62-.26-9.31,1.01-13.32,3.36-.75.44-.91,1.54-.28,2.15,2.58,2.47,5.75,4.27,9.16,4.98-3.94,1.26-7.66,3.2-11,5.64-.8.58-1.15,2.11,0,2.61,3.63,1.56,7.42,2.35,11.16,2.23-2.07,1.37-3.99,2.98-5.76,4.75-1.08,1.09-.18,2.61,1.15,2.77,6.54.78,17.57-.9,22.24-6.51,1.36,6.92,10,10.7,16.32,8.16.71-.29,1.28-.97,1.02-1.79-1.28-4.08-3.85-8.06-7.41-10.57,3.59-2.46,6.61-6.71,9.3-9.73,3.19-3.59,6.47-7.36,9.06-11.47,11.89,8.96,26.5,14.64,41.67,15.45,6.29.34,12.72-.04,19.09-1.07.55,4.14,1.8,8.13,2.99,12.13,1.03,3.44,1.77,7.41,3.36,10.76-4.38,3.24-8.44,6.86-12.49,10.5-1.43,1.29.14,3.19,1.71,2.94,7.07-1.12,14.64-1.66,21.48-3.78.01.04,0,.07.02.11,4.17,7.17,11.9,12.19,18.9,16.31,1.19.7,2.88-.47,2.42-1.86-1.76-5.33-4.36-10.14-7.78-14.38,2.45.95,4.98,1.71,7.64,2.26,1.12.23,2.09-.68,1.82-1.82-.83-3.52-2.66-6.37-5.27-8.37,2.94-.26,5.85-.77,8.77-1.6,1.16-.33,1.5-2.09.35-2.68-6.6-3.36-13.64-4.27-20.7-2.66,2.19-7.27,1.59-16.67.14-23.59-.23-1.09-1.7-.71-1.8.24-.47,4.3-.56,8.61-.9,12.92-.33,4.23-1.52,8.61-1.11,12.82.1,1.07,1.55,1.84,2.29.99,5.58-1.68,11.14-1.64,16.5.12-3.21.57-6.43.81-9.77.67-1.65-.07-2.01,2.51-.39,2.89,3.83.89,6.64,3.17,8.17,6.52-4.42-1.2-8.54-2.98-12.48-5.47-1.43-.9-3.19,1.27-1.84,2.39,5.07,4.21,8.89,9.21,11.47,15.07-5.31-3.73-10.08-8.1-15.52-11.67-.02-.01-.05,0-.07-.01.31-.81-.11-1.88-1.2-1.86-5.28.06-10.68,1.04-15.98,2.01,2.37-2.19,4.68-4.45,6.87-6.82.08.12.15.25.24.37.7.95,2.29.69,2.31-.63.06-4.6-2.26-9.3-3.73-13.62-1.32-3.9-2.59-7.84-4.49-11.5,15.39-2.81,30.29-9.52,41.74-19.79,8.82-7.92,13.76-17.86,16.56-28.61,6.81,1.62,14.47-2.37,16.31-9.47,1.87-7.23-4.56-18.13-12.87-16.64ZM174.32,313.76c-2.92,3.16-7.19,6.23-9.45,10.03-.16-.06-.32-.14-.48-.19-1.17-.37-1.73,1.26-.8,1.89.12.08.24.17.36.26-.15.82.79,1.62,1.58,1.35.06-.02.11-.06.17-.08,2.99,2.31,5.36,4.94,6.78,8.57-5.07,1.13-9.58-2.12-11.5-6.92-.27-.68-1.05-.99-1.7-.9-.17-.21-.46-.33-.76-.27-3.56.71-6.72,2.99-10.22,4.06-2.75.84-5.47,1.18-8.24,1.34,3.59-3.35,7.9-5.38,12.9-6.59,1.38-.33.76-2.27-.57-2.08-.49.07-.96.18-1.44.28-.13-.05-.28-.07-.45-.02-5.53,1.7-11.3,2.05-16.78.37,4.91-2.99,10.17-4.6,16.02-5.34,1.75-.22,1.87-2.87,0-2.83-.87.02-1.74.09-2.6.18-.09-.05-.17-.13-.3-.13-4.52-.26-8.52-1.34-11.98-4.09,4.42-2.06,8.99-2.41,13.77-1.63.16.1.3.2.47.29.26.14.53.08.73-.06.34.07.68.12,1.02.2,1.5.35,1.97-1.68.62-2.25-1.11-.47-2.25-.78-3.41-1.02-1.09-1.46-1.9-3.13-2.33-4.89,5.3,1.34,9.76,4.95,11.92,10.1.63,1.51,3.14.85,2.5-.69-.16-.39-.37-.75-.55-1.13,3.66-7.66,7.44-14.6,13.26-20.7,3.38,4.27,7.26,8.19,11.54,11.67-3.51,3.57-6.69,7.53-10.08,11.19ZM306.16,234.49c-.45,20.53-1.11,42.8-16.39,58.39-14.61,14.9-37.69,22.21-58.17,21.9-40.79-.61-73.77-35.79-67.83-76.64,24.33,8.78,54.08,4.65,77.3-5.25,5.93-2.53,11.66-5.52,17.1-8.98,3.84-2.44,8.82-8.19,13.36-7.37,2.39.43,5.92,4.35,8.23,5.76,3.81,2.34,7.81,4.36,11.94,6.07,4.91,2.04,9.9,3.72,15.14,4.42-.39.41-.66.97-.68,1.7ZM320.42,259.6c-1.23,5.48-6.88,8.33-12.09,7.85,1.51-6.68,2.27-13.63,2.63-20.58,2.33,1.09,4.69,1.63,6.58,3.56,2.29,2.34,3.61,5.92,2.88,9.17Z"/>
</svg>