<?xml version="1.0" encoding="UTF-8"?>
<svg id="Capa_1" data-name="Capa 1" xmlns="http://www.w3.org/2000/svg" viewBox="0 0 425.2 425.2">
  <defs>
    <style>
      .cls-1 {
        fill: #fefeff;
      }

      .cls-2 {
        fill: #f3c200;
      }

      .cls-3 {
        fill: #251827;
      }
    </style>
  </defs>
  <g>
    <g>
      <path class="cls-1" d="M144.21,144.68s-8.99-7.15-13.22-1.22c-4.23,5.93,12.35,10.24,10.07,5.63-.98-1.99-9.97,4.46-7.22,8.97,2.75,4.52,18.92-5.99,10.37-13.38Z"/>
      <path class="cls-3" d="M136.17,160c-1.39,0-2.46-.52-3.06-1.49-.96-1.58-.85-3.47.32-5.46.41-.7.95-1.39,1.56-2.03-1.56-.58-3.05-1.43-4.05-2.44-1.72-1.71-1.95-3.76-.63-5.6,1.07-1.5,2.51-2.39,4.26-2.64,4.66-.66,9.95,3.51,10.17,3.69,0,0,.02.01.03.02,3.08,2.66,3.04,5.51,2.46,7.44-1.28,4.26-6.47,7.98-10.25,8.46-.28.04-.54.05-.8.05ZM136.81,151.56c-.44.41-.88.87-1.29,1.39-.8,1.03-1.99,3-.97,4.67.43.71,1.44.74,2.2.65,3.2-.41,7.76-3.68,8.85-7.27.63-2.1-.02-4-1.93-5.66-.27-.21-5.05-3.86-8.88-3.33-1.3.18-2.32.82-3.12,1.95-.53.75-1.07,1.91.45,3.43,1.09,1.09,2.73,1.88,4.28,2.34,1.42-1.13,2.91-1.88,4.01-1.84.64.02,1.15.33,1.4.84.77,1.57-.15,2.4-.45,2.61-.91.65-2.67.67-4.55.23ZM138.67,150.16c.8.07,1.42,0,1.71-.2.08-.06.06-.23-.08-.5-.18,0-.82.21-1.63.7Z"/>
    </g>
    <g>
      <path class="cls-1" d="M149.6,140.48s2.87-11.12,9.83-8.93c6.95,2.19-3.7,15.61-4.66,10.56-.41-2.18,10.65-2.44,11.17,2.82.52,5.26-18.72,6.6-16.34-4.44Z"/>
      <path class="cls-3" d="M158.39,149.71c-2.57,0-5.22-.61-7.1-1.99-1.62-1.19-3.37-3.44-2.51-7.42,0-.01,0-.02,0-.03.07-.28,1.79-6.79,5.9-9.07,1.55-.86,3.23-1.01,4.99-.46,2.16.68,3.21,2.45,2.87,4.86-.2,1.41-.88,2.98-1.77,4.38.87.14,1.72.37,2.46.69,2.13.89,3.35,2.33,3.54,4.17.13,1.35-.65,2.58-2.21,3.47-1.57.9-3.84,1.4-6.17,1.4ZM150.42,140.68c-.53,2.48.1,4.39,1.87,5.68,3.03,2.22,8.64,2.08,11.44.48.67-.38,1.45-1.01,1.37-1.84-.19-1.95-2.33-2.81-3.59-3.15-.64-.17-1.27-.28-1.86-.33-1.24,1.48-2.65,2.52-3.77,2.55-.38.03-1.61-.1-1.93-1.81-.11-.56.12-1.11.62-1.52.83-.68,2.5-1,4.31-.94.96-1.29,1.79-2.91,2.01-4.44.3-2.12-.83-2.73-1.7-3.01-1.32-.42-2.52-.31-3.66.32-3.39,1.88-5,7.67-5.09,8ZM157.29,141.55c-.93.12-1.58.35-1.72.55.08.14.13.32.26.29.35,0,.87-.32,1.46-.84Z"/>
    </g>
    <path class="cls-2" d="M148.8,152.14s-3.85,5.37-.58,9.89c3.27,4.51,8.59,7.61,11.22,4.56,2.63-3.05,3.81-9.45-.4-13.29-4.21-3.83-9.3-2.88-10.25-1.16Z"/>
    <path class="cls-3" d="M146.91,158.45c-.33,0-.64-.19-.78-.51-.18-.43.01-.92.44-1.11,4.4-1.89,9.46-4.45,9.96-5.29.24-.4.76-.53,1.16-.29.4.24.53.76.29,1.16-1.01,1.7-8.48,5-10.74,5.97-.11.05-.22.07-.33.07Z"/>
    <path class="cls-3" d="M148.66,163.17c-.32,0-.62-.18-.77-.49-.2-.42-.01-.92.41-1.12,4.4-2.05,10.91-5.49,11.64-6.74.24-.4.75-.54,1.15-.3.4.24.54.75.3,1.15-1.26,2.16-10.54,6.56-12.39,7.42-.11.05-.24.08-.35.08Z"/>
    <path class="cls-3" d="M145.04,142.87c-.34,0-.65-.2-.79-.53-.09-.24-2.33-5.76-8.79-5.42-.47.02-.86-.33-.89-.8-.02-.47.33-.86.8-.89,7.67-.39,10.42,6.42,10.45,6.49.17.43-.05.92-.48,1.09-.1.04-.2.06-.31.06Z"/>
    <path class="cls-3" d="M152.31,165.91c-.34,0-.66-.21-.79-.55-.16-.44.06-.92.49-1.09,3.05-1.14,8.2-3.56,9.04-5.19.21-.41.72-.57,1.14-.36.41.21.58.72.36,1.14-1.42,2.74-9.08,5.67-9.95,5.99-.1.04-.2.05-.29.05Z"/>
    <path class="cls-3" d="M147.02,142.43c-.3,0-.58-.16-.74-.43-4.36-7.79.78-12.59.83-12.63.34-.31.88-.29,1.19.06.31.34.29.88-.05,1.19h0c-.17.16-4.18,3.98-.49,10.56.23.41.08.92-.32,1.15-.13.07-.27.11-.41.11Z"/>
  </g>
  <path class="cls-3" d="M171.68,303.92c-.28,0-.57,0-.85-.02-.47-.03-.82-.42-.8-.89.02-.47.42-.84.89-.8,1.07.05,2.12,0,3.17-.19.47-.08.9.23.98.69.08.46-.23.9-.69.98-.89.16-1.8.24-2.7.24ZM167.55,303.31c-.08,0-.16-.01-.24-.04-1.12-.33-2.22-.8-3.27-1.38-.41-.23-.55-.74-.33-1.15.23-.41.74-.55,1.15-.33.95.53,1.93.94,2.93,1.24.45.13.7.6.57,1.05-.11.37-.44.6-.81.6ZM177.46,302.76c-.33,0-.65-.2-.78-.53-.17-.43.03-.92.47-1.1.98-.39,1.93-.89,2.84-1.48.39-.26.91-.14,1.17.25.25.39.14.91-.25,1.17-1,.65-2.05,1.2-3.13,1.63-.1.04-.21.06-.32.06ZM161.68,300.09c-.19,0-.38-.06-.54-.2-.86-.72-1.71-1.54-2.5-2.45-.31-.35-.27-.88.08-1.19.35-.31.88-.27,1.19.08.74.84,1.52,1.6,2.31,2.27.36.3.41.83.11,1.19-.17.2-.41.3-.65.3ZM183.1,299.12c-.22,0-.45-.09-.61-.26-.32-.34-.3-.87.03-1.19.78-.74,1.5-1.55,2.13-2.41.28-.38.8-.46,1.18-.18.38.28.46.8.18,1.18-.69.94-1.47,1.83-2.33,2.64-.16.15-.37.23-.58.23ZM157.21,295.06c-.27,0-.53-.13-.7-.37-.16-.24-.33-.48-.49-.73-.48-.74-.91-1.51-1.28-2.29-.2-.42-.02-.92.4-1.12.42-.2.92-.02,1.12.4.34.71.74,1.42,1.17,2.1.15.24.31.47.46.7.26.38.16.91-.22,1.17-.15.1-.31.15-.47.15ZM187.05,293.7c-.12,0-.24-.03-.36-.08-.42-.2-.6-.7-.41-1.12.46-.99.8-2,1.02-3.01.1-.46.55-.74,1-.65.46.1.74.55.65,1-.25,1.13-.63,2.27-1.14,3.37-.14.31-.45.49-.77.49ZM154.34,288.99c-.37,0-.71-.25-.81-.62-.3-1.13-.5-2.3-.6-3.47-.04-.46.31-.87.77-.91.46-.04.87.31.91.78.08,1.07.27,2.14.54,3.17.12.45-.15.91-.6,1.03-.07.02-.15.03-.22.03ZM153.8,282.3s-.05,0-.08,0c-.46-.04-.8-.46-.76-.92.11-1.14.31-2.29.6-3.45.11-.45.57-.72,1.03-.61.45.12.72.57.61,1.03-.27,1.07-.46,2.14-.56,3.19-.04.44-.41.76-.84.76ZM155.43,275.78c-.11,0-.21-.02-.32-.06-.43-.17-.64-.67-.47-1.1.42-1.05.93-2.11,1.49-3.14.22-.41.74-.56,1.14-.33.41.22.56.74.33,1.14-.53.97-1,1.97-1.4,2.96-.13.33-.45.53-.78.53ZM158.66,269.87c-.17,0-.33-.05-.48-.15-.38-.27-.48-.79-.21-1.17.01-.02.02-.03.03-.05-.86-.17-1.71-.38-2.54-.61-.45-.13-.71-.59-.58-1.04.13-.45.59-.71,1.04-.58,1.03.29,2.1.53,3.19.72.31-.4.64-.79.97-1.18.3-.35.84-.39,1.19-.09.35.3.4.84.09,1.19-.71.83-1.39,1.71-2.01,2.6-.16.24-.43.36-.69.36ZM164.8,269.16c-.83,0-1.67-.03-2.52-.09-.46-.03-.81-.44-.78-.9.03-.46.44-.82.9-.78,1.12.08,2.22.11,3.29.08.46.02.85.35.87.82.01.47-.35.85-.82.87-.31,0-.62.01-.93.01ZM169.07,268.87c-.41,0-.77-.3-.83-.72-.07-.46.26-.89.72-.95,1.14-.16,2.21-.39,3.17-.68.45-.13.92.12,1.05.56.14.45-.12.92-.56,1.05-1.05.32-2.2.56-3.42.74-.04,0-.08,0-.12,0ZM175.46,266.82c-.28,0-.56-.14-.72-.4-.24-.4-.12-.92.27-1.16.98-.61,1.63-1.29,1.93-2.02.18-.43.67-.64,1.1-.46.43.18.64.67.46,1.1-.44,1.07-1.32,2.02-2.6,2.82-.14.09-.29.13-.44.13ZM152.51,266.81c-.11,0-.22-.02-.33-.07-1.1-.46-2.15-.99-3.12-1.57-.4-.24-.53-.76-.29-1.16.24-.4.76-.53,1.16-.29.9.54,1.88,1.03,2.91,1.46.43.18.63.67.45,1.1-.14.32-.45.52-.78.52ZM163.05,264.75c-.22,0-.45-.09-.61-.26-.32-.34-.31-.87.03-1.19.86-.82,1.75-1.57,2.64-2.25.37-.28.9-.21,1.18.16.28.37.21.9-.16,1.18-.85.64-1.69,1.35-2.5,2.13-.16.16-.37.23-.58.23ZM146.76,263.33c-.2,0-.39-.07-.55-.2-.92-.79-1.73-1.66-2.43-2.57-.28-.37-.21-.9.16-1.18.37-.28.9-.21,1.18.16.63.82,1.36,1.6,2.19,2.32.35.3.39.84.09,1.19-.17.19-.4.29-.64.29ZM177.46,261.15c-.31,0-.6-.17-.75-.46-.44-.84-1.09-1.35-2.01-1.55-.46-.1-.75-.55-.65-1,.1-.45.54-.75,1-.65,1.4.3,2.49,1.14,3.16,2.42.21.41.05.92-.36,1.14-.12.06-.26.09-.39.09ZM168.45,260.72c-.3,0-.59-.16-.74-.44-.22-.41-.08-.92.33-1.14,1.14-.63,2.24-1.09,3.28-1.39.45-.13.92.13,1.04.58.13.45-.13.91-.58,1.04-.91.26-1.9.68-2.93,1.24-.13.07-.27.1-.41.1ZM142.73,257.99c-.32,0-.63-.19-.77-.5-.48-1.07-.84-2.21-1.06-3.39-.09-.46.21-.9.67-.99.46-.09.9.21.99.67.21,1.05.52,2.07.95,3.02.19.42,0,.92-.43,1.11-.11.05-.23.07-.34.07ZM141.43,251.44h0c-.47,0-.84-.38-.84-.85,0-1.12.11-2.3.32-3.49.08-.46.51-.76.97-.69.46.08.77.51.69.97-.19,1.1-.29,2.19-.29,3.22,0,.46-.38.84-.84.84ZM142.41,244.78c-.06,0-.13,0-.2-.02-.45-.11-.73-.56-.62-1.02.27-1.12.57-2.22.91-3.31.14-.44.61-.69,1.06-.56.44.14.69.61.56,1.06-.32,1.05-.62,2.11-.88,3.2-.09.39-.44.65-.82.65ZM144.4,238.34c-.1,0-.2-.02-.3-.06-.44-.17-.65-.65-.49-1.09.41-1.08.85-2.14,1.32-3.16.19-.42.69-.62,1.12-.42.42.19.61.69.42,1.12-.45,1-.88,2.02-1.28,3.06-.13.34-.45.54-.79.54ZM147.19,232.2c-.13,0-.27-.03-.39-.1-.41-.22-.57-.73-.35-1.14.54-1.02,1.11-2.02,1.7-2.98.24-.4.76-.52,1.16-.28.4.24.52.76.28,1.16-.57.93-1.12,1.89-1.65,2.88-.15.29-.44.45-.75.45ZM150.72,226.45c-.17,0-.34-.05-.48-.15-.38-.27-.47-.79-.21-1.18.67-.95,1.36-1.87,2.06-2.74.29-.36.82-.42,1.19-.13.36.29.42.82.13,1.19-.68.84-1.35,1.73-2,2.65-.16.23-.43.36-.69.36ZM154.96,221.2c-.2,0-.41-.07-.57-.22-.34-.32-.36-.85-.05-1.19.57-.62,1.15-1.21,1.74-1.78-.17-.24-.21-.56-.08-.85.2-.42.7-.6,1.12-.4.97.46,2,.87,3.04,1.21.44.15.68.63.53,1.07-.15.44-.62.68-1.07.53-.67-.22-1.33-.47-1.97-.74-.7.66-1.4,1.37-2.08,2.11-.17.18-.39.27-.62.27ZM166.51,220.9s-.03,0-.04,0c-1.11-.06-2.27-.21-3.47-.45-.46-.09-.75-.54-.66-.99.09-.46.54-.75.99-.66,1.11.22,2.2.37,3.22.42.47.02.82.42.8.89-.02.45-.4.8-.84.8ZM169.87,220.73c-.4,0-.75-.29-.83-.69-.08-.46.22-.9.68-.98,1.16-.21,2.06-.6,2.62-1.13.34-.32.87-.31,1.19.03.32.34.3.87-.03,1.19-.81.76-1.97,1.29-3.47,1.56-.05,0-.1.01-.15.01ZM153.82,216.71c-.16,0-.32-.04-.46-.14-1.02-.66-1.96-1.39-2.78-2.15-.34-.32-.36-.85-.05-1.19.32-.34.85-.36,1.19-.05.76.7,1.61,1.36,2.55,1.97.39.25.5.78.25,1.17-.16.25-.43.38-.71.38ZM159.91,216.63c-.25,0-.5-.11-.67-.33-.28-.37-.22-.9.15-1.18.96-.74,1.93-1.4,2.86-1.96.4-.24.92-.11,1.16.29.24.4.11.92-.29,1.16-.88.53-1.79,1.15-2.7,1.85-.15.12-.33.18-.51.18ZM173.79,216.29c-.39,0-.75-.28-.83-.68-.04-.19-.09-.39-.16-.59-.26-.78-.65-1.38-1.17-1.79-.36-.29-.42-.82-.13-1.19.29-.36.82-.42,1.19-.13.77.62,1.35,1.49,1.71,2.57.09.28.16.54.21.8.09.46-.21.9-.66.99-.06.01-.11.02-.16.02ZM165.72,213.22c-.34,0-.66-.21-.79-.54-.17-.43.05-.92.49-1.09,1.27-.49,2.46-.75,3.54-.79.43-.04.86.35.87.81.02.47-.35.86-.81.87-.89.03-1.91.26-3,.68-.1.04-.2.06-.3.06ZM148.94,212.11c-.27,0-.53-.13-.7-.37-.71-1.03-1.24-2.12-1.6-3.23-.14-.44.1-.92.55-1.06.44-.14.92.1,1.06.55.3.96.77,1.89,1.38,2.79.26.38.16.91-.22,1.17-.15.1-.31.15-.48.15ZM146.96,205.73h0c-.46,0-.83-.33-.83-.79.03-1.29.14-2.42.31-3.49.08-.46.51-.78.97-.7.46.08.77.51.7.97-.16,1-.26,2.05-.29,3.13-.01.46-.39.88-.85.88ZM148.07,199.16c-.09,0-.18-.01-.27-.04-.44-.15-.68-.63-.53-1.07.38-1.13.86-2.21,1.43-3.22.23-.41.74-.55,1.15-.32.41.23.55.74.32,1.15-.52.92-.96,1.91-1.3,2.93-.12.35-.45.57-.8.57ZM151.37,193.33c-.2,0-.39-.07-.55-.2-.35-.3-.39-.84-.09-1.19.76-.89,1.62-1.71,2.55-2.44.37-.29.9-.22,1.19.14.29.37.23.9-.14,1.19-.84.67-1.62,1.42-2.32,2.22-.17.19-.4.29-.64.29ZM156.63,189.15c-.3,0-.59-.16-.75-.45-.22-.41-.06-.92.35-1.14,1.87-.99,3.26-1.34,3.32-1.36.45-.11.91.16,1.02.62.11.45-.16.91-.62,1.02-.01,0-1.26.32-2.93,1.21-.13.07-.26.1-.39.1Z"/>
  <g>
    <path class="cls-2" d="M199.43,172.1c-37.19-27.88-65.81-106.69,15.95-109.39,92-3.04,56.21,74.22,22.55,111.79-24.43,27.27,45.25,216.8-20.01,205.17-48.89-8.71,21.88-177.31-18.5-207.57Z"/>
    <path class="cls-1" d="M260.74,111.53c-.14,0-.28-.02-.41-.08-.42-.2-.6-.7-.4-1.13,4.17-8.71,4.47-15.77.9-20.96-9.04-13.17-39.9-10.88-40.2-10.85-.48.04-.87-.31-.91-.77-.04-.46.31-.87.77-.91,1.31-.1,32.14-2.39,41.73,11.58,3.94,5.73,3.68,13.35-.77,22.65-.14.29-.42.46-.72.48Z"/>
    <path class="cls-3" d="M221.08,173.86c-.73.04-1.48.03-2.23-.03-19.36-1.54-27.37-24.61-27.45-24.84-.15-.44.09-.92.53-1.07.44-.15.92.09,1.07.53.07.22,7.74,22.25,25.98,23.7,18.13,1.43,29.58-30.39,29.7-30.71.15-.44.64-.67,1.08-.52.44.15.67.64.52,1.08-.46,1.31-11.09,30.93-29.19,31.86Z"/>
    <path class="cls-3" d="M223.56,367.49c-.25.01-.5,0-.76-.01-15.64-1.31-12.37-62.14-7.29-129.79,1.61-21.48,2.89-38.44,2.22-44.53-.05-.46.28-.88.75-.93.46-.05.88.28.93.75.68,6.24-.6,23.27-2.22,44.84-3.56,47.39-9.53,126.71,5.74,127.99,1.24.1,2.35-.37,3.38-1.44,16.96-17.71-2.59-173.09-2.79-174.66-.06-.46.27-.88.73-.94.47-.04.89.27.94.73.82,6.43,19.85,157.75,2.34,176.04-1.18,1.23-2.52,1.89-3.98,1.97Z"/>
    <path class="cls-1" d="M224.49,354.37c-.09,0-.19,0-.28-.03-.45-.13-.7-.6-.57-1.05,5.67-18.95,1.81-58.86,1.77-59.26-.05-.46.29-.88.76-.92.47-.04.88.29.92.76.16,1.65,3.93,40.64-1.84,59.91-.11.35-.42.58-.77.6Z"/>
  </g>
</svg>