<?xml version="1.0" encoding="UTF-8"?>
<svg id="Capa_1" data-name="Capa 1" xmlns="http://www.w3.org/2000/svg" viewBox="0 0 425.2 425.2">
  <defs>
    <style>
      .cls-1 {
        fill: #fefeff;
      }

      .cls-2 {
        fill: #f3c200;
      }

      .cls-3 {
        fill: #413756;
      }

      .cls-4 {
        fill: #f1ecd7;
      }

      .cls-5 {
        fill: #251827;
      }

      .cls-6 {
        fill: #cdcbb9;
      }

      .cls-7 {
        fill: #ee7f32;
      }
    </style>
  </defs>
  <path class="cls-2" d="M77.06,192.28s3.72-12.66,4.74-11.11c1.01,1.55,4.06,10.03,4.06,10.03,0,0,10.71,3.61,10.43,4.33-.28.72-9.61,4.51-9.61,4.51,0,0-3.02,11.01-4.71,9.93-1.69-1.08-4.62-9.87-4.62-9.87,0,0-9.59-.93-8.4-3.11,1.18-2.18,8.12-4.71,8.12-4.71Z"/>
  <g>
    <g>
      <path class="cls-7" d="M100.4,297.17s9.45-115.35,21.49-114.21c12.03,1.14,246.94,16.58,248.73,19.76,1.79,3.18-7.53,115.46-10.51,116.12-2.98.67-260.9-10.19-259.71-21.67Z"/>
      <path class="cls-5" d="M307.73,312.46c-5.21,0-9.75-2.01-13.08-7.46-8.82-14.44-19.96-22.81-33.09-24.88-14.55-2.3-31.4,3.69-46.24,16.43-23.94,20.55-55.93,8.3-76.05-8.43-9.73-8.09-18.9-9.15-24.88-8.62-6.49.58-10.75,3.12-10.79,3.14-.32.2-.74.09-.94-.23-.19-.32-.09-.74.23-.94.18-.11,17.86-10.53,37.25,5.59,19.71,16.39,51,28.44,74.29,8.44,15.14-13,32.39-19.1,47.34-16.74,13.55,2.14,25,10.72,34.05,25.52,7.47,12.22,22.16,5.38,36.36-1.24,13.26-6.18,25.79-12.02,32.59-3.01.23.3.17.73-.13.95s-.73.17-.95-.13c-6.14-8.12-18.18-2.51-30.93,3.43-8.69,4.05-17.55,8.18-25.02,8.18Z"/>
      <path class="cls-5" d="M183.85,279.48c-4.09,0-7.7-1.41-10.71-4.99-33.32-39.61-67.9-17.64-68.24-17.42-.31.21-.74.12-.94-.2-.21-.31-.12-.74.2-.94.35-.23,35.91-22.88,70.03,17.68,7.4,8.8,18.78,3.27,33.18-3.73,18.2-8.85,40.86-19.87,65.82-6.75,28.82,15.14,56.4,10.96,74.65,8.2,9.92-1.5,16.48-2.5,18.91.45.24.29.2.72-.09.96-.29.24-.72.2-.96-.09-1.94-2.35-8.54-1.35-17.66.03-18.43,2.79-46.28,7.01-75.49-8.34-24.35-12.8-46.66-1.95-64.59,6.77-9,4.38-17.23,8.38-24.11,8.38Z"/>
      <path class="cls-5" d="M274.81,311.77c-.24,0-.47-.12-.59-.34-.07-.12-6.72-11.49-19.05-13.33-9.5-1.41-19.85,3.06-30.74,13.31-.27.26-.7.25-.96-.03-.26-.27-.24-.71.03-.96,11.22-10.55,21.95-15.15,31.89-13.66,12.99,1.94,19.74,13.51,20.02,14,.19.33.07.74-.25.93-.11.06-.22.09-.34.09Z"/>
      <path class="cls-5" d="M322.16,228.94c-14.72,0-33.73-1.32-58.2-4.91-39.8-5.83-69.15-8.43-90.58-10.33-33.91-3-49.39-4.38-59.75-13.83-.28-.25-.3-.68-.04-.96.25-.28.69-.3.96-.04,10.02,9.15,25.36,10.51,58.95,13.48,21.45,1.9,50.82,4.5,90.66,10.34,46.79,6.86,73.04,5.18,86.82,2.56,14.93-2.84,18.84-7.34,18.87-7.39.24-.29.67-.33.96-.09.29.24.33.66.1.95-.45.56-8.92,10.22-48.75,10.22Z"/>
      <path class="cls-5" d="M267.33,258.11c-6.72,0-12.78-1.94-18.03-7.08-33.7-33.03-74.53-35.8-98.21-24.39-11.87,5.72-21.78,6.96-29.46,3.7-8.2-3.48-10.7-10.81-10.8-11.12-.12-.36.08-.74.43-.86.36-.12.74.07.86.43.02.07,2.43,7.08,10.06,10.31,7.3,3.09,16.82,1.85,28.31-3.68,15.16-7.3,33.23-8.36,52.23-3.07,17.33,4.83,34.21,14.67,47.52,27.71,11.97,11.73,28.82,5.78,48.33-1.12,21.65-7.65,46.18-16.33,69.56-1.99.32.2.42.62.22.94-.2.32-.62.42-.94.22-22.82-14.01-47.03-5.44-68.39,2.11-11.62,4.11-22.32,7.89-31.71,7.89Z"/>
      <path class="cls-5" d="M317.94,210.53c-15.99,0-37.54-3.67-64.42-16.27-.34-.16-.49-.57-.33-.91.16-.34.56-.49.91-.33,63.27,29.68,96.55,9.43,96.88,9.22.32-.2.74-.11.94.21.2.32.11.74-.21.94-.19.12-11.67,7.13-33.77,7.13Z"/>
    </g>
    <g>
      <g>
        <path class="cls-3" d="M166.33,151.88s-84.02-54.36-96.43-44.33c-12.41,10.03-21.41,27.39-11.61,45.72,11.85,22.17,33.84,16.19,39.9,9.55,24.84-27.23,43.24,29.91,43.24,29.91,40.89-2.75,24.9-40.85,24.9-40.85Z"/>
        <path class="cls-6" d="M166.33,151.88s195.57,100.44,193.52,105.29c-.79,1.88-6.9,9.03-16.73,16.65l-50.37,11.78c-45.32-7.2-144.41-67.28-144.41-67.28l-3.54-31.36c10.72-18.18,21.53-35.08,21.53-35.08Z"/>
        <path class="cls-4" d="M295.53,271.04c-12.17-12.63-2.83-37.51-31.74-32.96-28.92,4.56-29.85,9.69-43.48-15.3-13.63-24.99-21.9-15.96-45.78-18.38-16.19-1.64-25.45-11.36-29.73-17.44-11.79,19.99-23.46,41.52-20.51,43.79,11.6,8.94,105.48,56.72,150.8,63.92,27.75,4.41,52.52-8.83,68.03-20.87-13-13.33-37.8,7.39-47.58-2.77Z"/>
      </g>
      <path class="cls-1" d="M131.05,141.59c-.17,0-.34-.06-.47-.18-11.16-10.5-41.93-23.82-42.24-23.95-.35-.15-.51-.55-.36-.9.15-.35.55-.5.9-.36,1.27.55,31.3,13.55,42.63,24.21.27.26.29.69.03.96-.13.14-.32.21-.5.21Z"/>
      <path class="cls-1" d="M150.45,153.03c-.13,0-.26-.04-.37-.11l-13.8-8.96c-.32-.21-.41-.63-.2-.94.21-.32.63-.41.94-.2l13.8,8.96c.32.21.41.63.2.94-.13.2-.35.31-.57.31Z"/>
      <g>
        <path class="cls-1" d="M317.77,241c-.3,0-.57-.19-.65-.49-.04-.13-.92-2.92-4.6-2.8-.36.04-.69-.28-.7-.66-.01-.38.28-.69.66-.7,3.82-.14,5.56,2.41,5.95,3.78.1.36-.11.74-.47.84-.06.02-.13.03-.19.03Z"/>
        <path class="cls-1" d="M310.86,243.48c-.29,0-.57-.19-.65-.49h0c-.04-.12-.89-2.9-4.6-2.8-.33.03-.69-.28-.7-.66-.01-.38.28-.69.66-.7,3.81-.12,5.56,2.41,5.95,3.78.1.36-.11.74-.47.84-.06.02-.13.03-.19.03Z"/>
        <path class="cls-1" d="M308.17,235.12c-.29,0-.57-.19-.65-.49h0c-.04-.12-.89-2.91-4.6-2.8-.35.02-.69-.28-.7-.66-.01-.38.28-.69.66-.7,3.81-.13,5.56,2.41,5.95,3.78.1.36-.11.74-.47.84-.06.02-.13.03-.19.03Z"/>
        <path class="cls-1" d="M300.41,236.73c-.29,0-.57-.19-.65-.49h0c-.04-.12-.91-2.92-4.6-2.8-.35.02-.69-.28-.7-.66-.01-.38.28-.69.66-.7,3.85-.13,5.56,2.41,5.95,3.78.1.36-.11.74-.47.84-.06.02-.13.03-.19.03Z"/>
        <path class="cls-1" d="M303.2,244.92c-.29,0-.57-.19-.65-.49h0c-.04-.12-.89-2.92-4.6-2.8-.35.03-.69-.28-.7-.66-.01-.38.28-.69.66-.7,3.82-.16,5.56,2.41,5.95,3.78.1.36-.11.74-.47.84-.06.02-.13.03-.19.03Z"/>
        <path class="cls-1" d="M297.03,228.94c-.29,0-.57-.19-.65-.49h0c-.04-.12-.88-2.91-4.6-2.8-.34.02-.69-.28-.7-.66-.01-.38.28-.69.66-.7,3.8-.14,5.56,2.41,5.95,3.78.1.36-.11.74-.47.84-.06.02-.13.03-.19.03Z"/>
        <path class="cls-1" d="M291.28,231.16c-.23,0-.45-.11-.58-.32-.07-.11-1.62-2.44-5.34-1.32-.36.11-.74-.09-.85-.46-.11-.36.1-.74.46-.85,3.81-1.15,6.17.74,6.89,1.9.2.32.1.74-.22.94-.11.07-.24.1-.36.1Z"/>
      </g>
      <g>
        <path class="cls-1" d="M174.83,236.44c-.29,0-.57-.19-.65-.49h0c-.04-.12-.88-2.9-4.6-2.8-.33.02-.69-.28-.7-.66-.01-.38.28-.69.66-.7,3.81-.14,5.56,2.41,5.95,3.78.1.36-.11.74-.47.84-.06.02-.13.03-.19.03Z"/>
        <path class="cls-1" d="M167.93,238.93c-.3,0-.57-.19-.65-.49-.04-.14-.95-2.91-4.6-2.8-.34.04-.69-.28-.7-.66-.01-.38.28-.69.66-.7,3.78-.15,5.56,2.41,5.95,3.78.1.36-.11.74-.47.84-.06.02-.13.03-.19.03Z"/>
        <path class="cls-1" d="M165.24,230.56c-.3,0-.57-.19-.65-.49-.04-.13-.94-2.94-4.6-2.8-.35.05-.69-.28-.7-.66-.01-.38.28-.69.66-.7,3.8-.14,5.56,2.41,5.95,3.78.1.36-.11.74-.47.84-.06.02-.13.03-.19.03Z"/>
        <path class="cls-1" d="M157.48,232.18c-.29,0-.57-.19-.65-.49-.04-.14-.9-2.91-4.6-2.8-.36.03-.69-.28-.7-.66-.01-.38.28-.69.66-.7,3.82-.15,5.56,2.41,5.95,3.78.1.36-.11.74-.47.84-.06.02-.13.03-.19.03Z"/>
        <path class="cls-1" d="M160.26,240.36c-.29,0-.57-.19-.65-.49h0c-.04-.12-.9-2.91-4.6-2.8-.35.02-.69-.28-.7-.66-.01-.38.28-.69.66-.7,3.8-.15,5.56,2.41,5.95,3.78.1.36-.11.74-.47.84-.06.02-.13.03-.19.03Z"/>
        <path class="cls-1" d="M154.1,224.38c-.3,0-.57-.19-.65-.49h0c-.04-.12-.92-2.92-4.6-2.8-.35.03-.69-.28-.7-.66-.01-.38.28-.69.66-.7,3.79-.15,5.56,2.41,5.95,3.78.1.36-.11.74-.47.84-.06.02-.13.03-.19.03Z"/>
        <path class="cls-1" d="M148.35,226.6c-.23,0-.45-.11-.58-.32-.07-.1-1.61-2.44-5.34-1.32-.36.11-.74-.09-.85-.46-.11-.36.1-.74.46-.85,3.81-1.15,6.17.74,6.89,1.9.2.32.1.74-.22.94-.11.07-.24.1-.36.1Z"/>
      </g>
    </g>
  </g>
</svg>