<?xml version="1.0" encoding="UTF-8"?>
<svg id="Capa_1" data-name="Capa 1" xmlns="http://www.w3.org/2000/svg" viewBox="0 0 425.2 425.2">
  <defs>
    <style>
      .cls-1 {
        fill: #fefeff;
      }

      .cls-2 {
        fill: #53afa2;
      }

      .cls-3 {
        fill: #f1ecd7;
      }

      .cls-4 {
        fill: #e1503f;
      }

      .cls-5 {
        fill: #251827;
      }

      .cls-6 {
        fill: #ee7f32;
      }

      .cls-7 {
        fill: #b1739a;
      }
    </style>
  </defs>
  <g>
    <path class="cls-6" d="M280.16,172.16s106.57-51.28,111.33-67.38c4.76-16.09-39.28-37.94-88.01-13.89-48.73,24.05-57.44,98.42-23.32,81.26Z"/>
    <path class="cls-3" d="M294.46,96.2s24.41,31.92,27.01,24.25c1.99-5.87-9.48-33.32-9.48-33.32,0,0-8.24-1.66-17.52,9.07Z"/>
    <path class="cls-3" d="M278.84,110.51s28.06,26.01,20.07,25.89c-7.99-.12-29.37-12.43-29.37-12.43,0,0-.36-8.6,9.3-13.46Z"/>
    <path class="cls-3" d="M334.84,81.09s8.56,33.55,12.39,31c3.83-2.55,3.94-31.78,3.94-31.78,0,0-8.67-4.32-16.33.78Z"/>
  </g>
  <g>
    <path class="cls-7" d="M129.33,337.66s.84-46.23,60.94-60.1c60.1-13.87,91.62,17.23,94.98,18.91,3.36,1.68,31.52-30.26,34.46-20.17,2.94,10.09,21.01,66.82,17.65,68.08-3.36,1.26-39.92-13.75-44.97-10.39-5.04,3.36-7.98,38.97-79.43,47.37-71.44,8.41-86.63-29.59-83.63-43.71Z"/>
    <path class="cls-5" d="M187.97,374.4c-.61,0-1.22-.21-1.73-.63-1.14-.96-1.3-2.66-.35-3.81,12.34-14.81-5.02-58.68-12.75-74.33-.66-1.34-.11-2.96,1.22-3.62,1.35-.66,2.96-.11,3.62,1.22,1.2,2.43,29.17,59.65,12.06,80.19-.54.64-1.3.97-2.08.97Z"/>
    <path class="cls-5" d="M221.23,361.06c-1.47,0-2.68-1.18-2.7-2.66-.02-1.49,1.17-2.72,2.66-2.74,3.72-.05,10.43-1.05,12.58-3.49.49-.55.66-1.09.58-1.81-.53-4.81-11.68-9.93-16.99-11.66-1.1-.36-1.85-1.37-1.87-2.53-.02-1.15.7-2.19,1.78-2.58,8.65-3.13,17.73-8.82,16.93-12-.86-3.42-12.37-5.63-22.55-5.72-1.49-.01-2.7-1.23-2.69-2.71,0-1.32.98-2.42,2.24-2.65,2.74-.76,13.45-5.53,14.91-9.11.16-.4.1-.56-.02-.75-2.25-3.75-12.71-3.81-17.43-3.24-1.44.17-2.82-.88-3-2.36-.18-1.48.88-2.82,2.36-3,1.84-.21,18.06-1.92,22.7,5.82,1.2,2,1.18,4.31-.07,6.51-1.45,2.56-4.68,4.95-8.08,6.89,7.36,1.05,15.48,3.48,16.87,9.02,1.71,6.85-7.35,12.56-14.11,15.78,5.87,2.7,13.69,7.44,14.38,13.71.25,2.23-.41,4.31-1.9,5.99-4.43,5.01-15.33,5.29-16.56,5.31h-.03Z"/>
    <path class="cls-5" d="M248.79,352.76c-1.34,0-2.5-.99-2.68-2.35-.2-1.48.85-2.84,2.33-3.03,9.13-1.19,18.1-3.59,20.11-5.32-1.66-2.1-10.13-6.22-19-9.18-1.12-.37-1.87-1.43-1.85-2.61.02-1.18.8-2.21,1.93-2.55,7.67-2.28,14.91-6.39,14.6-8.31-.32-1.99-8.66-4.23-16.84-4.52-1.32-.04-2.41-1.04-2.58-2.35-.17-1.31.63-2.55,1.89-2.94,4-1.22,12.44-5.04,12.99-9.11-2.11-2.47-11.94-3.62-19.9-3.36-1.53.03-2.74-1.13-2.78-2.62-.04-1.49,1.13-2.74,2.62-2.78,3.2-.09,19.29-.29,23.95,4.89,1.18,1.32,1.69,2.91,1.46,4.6-.55,4.03-3.93,7.16-7.53,9.39,5.61,1.14,11.34,3.42,12.05,7.95.83,5.24-5.54,9.25-11.26,11.75,8.45,3.36,16.12,7.67,15.82,12.16-.31,4.69-8.72,8.14-25,10.27-.12.02-.24.02-.35.02Z"/>
    <path class="cls-5" d="M159.85,341.54c-.78,0-1.56-.17-2.34-.52-6.48-2.9-11-19.21-12.23-24.14-.36-1.45.52-2.91,1.96-3.27,1.45-.36,2.92.51,3.28,1.96,2.85,11.38,7.36,20.4,9.33,20.57,3.4-1.78,3.78-14.29,2.77-22.65-.18-1.48.88-2.83,2.36-3.01,1.5-.16,2.83.87,3.01,2.36.48,3.94,2.46,23.84-5.58,28.05-.83.43-1.69.65-2.56.65Z"/>
    <path class="cls-5" d="M147.81,366.25c-6.07,0-12.63-6.06-14.06-7.47-1.07-1.04-1.08-2.75-.04-3.82,1.04-1.06,2.75-1.08,3.82-.05,3.03,2.96,8.71,6.84,11.26,5.75,1.59-.67,2.5-3.85,2.5-8.73,0-1.49,1.21-2.7,2.7-2.7s2.7,1.21,2.7,2.7c0,7.58-1.9,12.06-5.8,13.71-.99.42-2.02.6-3.07.6Z"/>
    <path class="cls-5" d="M296.18,307.16c-.9,0-1.79-.45-2.3-1.28-.78-1.27-.39-2.93.88-3.72l21.01-12.98c1.26-.78,2.93-.39,3.72.88.78,1.27.39,2.93-.88,3.72l-21.01,12.98c-.44.27-.93.4-1.42.4Z"/>
    <path class="cls-5" d="M326.02,324.94c-.06,0-.12,0-.18,0l-26.9-1.81c-1.49-.1-2.61-1.39-2.51-2.88.1-1.49,1.35-2.58,2.88-2.51l26.9,1.81c1.49.1,2.61,1.39,2.51,2.88-.1,1.43-1.28,2.52-2.69,2.52Z"/>
  </g>
  <g>
    <path class="cls-4" d="M104.93,104.3s-9.83-43.65-50.05-5.85c-31.97,30.05,54.78,100.76,97.68,69.68,38.19-27.68-34.27-9.51-47.63-63.82Z"/>
    <path class="cls-2" d="M70.17,81.47s9.68-19.71-2.13-16.11c-11.81,3.6-7.55,19.87-7.55,19.87,0,0-14.19,7.29-10.93,20.71,3.26,13.41,12.05-7.58,12.05-7.58,0,0,3.39,20.18,10.93,16.19,7.53-3.98,1.16-22.16,1.16-22.16,0,0,22.59,7.12,22.16,1.16-.43-5.96-5.16-17.01-25.68-12.07Z"/>
    <path class="cls-1" d="M127.2,145.64c-.1,0-.19,0-.29-.03-23.87-4.67-33.32-36.34-33.71-37.69-.23-.8.23-1.63,1.02-1.87.81-.24,1.63.23,1.87,1.02.09.31,9.34,31.26,31.4,35.58.82.16,1.35.95,1.19,1.77-.14.72-.77,1.22-1.48,1.22Z"/>
  </g>
</svg>