<?xml version="1.0" encoding="UTF-8"?>
<svg id="Capa_1" data-name="Capa 1" xmlns="http://www.w3.org/2000/svg" viewBox="0 0 425.2 425.2">
  <defs>
    <style>
      .cls-1 {
        fill: #1d1d1b;
      }
    </style>
  </defs>
  <path class="cls-1" d="M378.76,172.01c-50.97-7.75-54.48-74.05-89.12-102.31-27.65-22.55-72.03-22.43-98.99,1.18-1.16,1.02.36,3.01,1.66,2.15,37.37-24.93,85.91-18.95,111.21,19.67,19.07,29.11,30.74,73.31,68.46,82.72-8.1,4.71-16.79,7.17-26.48,7.4-.19,0-.36.04-.53.08-10.29-28.83-28.36-55.32-50.71-76.11-19.5-18.14-49.94-43.2-77.71-28.21-.97.52-.11,1.95.86,1.47,29.38-14.85,62.13,16.6,80.9,36.29,19.56,20.51,33.61,44.56,44.21,70.7.4,1,1.37,1.33,2.21,1.2,3.53,6.72,8.4,12.13,14.58,16.2-11.29.26-22.2-1.84-32.75-6.56-2.01-.9-3.78.91-2.91,2.91,4.01,9.2,10.41,15.95,18.92,20.42-3.97.97-7.96,1.28-12.23.97-.55-.04-.96.13-1.28.39-1.67-.21-3.35-.33-5.03-.33.11-.05.23-.09.34-.15,1.88-.91,4.06-2.94,2.65-5.2-1.25-2.01-4.22-1.77-6.2-1.56-3.15.33-6.25,1.23-9.06,2.7.73-2.58,1.22-5.46-.13-7.88-1.05-1.88-3.32-3.21-5.49-3.01-5.54.51-4.34,8.01-2.93,12.36-21.69,1.02-41.6-2.87-62.06-9.47,8.18-2.3,15.91-6.16,22.62-11.77,12.24-10.24,20.3-25,22.23-40.56,1.96,3.08,5.49,4.58,9.34,3.89,5.65-1.01,9.8-6.33,11.36-11.56,1.54-5.17.55-11.16-3.82-14.64-3.05-2.43-9.31-4.11-11.7-.08-.43.72.14,1.46.88,1.53,2.82.29,5.29-.5,7.88,1.23,3.36,2.25,3.99,6.53,3.16,10.22-1.49,6.6-10.85,15.36-16.44,7.04-.1-.15-.24-.23-.38-.29.48-6.05.04-12.19-1.47-18.21,1.58-.87,1.25-3.75-.99-3.85-20.41-.92-40.58-1.24-58.38-12.66-14.6-9.36-24.63-23.22-33.99-37.48.76-.94-.24-2.45-1.35-2-.67-.71-1.79.03-1.46.99-20.67,14.63-36,39.22-36.67,64.82-.27,10.19,2.04,19.71,6.29,28.19-10.62,3.31-24.68-20.52-27.39-26.72-5.13-11.72-6.36-24.57-3.38-37.04,2.8-11.75,9.44-22.8,18.52-30.77,13.26-11.64,28.3-14.02,43.78-5.7.85.45,1.54-.57.98-1.27-10.49-13.05-30.23-8.74-42.31-.53-14.5,9.86-24.22,26.22-26.64,43.5-2.33,16.61,2.44,33.6,12.57,46.91,3.88,5.1,17.93,20.56,25.7,15.03,6.83,11.72,17.5,21.18,30.32,27.2-.19.19-.35.43-.4.76-.02.13-.05.27-.07.4-10.41.05-19.8,1.12-30.09-2.18-10.23-3.28-19.04-9.06-26.69-16.45,3.44-.96,6.72-3.17,8.71-6.14,1.48-2.2,2.34-5.88.27-8.02-1.76-1.81-4.4-1.37-6.09.25-1.61,1.54-2.99,5.63-5.49,5.69-.02,0-.04.01-.06.01.18-6.15-3.2-11.68-8.08-15.35-.85-.64-1.94.09-2.24.91-.89,2.44-1.06,5.15-.62,7.74-1.77-1.53-3.67-2.9-5.51-4.15-.63-.43-1.78-.03-1.9.77-.36,2.58-.07,5.09.73,7.39-1.68.16-3.33,1.09-4.17,2.55-1.38,2.39.18,4.53,1.96,6.13.38.34.78.66,1.17.99-.32.07-.65.15-.97.29-2.03.85-3.54,2.92-3.08,5.16.54,2.63,3.27,3.52,5.58,3.99,3.15.65,7.27,2.02,10.63,1.62,13.1,20.48,37.52,31.6,61.42,31.8-6.74,28.5-17.72,54.89-35.85,79.16-.68.9-.2,2.57.8,3.04,12.97,6.09,26.75,9.85,40.71,11.42-1.6,7.8,1.62,19.07,6.48,25.76-5.87.69-11.16,3-15.67,7.13-.89.82-.42,2.38.71,2.67,9.69,2.55,21.04,2.61,29.89-2.63.95-.56.49-1.96-.48-2.02,1.82-4.75,1.51-10.42,1.27-15.43-.24-4.9-.71-10.08-2.53-14.68,6.8-.24,13.58-1.01,20.26-2.29,1.1,9.89,2.7,21.13,6.18,30.32.17.46.55.75.96.9.1.1.22.19.38.24,9.34,3.26,20.59,1.13,29.12-3.5,1.05-.57.93-1.66.31-2.31.21-.38.19-.88-.29-1.1-5.78-2.65-11.51-3.55-17.74-3.15,2.81-9.01,3.76-18.15,2.89-27.6,11.65-4.4,22.74-10.45,32.82-18.2,1.13-.87,1.51-2.31.44-3.44-16.36-17.41-29.41-37.07-39.14-58.55,19.62,5.67,40.51,4.15,59.89-2.08,2.19-.7,1.24-4.18-.95-3.46-19.92,6.54-39.61,6.71-59.99,3.15-2.85-6.48-5.41-13.12-7.66-19.91-.87-2.61-4.99-1.51-4.15,1.14,9.6,30.21,25.8,57.64,47.2,80.95-36.29,26.67-85.22,32.2-126.42,13.83,21.44-29.36,36.86-65.66,38.5-102.24.39.16.76.35,1.14.5,2.88,1.15,5.83,2.12,8.83,2.9-4.83,7.53,1.07,18.77,9.95,19.7,4.74.5,9.23-2.07,11.97-5.83,2.09-2.87,4.1-8.11,2.33-11.62,3.51-.26,6.98-.79,10.4-1.57.05.04.09.09.16.13,19.89,10.37,43.37,13.78,65.58,12.13.92-.07,1.46-.68,1.65-1.37.46-.24.79-.73.62-1.3-.59-1.95-2.89-9.96.34-10.61,1.57-.32,3.01,1.18,3.39,2.55.56,2.06-.19,4.31-.77,6.27-.32,1.08.74,1.71,1.59,1.49.12.04.26.05.42,0,3.39-1.27,6.73-2.28,10.39-2.41.54-.02,1.61-.22,2.1.03,1.85.94-.41,2.26-1.52,2.62-2.17.7-4.39.79-6.62.41-1.63-.28-2.33,2.22-.69,2.49.36.06.72.1,1.08.15-.16.45.1,1.08.68,1.05,4.18-.25,8.26,0,12.32.7.23.43.59.76,1.1.95-3.88,2.25-8.39,2.64-12.92,1.31-1.68-.5-2.33,2.02-.72,2.6.29.11.59.16.89.25-.11.43.17,1,.71,1.01,3.96.11,7.31,1.87,9.36,5.06-4.75.2-8.7-1.6-12.8-4.15-.95-.59-1.89.51-1.51,1.38-.07.27,0,.55.31.69.26.11.5.26.74.4.58.52,1.19.99,1.85,1.41,1.55,1.59,2.42,3.76,2.27,6.02-4.01-.85-7.31-3.79-8.66-7.69-.53-1.53-2.97-.89-2.45.68,1.79,5.41,6.54,9.08,12.17,9.68.5.05,1.09-.42,1.19-.9.44-2.12.11-4.21-.77-6.01,3.21,1.05,6.74,1.26,10,.79.89-.13,1.04-1.2.75-1.85-1.19-2.69-3.32-4.77-5.86-5.98,3.48-.49,6.78-2.03,9.51-4.35,5.2.07,9.93-.83,15.03-2.82,1.97-.77,1.99-3.27,0-4.04-8.24-3.18-14.49-8.53-18.85-15.74,11.79,4.34,23.86,5.86,36.65,4.42,1.84-.21,3.24-2.99,1.08-3.98-8.39-3.85-14.52-9.49-18.83-17.3,11-.81,21.15-4.33,30.39-10.64,1.47-1.01,1.62-3.97-.56-4.31ZM250.14,316.53c.77,9.47-.33,18.66-3.3,27.74-.24.75.43,1.76,1.27,1.66,5.89-.67,11.51-.08,17.17,1.43-8.41,3.62-16.21,4.19-25.2,3.92-.59-9.8-3.59-20.65-6.55-30.05,5.63-1.19,11.17-2.79,16.61-4.71ZM208.11,324.11c.01,5.24,1.05,10.48,1.14,15.74.09,4.96-1.01,10.04-.21,14.91,0,.03.02.05.03.08-7.65,1.93-14.73,3-22.51,1.57,3.85-2.89,8.13-4.57,13.06-4.97.3.19.69.14.96-.07.11,0,.21-.02.32-.02,1.66-.05,1.67-2.61,0-2.59-.25,0-.49.03-.73.04-1.6-4.06-3.59-7.92-4.7-12.2-1.13-4.33-.93-8.74-1.61-13.05,4.74.43,9.5.62,14.25.55ZM186.21,226.07c-.22-.1-.48-.16-.77-.16-24.17-.14-44.03-11.41-59.65-29.02.04-.34-.1-.72-.42-.94-.26-.18-.54-.33-.83-.48-.18-.21-.37-.41-.55-.62-.31-.37-.76-.3-1.06-.03-2.44-.76-5.33-.84-7.67-1.24-.63-.11-1.28-.19-1.9-.33-1.78-.43-2.03-.23-1.46-2.26-.06-1.8.83-2.33,2.67-1.6.34.1.68.21,1.02.31.04,0,.07.02.1.03,1.39.97,2.81,1.89,4.28,2.74,1.47.85,2.8-1.43,1.33-2.27-3.31-1.9-7.18-4.14-9.7-7.06-1.81-2.1.32-3.79,2.46-3.44,1.71,2.95,4.4,5.33,7.81,6.67,1.56.61,2.24-1.9.69-2.52-.68-.27-1.31-.6-1.91-.97-.01-.12-.05-.23-.12-.35-1.12-1.87-2.58-3.79-4.57-4.8-.79-1.6-1.27-3.36-1.37-5.18,2.54,1.95,4.83,4.12,7.21,6.23.73,1.06,1.58,2.04,2.61,2.84,1.4,1.09,3.34-.67,2.01-2.01-3.14-3.15-4.62-7-3.93-11.17,3.59,3.42,5.37,8.08,6.06,13.04.07.51.42.69.8.66.23.35.61.6,1.16.59,4.23-.07,4.87-4.32,7.61-6.54,2.68-2.17,2.17,2.54,1.31,3.92-1.8,2.9-5.02,4.76-8.03,6.14-.01,0-.02.02-.03.02-.03-.03-.06-.05-.08-.08-.49-.5-1.44.17-1,.77,12.02,16.46,38.38,29.71,59.08,22.81-.93,5.5-1.99,10.92-3.19,16.28ZM222.8,221.39c-2.04,3.21-5.89,5.65-9.81,4.96-7.1-1.26-9.7-9.62-7.67-15.72,6.24,1.46,12.65,2.13,19.03,1.95-.28,3.16.42,5.73-1.54,8.81ZM197.17,203.23c-24.45-9.29-41.72-31.58-40.39-58.24,1.26-25.14,16.54-43.24,33.06-60.45,7.32,15.7,18.95,29.88,33.51,39.34,16.92,11,37.2,13.16,56.95,13.22,4.83,20.86-2.6,42.82-18.8,56.91-17.56,15.28-43.09,17.29-64.33,9.22Z"/>
  <path class="cls-1" d="M298.13,147.62c-.51-2.76-3.3-4.29-5.92-3.7-1.01.23-.81,1.92.25,1.83,1.38-.11,2.93.71,3.23,2.16.28,1.36-.82,2.76-2.04,3.25-.97.39-.99,2.15.27,2.02,2.75-.27,4.73-2.78,4.22-5.57Z"/>
  <path class="cls-1" d="M269.94,154.88c-2.23.51-3.76,2.24-6.2,2.49-2.56.26-5.14-.61-7.15-2.18-.86-.67-2.43.2-1.67,1.28,1.12,1.6,2.6,2.76,4.29,3.5-.44.35-.76.87-.8,1.59-1.3,25.57-25.74,45.35-51.21,37.63-20.76-6.29-30.03-25.99-36.75-44.89,2.48.17,7.59-.98,7.44-4.22-.04-.86-.77-1.38-1.6-1.22-1.01.2-1.44.92-2.27,1.46-.92.59-1.98.89-3.06.94-.58.03-1.16-.02-1.72-.14-.21-.23-.49-.3-.76-.26-1.32-.45-2.51-1.26-3.3-2.46-.65-.99-2.54-.37-2.04.86.92,2.25,2.66,3.79,4.83,4.54,4.06,23.82,20.33,48.39,46.13,50.97,26.11,2.61,47.34-17.64,48.65-43.2.01-.27-.05-.49-.11-.7.24.02.47.06.72.06,3,.12,7.51-.86,8.53-4.08.38-1.21-.83-2.21-1.96-1.96Z"/>
  <path class="cls-1" d="M206.44,154.95c-.8-2.95-3.86-5.1-6.9-4.91-.91.06-1.72.35-2.43.78-.42.11-.82.28-1.17.49-1.2.76-2.09,2.12-2.55,3.43-.89,2.49-.45,5.44,1.58,7.25,4.7,4.18,13.14-.91,11.48-7.04Z"/>
  <path class="cls-1" d="M243.29,154.71c-1.51-1.67-3.46-2.15-5.27-1.79-1.39-.14-2.83.08-3.97.63-.41.2-.78.44-1.13.7-.14.04-.29.07-.42.12-.89.29-1.54,1.07-1.55,2.03,0,.02,0,.05,0,.08-1.2,2.13-1.34,4.83-.3,7.15.25.55.95.86,1.52.87.52,0,1.05.03,1.58.04,1,.71,2.45.82,3.69.91,1.56.11,3.46,0,4.93-.61,1.32-.54,2.15-1.87,2.53-3.21.67-2.37.03-5.09-1.62-6.92Z"/>
  <path class="cls-1" d="M252.53,138.22c-1.76-1.52-4.62-2.8-6.96-2.06-1.29.41-1.53,2.6,0,2.86,1.82.31,3.34.33,4.94,1.44,1.5,1.04,2.69,2.7,3.04,4.49.22,1.11,2.03.86,1.98-.27-.11-2.55-1.02-4.77-2.99-6.46Z"/>
  <path class="cls-1" d="M199.86,134.95c-5.92-1.63-11.61,4.16-12.49,9.51-.15.92,1.11,1.3,1.41.39.78-2.35,2.6-4.44,4.68-5.72,2.08-1.28,4.08-1.34,6.39-1.71,1.3-.21,1.14-2.16,0-2.47Z"/>
  <path class="cls-1" d="M220.86,165.58c-.45-.81-1.65-.25-1.45.61.63,2.84,1.02,5.64,1.01,8.48-3.06-2.26-6.51-3.87-10.26-4.78-.98-.24-1.75.32-2.11,1.2-1.62,4-.02,11.77,5.35,11.89.9.02,1.64-1.11,1.09-1.9-.89-1.27-2.22-2.11-2.97-3.49-.68-1.25-.82-2.57-.62-3.88,3.66,1.13,6.9,2.95,9.81,5.55,1.09.97,2.8.3,2.86-1.18.15-4.41-.56-8.6-2.71-12.49Z"/>
  <path class="cls-1" d="M271.86,123.06c-11.12-12.06-27.57-20.41-42.39-26.91-.92-.4-1.73.91-.8,1.37,15.2,7.64,27.75,18.04,41.8,27.33,1.12.74,2.24-.87,1.39-1.8Z"/>
  <path class="cls-1" d="M335.56,190.23c-3.87-3.81-8.99-6.34-13.02-10.09-4.05-3.77-7.43-8.04-10.94-12.29-.62-.75-1.68.2-1.28.99,2.66,5.2,6.53,9.82,10.71,13.87,3.68,3.56,8.33,8.06,13.3,9.63,1.22.38,2.11-1.24,1.23-2.11Z"/>
  <path class="cls-1" d="M314.28,201.07c-3.61-2.52-7.81-4.2-11.61-6.44-3.81-2.26-7.38-4.85-10.99-7.42-1.13-.8-2.44.96-1.46,1.9,6.1,5.88,14.67,12.44,23.09,14.26,1.43.31,2.14-1.49.97-2.31Z"/>
  <path class="cls-1" d="M294.03,210.01c-7.77-3.28-15.94-5.69-23.93-8.38-1.13-.38-1.56,1.34-.49,1.76,7.86,3.09,15.69,6.5,23.76,8.99,1.56.48,2.06-1.78.65-2.37Z"/>
  <path class="cls-1" d="M163.82,87.5c-16.34,8.51-36.62,31.98-25.48,51.36.78,1.36,2.93.45,2.52-1.06-5.41-20.16,7.3-38.25,24.01-48.5,1.14-.7.14-2.41-1.05-1.79Z"/>
</svg>