<?xml version="1.0" encoding="UTF-8"?>
<svg id="Capa_1" data-name="Capa 1" xmlns="http://www.w3.org/2000/svg" viewBox="0 0 425.2 425.2">
  <defs>
    <style>
      .cls-1 {
        fill: #fefeff;
      }

      .cls-2 {
        fill: #f3c200;
      }

      .cls-3 {
        fill: #53afa2;
      }

      .cls-4 {
        fill: #f1ecd7;
      }

      .cls-5 {
        fill: #e1503f;
      }

      .cls-6 {
        fill: #251827;
      }

      .cls-7 {
        fill: #db607c;
      }

      .cls-8 {
        fill: #ee7f32;
      }

      .cls-9 {
        fill: #b1739a;
      }
    </style>
  </defs>
  <path class="cls-6" d="M99.37,301.75c-.17,0-.33-.05-.48-.15-.46-.31-1.7-2.35-3.05-4.91-3.33.37-6.11.5-6.5-.04-.17-.24-.21-.62.08-.94.63-.7,2.12-2.33,3.91-4.2-1.3-2.95-2.21-5.6-1.87-6.44.16-.4.55-.61.98-.54.81.15,3.15,1.28,5.44,2.47,2.36-2.19,4.54-3.92,5.56-3.95.39-.03.63.15.77.29.14.14.21.35.17.55-.29,1.78-.66,3.91-1.08,6.07,5.53,3.16,5.6,3.72,5.63,4.04.03.28-.17.62-.42.73-.06.03-2.95.57-6.47,1.11-.77,3.12-1.58,5.51-2.32,5.83-.11.05-.23.07-.34.07ZM97.13,296.54c.91,1.74,1.73,3.16,2.21,3.75.36-.63.82-2.17,1.33-4.24-1.17.17-2.37.34-3.54.49ZM93.89,292.76c-.96,1.01-1.94,2.04-2.88,3.07.92,0,2.44-.13,4.21-.32-.45-.89-.91-1.83-1.34-2.75ZM94.82,291.79c.54,1.19,1.13,2.42,1.71,3.57,1.44-.17,2.98-.37,4.45-.58.29-1.27.59-2.68.89-4.17-1.23-.7-2.53-1.41-3.77-2.07-1.03.98-2.14,2.09-3.27,3.25ZM103.04,291.28c-.23,1.13-.46,2.24-.71,3.3,1.99-.29,3.73-.58,4.77-.79-.82-.59-2.32-1.51-4.06-2.51ZM92.63,285.9c.1.85.76,2.62,1.63,4.64.85-.87,1.75-1.77,2.64-2.62-1.85-.96-3.44-1.72-4.27-2.02ZM99.06,287.63c.81.43,1.58.85,2.22,1.21.29.16.57.32.84.47.3-1.58.6-3.22.87-4.83-.79.39-2.21,1.56-3.94,3.16ZM103.47,284.33h.01-.01Z"/>
  <g>
    <path class="cls-6" d="M273.53,340.65c-.67,0-1.39-.16-2.13-.48-4.07-1.77-7.77-7.94-6.85-17.73.02-.2.04-.41.06-.61-1.18-.49-2.43-.87-3.75-1.13-19.85-3.91-49.76,18.92-50.06,19.15-.28.21-.67.16-.89-.11-.21-.28-.16-.67.11-.89.08-.06,7.71-5.91,17.74-11.2,13.53-7.13,24.74-9.88,33.33-8.19,1.3.26,2.53.61,3.7,1.08,1.49-8.87,7.37-16.14,14.5-17.65,4.41-.93,13.04-.31,21.23,14.32,4.14,7.4,10,11.36,16.08,10.88,5.2-.41,9.79-4.05,11.7-9.25,2.4-6.54.17-13.87-6.11-20.11-.25-.25-.25-.65,0-.89.25-.25.65-.25.89,0,6.64,6.6,8.98,14.42,6.4,21.44-2.08,5.67-7.1,9.62-12.78,10.08-6.59.53-12.89-3.67-17.28-11.52-5.78-10.32-12.83-15.19-19.87-13.7-6.6,1.4-12.24,8.54-13.57,16.93,3.6,1.71,6.51,4.47,8.71,8.25,3.75,6.47,2.25,9.31,1.43,10.23-.66.74-1.56,1.11-2.6,1.11ZM265.82,322.39c0,.06-.01.12-.02.18-.98,10.46,3.37,15.26,6.1,16.45,1.35.59,2.58.47,3.28-.31,1.02-1.15,1.15-4.05-1.58-8.75-1.98-3.42-4.59-5.94-7.78-7.56Z"/>
    <path class="cls-7" d="M300.31,281.17s-10.14-27.4-4.29-26.22,13.71,21.43,13.71,21.43l-9.42,4.79Z"/>
    <path class="cls-7" d="M318.41,272.87s-10.14-27.4-4.29-26.22,13.71,21.43,13.71,21.43l-9.42,4.79Z"/>
    <path class="cls-9" d="M293.38,277.78s10.13,23.39,26.83,27.41c16.69,4.02,20.81-30.61,9.14-42.97-2.02-2.14-35.96,15.56-35.96,15.56Z"/>
    <path class="cls-4" d="M300.87,162.46c-5.41-7.68-24.32-11.76-36.65-13.66,1.84-22,2.09-38.8.19-42.71-5.22-10.79-111.58-5.54-132.17-4.42-12.77-1.99-29.92-4.22-32.68-2.35-3.43,2.33,12.03,29.07,20.57,43.08-1.77,49.59,4.06,127.71,8.52,133.44,27.46,35.34,103.42,16.76,108.46,7.89,3.73-6.57,7.28-16.98,10.52-29.56,12.08,1.55,31.11,3.4,38.02.81,10.44-3.92,23.45-80.85,15.22-92.53ZM270.87,222.92c-2.98,3.64-10.13,3.58-16.95,2.46,2.85-15.21,5.29-31.47,7.2-46.97l17.78,3s-1.6,33.66-8.03,41.52Z"/>
    <path class="cls-3" d="M262.54,109.58s-125.94-4.19-133.75-7.71c-7.8-3.52,1.22-29.87,20.34-31.78,19.12-1.9,82.93,2.86,92.15,4.09,25.67,3.42,31.15,33.61,21.26,35.4Z"/>
    <path class="cls-2" d="M130.33,157.54s42.19,33.81,69.03,15.66c16.46-11.13,48.59-12.6,52.95-8.22,4.35,4.38-9.94,111.14-17.38,111.09-7.44-.05-100.08-3.54-101.07-9.96-1-6.42-14.72-107.47-3.52-108.56Z"/>
    <g>
      <path class="cls-8" d="M158.93,148.38s52.17,3.74,52.34,9.35c.16,5.6-13.95,36.23-35.19,27.98-21.24-8.25-20.49-34.13-17.15-37.33Z"/>
      <path class="cls-6" d="M184.03,181.42c-1.84,0-3.66-.32-5.41-.97-19.37-7.17-16.19-30.33-16.16-30.56.05-.34.37-.58.72-.53.34.05.58.37.53.72-.03.22-3.05,22.38,15.34,29.19,6.05,2.24,11.4-.06,14.83-2.39,6.88-4.67,12-13.65,12.18-21.35,0-.35.3-.64.65-.62.35,0,.63.3.62.65-.19,8.21-5.42,17.41-12.73,22.37-3.41,2.32-7.03,3.5-10.57,3.5Z"/>
      <path class="cls-6" d="M180.72,173.83c-.51,0-1.06-.1-1.63-.31-1.63-.58-2.7-1.66-3.17-3.19-1.8-5.82,5.87-16.49,6.2-16.94.06-.08.14-.15.23-.2.18-.08.79-.31,1.38.37,1.86,2.15,3.06,14.16.1,18.48-.81,1.18-1.87,1.78-3.12,1.78ZM182.89,154.5c-1.32,1.92-7.2,10.8-5.76,15.46.36,1.15,1.14,1.93,2.39,2.37,1.67.6,2.84.05,3.69-1.72,2.24-4.66.83-14.55-.32-16.11Z"/>
      <path class="cls-6" d="M194.87,170.35c-.59,0-1.15-.2-1.68-.6-3.63-2.72-4.83-14.85-4.88-15.36-.02-.22.08-.44.26-.57.18-.13.42-.16.62-.07,3.21,1.37,8.66,10.09,8.22,14.2-.14,1.29-.86,2.13-2.03,2.35-.17.03-.34.05-.5.05ZM189.71,155.58c.5,3.98,1.88,11.4,4.23,13.16.39.29.78.4,1.19.32.42-.08.91-.29,1.01-1.25.33-3.06-3.65-9.9-6.43-12.24Z"/>
      <path class="cls-6" d="M170.41,163.62c-.61,0-1.17-.24-1.62-.72-1.46-1.51-2-2.9-1.65-4.23.71-2.74,5.05-4.56,11.83-6.62.24-.07.51,0,.67.2.16.19.19.47.08.69-.54,1.04-5.33,10.13-8.95,10.65-.12.02-.24.03-.35.03ZM177.85,153.72c-4.77,1.51-8.96,3.2-9.5,5.27-.23.87.21,1.87,1.34,3.04.26.27.53.37.88.32,2.17-.32,5.51-5.49,7.28-8.63Z"/>
    </g>
    <g>
      <path class="cls-8" d="M200.86,261.52s-52.31.49-52.92-5.09c-.62-5.57,10.98-37.24,32.81-30.74,21.84,6.5,23.19,32.36,20.11,35.82Z"/>
      <path class="cls-6" d="M196.59,260.89s-.03,0-.04,0c-.35-.02-.61-.32-.59-.67.01-.23,1.24-22.55-17.65-27.86-6.21-1.74-11.36.99-14.59,3.58-6.48,5.22-10.86,14.58-10.41,22.27.02.35-.25.65-.59.67-.34.02-.65-.25-.67-.59-.48-8.19,4-17.79,10.88-23.33,4.89-3.93,10.47-5.29,15.72-3.81,19.88,5.58,18.59,28.92,18.57,29.16-.02.33-.3.59-.63.59Z"/>
      <path class="cls-6" d="M176.6,258.76c-.25,0-.56-.09-.88-.41-2.02-1.99-4.2-13.87-1.6-18.41,1.01-1.76,2.6-2.4,4.61-1.86,1.67.45,2.82,1.43,3.42,2.93,2.26,5.66-4.52,16.91-4.81,17.39-.05.09-.13.16-.22.21-.08.05-.28.14-.53.14ZM176.8,258.07h.01-.01ZM177.42,239.16c-1.17,0-1.99.7-2.55,2.16-1.85,4.83.35,14.56,1.63,16.03,1.16-2.02,6.3-11.34,4.49-15.87-.45-1.12-1.29-1.83-2.57-2.17-.35-.1-.68-.14-.99-.14Z"/>
      <path class="cls-6" d="M170.48,258.65c-.07,0-.13-.01-.2-.03-3.31-1.1-9.45-9.35-9.34-13.49.03-1.3.68-2.19,1.83-2.51.75-.21,1.5-.08,2.22.37,3.84,2.42,6.02,14.41,6.11,14.92.04.22-.04.44-.21.59-.12.1-.26.15-.41.15ZM163.47,243.78c-.12,0-.24.02-.36.05-.41.11-.88.37-.91,1.32-.08,3.08,4.43,9.57,7.4,11.68-.82-3.93-2.8-11.21-5.28-12.78-.29-.18-.57-.27-.85-.27Z"/>
      <path class="cls-6" d="M180.37,259.52c-.17,0-.33-.07-.45-.19-.18-.18-.23-.45-.13-.69.45-1.07,4.5-10.52,8.06-11.34.74-.17,1.44.01,2.02.53,1.58,1.39,2.22,2.73,1.99,4.09-.49,2.79-4.67,4.96-11.26,7.56-.08.03-.15.04-.23.04ZM188.38,248.51c-.08,0-.16.01-.25.03-2.14.49-5.05,5.92-6.56,9.19,4.63-1.89,8.67-3.91,9.04-6.02.16-.89-.36-1.85-1.58-2.92-.21-.19-.42-.28-.66-.28Z"/>
    </g>
    <g>
      <path class="cls-5" d="M187.8,198.35s9.57-14.5,19.34-11.13c9.77,3.37,9.77,28.61,7.08,30.63-2.69,2.02-18.85,2.09-25.58-4.93-6.73-7.02-.84-14.57-.84-14.57Z"/>
      <path class="cls-6" d="M203.55,196.9c-1.46,0-3.69-1.22-4.17-1.5-.3-.17-.41-.56-.24-.86.17-.3.56-.41.86-.24,1.35.77,3.15,1.5,3.71,1.32.23-.32.06-2.57-.43-4.66-.08-.34.13-.68.47-.76.34-.08.68.13.76.47.6,2.57,1.01,5.72-.43,6.16-.16.05-.35.07-.54.07Z"/>
      <path class="cls-6" d="M193.65,206.96c-1.45,0-3.61-.93-4.33-1.26-.32-.15-.46-.52-.31-.84.15-.32.52-.46.84-.31,1.77.81,3.73,1.34,4.11,1.11.21-.54-.38-3.6-1.08-6.09-.09-.34.1-.68.44-.78.33-.09.69.1.78.44.37,1.31,1.53,5.7.98,6.98-.09.2-.27.48-.68.63-.21.08-.46.12-.74.12Z"/>
      <path class="cls-6" d="M204.43,207.29c-1.55,0-4.39-1.56-5.65-2.3-.3-.18-.4-.56-.23-.86.18-.3.56-.4.86-.23,2.09,1.23,4.36,2.2,4.99,2.14.15-1.13-.88-3.6-1.11-3.99-.18-.3-.08-.69.22-.87.3-.18.68-.09.86.21.17.28,1.64,3.41,1.23,5.08-.08.33-.3.58-.61.71-.16.07-.35.1-.57.1Z"/>
      <path class="cls-6" d="M201.08,215.88c-1.19,0-2.2-.48-2.27-.51-.31-.15-.44-.53-.29-.84.15-.31.53-.45.84-.3.02,0,1.78.84,2.97.04.8-.54.19-2.65-.23-3.58-.14-.32,0-.69.32-.83.32-.14.69,0,.83.32.18.39,1.67,3.88-.23,5.15-.62.42-1.31.55-1.95.55Z"/>
      <path class="cls-6" d="M212.61,206.63c-1.3,0-3.35-1.15-4.59-1.94-.29-.19-.38-.58-.2-.87.19-.3.58-.38.87-.2,1.57.99,3.28,1.76,3.87,1.76h0c-.31-2-1.66-3.84-1.67-3.86-.21-.28-.15-.68.13-.88.28-.21.68-.15.88.13.07.09,1.6,2.18,1.92,4.43.1.74-.26,1.09-.48,1.24-.2.13-.45.19-.74.19Z"/>
    </g>
    <g>
      <path class="cls-5" d="M160.84,214.16s-15.95,6.89-22.28-1.28c-6.33-8.17,7.49-29.29,10.85-29.51,3.36-.21,16.92,8.58,18.7,18.14,1.79,9.56-7.27,12.65-7.27,12.65Z"/>
      <path class="cls-6" d="M143.24,212.26c-.07,0-.15-.01-.22-.04-.33-.12-.5-.48-.38-.81.9-2.47,2.29-5.34,3.73-4.92,1.38.4,2.87,3.21,3.16,3.77.16.31.04.69-.28.85-.31.16-.69.04-.85-.28-.71-1.38-1.82-2.97-2.39-3.14-.37.14-1.46,2.11-2.2,4.14-.09.26-.34.41-.59.41Z"/>
      <path class="cls-6" d="M156.67,210.8c-.06,0-.13,0-.19-.03-.33-.1-.52-.46-.41-.79.41-1.3,1.84-5.61,3-6.38.18-.12.49-.25.91-.16,1.36.29,3.11,2.94,3.62,3.74.19.3.1.69-.2.87-.29.19-.68.1-.87-.2-1.03-1.65-2.38-3.16-2.83-3.18-.48.34-1.65,3.22-2.43,5.69-.09.27-.33.44-.6.44Z"/>
      <path class="cls-6" d="M154.74,203.5c-.23,0-.46-.13-.57-.35-1.08-2.17-2.42-4.19-3-4.52-.74.87-1.24,3.5-1.26,3.95-.02.35-.29.64-.66.61-.35-.01-.62-.3-.61-.65.01-.33.49-3.75,1.75-4.93.25-.23.57-.32.9-.26,1.38.25,3.26,3.75,4,5.25.16.31.03.69-.29.85-.09.04-.19.07-.28.07Z"/>
      <path class="cls-6" d="M155.01,196.53s-.07,0-.1,0c-.34-.05-.58-.38-.52-.72.07-.43.72-4.17,3.01-4.19h.03c2.14,0,3.47,2.18,3.52,2.28.18.3.08.68-.22.86-.3.18-.69.08-.87-.21,0-.02-1.02-1.66-2.44-1.66h-.02c-.96,0-1.61,2.11-1.77,3.12-.05.31-.32.53-.62.53Z"/>
      <path class="cls-6" d="M142.63,199.51c-.33,0-.61-.26-.63-.59,0-.11-.15-2.7.82-4.76.32-.68.81-.82,1.08-.77,1.31,0,2.75,2.75,3.5,4.39.14.32,0,.69-.31.84-.32.15-.69,0-.84-.31-.77-1.69-1.78-3.27-2.27-3.6-.84,1.84-.71,4.12-.71,4.14.02.35-.25.65-.59.67-.01,0-.03,0-.04,0Z"/>
    </g>
    <path class="cls-6" d="M248.82,116.47c-.36-.02-.65.25-.66.6-.01.23-.24,4.49-.64,11.46l-23.19-2.09c-.34-.04-.65.23-.69.57s.23.65.57.69l23.23,2.1c-.17,2.95-.37,6.35-.6,10.08l-11.23-1.02c-.35-.04-.65.23-.69.57s.22.65.57.69l11.27,1.02c-.18,3.04-.39,6.29-.6,9.71l-23.24-.25c-.37-.01-.63.28-.64.62,0,.35.28.63.62.64l23.17.25c-.26,4.05-.54,8.33-.84,12.76l-11.65-1.05c-.34-.03-.65.22-.69.57-.03.35.23.65.57.69l11.68,1.05c-.26,3.87-.54,7.84-.82,11.88l-22.63-3.95c-.35-.06-.67.17-.73.51-.06.34.17.67.51.73l22.76,3.97c-.41,5.76-.85,11.65-1.31,17.52l-13.07-.83c-.34-.01-.65.24-.67.59-.02.35.24.65.59.67l13.05.83c-.36,4.52-.73,9.03-1.11,13.47l-24.82-4.18c-.35-.05-.67.17-.73.52-.06.34.17.67.52.73l24.92,4.2c-.41,4.72-.83,9.35-1.26,13.82-.1-.18-.28-.31-.5-.33l-13.51-.83c-.36-.02-.65.24-.67.59-.02.35.24.65.59.67l13.51.83s.03,0,.04,0c.19,0,.36-.09.47-.23-.52,5.39-1.06,10.54-1.61,15.32l-25.78-3.1c-.34-.04-.66.21-.7.55-.04.35.21.66.55.7l25.79,3.1c-.68,5.8-1.37,11-2.08,15.4l-16.03-3.26c-.34-.07-.68.15-.74.49-.07.34.15.68.49.74l16.08,3.27c-.77,4.62-1.55,8.23-2.33,10.53-.11.33.06.69.39.8.07.02.14.03.2.03.26,0,.51-.17.6-.43,7.23-21.25,14-148.91,14.28-154.33.02-.35-.25-.65-.6-.66Z"/>
    <path class="cls-6" d="M220.68,86.04c-33.92,0-73.77-6.3-74.31-6.39-.34-.05-.58-.38-.52-.72.05-.34.38-.58.72-.52.73.12,73.21,11.57,105.53,3.5.34-.08.68.12.77.46.09.34-.12.68-.46.77-8.5,2.12-19.75,2.91-31.73,2.91Z"/>
    <path class="cls-1" d="M125.99,132.29c-.19,0-.38-.09-.5-.25-6.08-8.04-14.61-22.92-14.69-23.07-.17-.3-.07-.69.23-.86.3-.17.69-.07.86.23.09.15,8.58,14.96,14.6,22.94.21.28.16.67-.12.88-.11.09-.25.13-.38.13Z"/>
    <path class="cls-6" d="M292.99,219.86s-.06,0-.09,0c-.34-.05-.58-.37-.53-.72.05-.36,5.37-36.16,3.33-45.95-1.98-9.46-6.56-10.79-6.61-10.8-.33-.09-.54-.43-.45-.77.09-.34.43-.54.76-.45.22.05,5.37,1.45,7.53,11.77,2.09,10.01-3.09,44.92-3.31,46.4-.05.31-.32.54-.62.54Z"/>
    <path class="cls-6" d="M283.15,244.12c-.29,0-.55-.2-.62-.49-.08-.34.14-.68.48-.76,1.95-.44,4.45-8.22,5.61-13.61.07-.34.41-.56.75-.48.34.07.56.41.48.75-.49,2.3-3.13,13.8-6.57,14.58-.05.01-.09.02-.14.02Z"/>
    <path class="cls-6" d="M300.31,281.8c-.22,0-.44-.12-.56-.33-.17-.31-.05-.69.25-.86.93-.5,22.78-12.32,27.72-13.16.34-.06.67.17.73.52.06.34-.17.67-.52.73-4.73.81-27.11,12.9-27.33,13.02-.1.05-.2.08-.3.08Z"/>
    <path class="cls-7" d="M128.65,275.85s102.78,5.54,108.46,7.89c0,0,18.09,66.68,12.8,68.27-26.63,7.98-135.06,1.67-142.33-10.68-3.26-5.53,21.07-65.48,21.07-65.48Z"/>
    <circle class="cls-4" cx="180.97" cy="312.85" r="20.3"/>
    <path class="cls-6" d="M179.04,327.3s-.04,0-.07,0c-.35-.04-.6-.35-.56-.69l1.93-18.29c.04-.35.35-.6.69-.56.35.04.6.35.56.69l-1.93,18.29c-.03.32-.31.57-.63.57Z"/>
    <path class="cls-6" d="M185.16,319.07c-.35,0-.63-.28-.63-.63,0-.35.28-.63.63-.63.03,0,3.44-.04,5.66-2.52,1.6-1.78,2.23-4.39,1.88-7.75-.42-4.05-3.66-7-8.66-7.9-4.92-.89-11.05.52-13.24,4.93-3.81,7.69,2.94,12.25,3.23,12.44.29.19.37.58.18.87-.19.29-.58.37-.87.18-.08-.05-7.98-5.35-3.66-14.05,2.47-4.97,9.21-6.58,14.59-5.61,5.5.99,9.21,4.45,9.69,9.02.39,3.74-.35,6.68-2.2,8.74-2.61,2.89-6.43,2.93-6.59,2.93Z"/>
    <path class="cls-6" d="M197,347.47c-21.29,0-38.5-1.76-50.77-3.64-20.89-3.19-32.42-7.39-32.53-7.44-.33-.12-.49-.48-.37-.81.12-.33.48-.49.81-.37.45.17,46.14,16.59,122.91,8.98.35-.02.66.22.69.57.03.35-.22.66-.57.69-14.61,1.45-28.05,2.02-40.17,2.02Z"/>
  </g>
</svg>