<?xml version="1.0" encoding="UTF-8"?>
<svg id="Capa_1" data-name="Capa 1" xmlns="http://www.w3.org/2000/svg" viewBox="0 0 425.2 425.2">
  <defs>
    <style>
      .cls-1 {
        fill: #1d1d1b;
      }
    </style>
  </defs>
  <path class="cls-1" d="M292.58,148.85c-1.77,1.17-.7,4.49,1.54,3.64,10.08-3.79,23.28,2.18,20.01,14.71-3.56,13.61-19.1,12.03-25.95,2.37.45-6.27.25-12.52-.59-18.52.19-.49.27-1.01.11-1.47-1.89-5.46-11.03-8.6-15.14-11.95-9.19-7.49-16.53-16.64-22.48-26.85-.87-1.49-2.79-1.6-4.01-.52-33.86,30.01-76.62,15.45-115.09,5.56-.07-.02-.14,0-.21,0-1.03-.83-2.81-.91-3.57.47-5.63,10.29-8.39,20.77-8.85,31.05-7.22,2.21-16.09,1-19.68-6.65-2.32-4.95-.5-10.62,3.06-14.46,3.25-3.5,7.28-4.53,11.75-5.47,1.18-.25.95-1.81,0-2.16-12.23-4.61-23.14,11.88-19.29,22.55,3.21,8.9,15.61,14.52,24.06,10,.32,29.63,19.68,57.23,45.87,73.43-.47.02-.93.22-1.22.72-1.52,2.6-2.87,5.31-4.15,8.06-8.02-2.33-15.73-3.65-23-8.49-7.81-5.19-12.28-12.12-18.25-19.06-.15-.17-.32-.26-.49-.31,3.16-.17,6.27-.82,8.7-3.08,2.14-1.98,3.07-5.21,2.24-8.03-.8-2.73-3.42-4.44-6.25-4.01-2.12.33-3.83,1.69-5.2,3.35.32-6.52-5.06-12.8-11.81-13.46-.67-.06-1.44.55-1.58,1.2-.53,2.58-.66,5.13-.41,7.59-1.08-1.01-2.26-1.93-3.55-2.77-.89-.57-1.97.02-2.28.93-.97,2.85-.9,6.26.07,9.36-.49-.15-1-.27-1.54-.33-3.33-.35-7.26,1.68-7.67,5.26-.36,3.13,1.92,5.21,4.54,6.4.09.04.18.08.28.12-2.92,1.4-5.17,4.16-5.88,7.62-.18.88.25,1.83,1.18,2.07,6.71,1.76,13.76,1.61,20.27-.89,2.07-.8,1.23-4.14-.93-3.39-5.55,1.92-11.04,2.49-16.72,1.39,1.18-2.77,3.72-4.55,6.71-5,1.65.71,3.2,1.58,4.49,3.09.88,1.03,2.9-.07,2.36-1.38-.84-2.04-2.43-3.17-4.25-4.02-.12-.1-.27-.18-.46-.23-.01,0-.02,0-.03,0-2.12-.9-4.5-1.46-6.42-2.52-3.11-1.71-2.2-5.16,1.4-5.5,3.78-.36,6.71,3.86,8.78,6.49.55.7,1.44.05,1.45-.68.47.16.95.29,1.45.38,1.37.25,2.3-1.56.99-2.34-4.83-2.86-8.33-7.28-7.57-12.81,2.12,1.69,3.92,3.7,5.41,5.96.5,1.04,1.08,2.06,1.76,3.04.14.28.32.55.46.84.12.25.3.39.51.43.16.2.29.41.46.61,1.26,1.48,3.36-.65,2.13-2.13-3.52-4.23-5.07-9.74-4.12-15.12,5.48,1.83,8.47,7.7,7.08,13.42-.2.83.5,1.5,1.2,1.55.6.92,2.09,1.28,2.79.03.98-1.76,2.2-3.78,4.03-4.78,2.11-1.15,3.75.35,3.68,2.52-.14,4.65-6.35,5.52-9.86,6.36-1.4.34-1.09,2.5.34,2.49.38,0,.75-.01,1.13-.02-.55.21-.98.8-.81,1.44,4.14,15.58,25.41,30.08,41.99,29.25-2.17,5.1-3.95,10.41-5.45,15.81-16.77-9.92-34.36-17.43-38.09-39.04-.39-2.27-4.23-1.77-4.05.55,1.7,21.37,22.48,35.37,41.2,42.04-2.28,9.04-3.8,18.29-4.82,27.26-1.2,10.52-1.57,21.15-1.04,31.72.25,4.93-.81,15.18,3.33,19.18,2.76,2.67,8.42,1.8,14.68-.42,7.61,18.76,22.75,34.13,39.42,45.16.79.52,2.13.37,2.76-.36,6.51-7.43,12.73-15.12,18.48-23.15-.1.6.09,1.22.74,1.52,14.97,6.86,30.86,11.03,47.09,13.54-3.3,10.69-5.48,21.55-6.09,32.73-4.97-5.57-7.22-12.58-5.05-20.12.31-1.09-.38-1.84-1.22-2.05-.17-.2-.39-.36-.72-.38-8.13-.53-16.1-.48-24.04-2.68-7.18-1.99-13.08-6-19.85-8.78-1.53-.63-2.5,1.58-1.52,2.6,9.81,10.25,29.85,14.6,43.78,11.31-2.4,8.95.91,19.3,9.11,24.03.35.2.71.18,1.03.05,1.04.1,2.2-.52,2.33-1.87,1.19-12.31,3.33-24.21,7.11-35.98.32-1.01-.38-2.49-1.51-2.65-16.97-2.41-33.07-7.01-49.23-12.63-.39-.14-.75-.08-1.06.08,1.07-1.52,2.16-3.03,3.2-4.57,4.55,2.51,9.5,3.43,15.05.99,5.51-2.43,8.81-7.67,12.2-12.39.49-.68.97-1.37,1.46-2.06.21.44.63.78,1.29.89,9.22,1.53,21.27,2.97,30.7-.12-.27,2.57,1.12,5.67,2.4,7.52,2.29,3.3,5.58,5.32,9.57,5.72.66.07,1.13-.3,1.39-.81,1.08.14,2.27-.46,2.27-1.87-.03-8.84.35-17.83-.87-26.6-.08-.54-.58-.81-1.08-.82-.2-.49-.59-.88-1.23-.99-9.87-1.68-20.34-2.54-30.35-2.76,1.74-2.45,3.48-4.9,5.22-7.36,1.07-1.51-.39-3.38-1.98-3.46-11.46-.59-21.08-4.54-29.67-12.24-.16-.15-.34-.21-.51-.3,2.24-1.28,4.5-2.53,6.73-3.83,1.05-.62,1.49-1.85,1.22-3.01-1.61-7.02-7.27-9.16-12.24-13.86-3.71-3.51-6.44-7.41-8.57-11.59,17.68,2.97,36.37-7.58,46.16-21.95-.19,3.4,2.47,6.61,4.97,8.66,2.76,2.27,6.03,3.51,9.58,3.79.88.07,1.56-.78,1.59-1.59.08-2.14-.68-4.08-1.98-5.56,5.02.82,10.41-.79,14.3-4.06.66-.56.56-1.67,0-2.25-1.9-1.93-4.22-3.27-6.7-3.84,3.33-1.63,5.97-4.66,6.81-8.49.16-.74-.22-1.71-1.06-1.86-3.45-.62-7.03-.48-10.33.53,1.88-2.97,2.88-6.45,2.71-10.13-.06-1.21-1.04-1.82-2.17-1.65-5.63.84-10.14,4.39-12.48,9.47-.75-3.15-2.91-5.84-6.01-7.15-.66-.28-1.54-.24-1.92.5-1.91,3.75-2.18,8.18-.32,11.9-.28.07-.56.19-.83.4-15.13,11.86-30.63,13.86-49.15,13.36-1.03-.53-2.66.15-2.72,1.56-.3,7.52,1.47,14.46,4.98,21.12,3.74,7.1,9.81,10.46,14.29,16.55,6.01,8.16,1.05,8.05-5.08,11.45-5.46,3.03-10.95,6.02-16.48,8.92-9.68,5.08-19.47,9.95-29.36,14.6-4.95,2.32-9.92,4.59-14.92,6.81-4.04,1.79-15.25,9.32-18.73,7.99-8.61-3.28-5.82-25.37-5.53-32.83.97-24.8,8.38-46.38,15.06-69.92.11-.37.05-.71-.08-1,4.44,2.64,9.07,4.95,13.82,6.9-.11.1-.21.19-.3.34-5.03,8.2.54,20.15,10.08,21.68,8.05,1.28,17.92-6.94,16.86-15.28,22.14,2.31,45.44-2.94,61.3-19.43,11.47-11.93,18.24-28.58,20.31-45.48,3.15,4.58,8.86,7.41,14.4,7.45,7.43.05,13.6-5.06,15.97-11.92,5.04-14.61-11.82-30-25.51-20.9ZM225.27,242.65c17.37,5.23,37.46-1.75,50.91-12.96.39-.33.55-.69.62-1.06.57-.25.95-.89.54-1.65-1.66-3.09-2.13-6.52-.95-9.75,2.37,1.53,3.76,4.03,3.67,7-.06,1.72,2.58,1.71,2.67,0,0-.16-.01-.31-.01-.47.61.27,1.39.18,1.75-.5,1.97-3.78,5.19-6.46,9.15-7.67-.36,4.28-2.51,8.13-6.18,10.61-1.54,1.04-.37,3.39,1.16,2.94.18,0,.36-.03.54-.13,4.18-2.35,8.42-3.76,13.13-3.3-1.9,4.38-6.91,6.88-11.63,5.45-1.91-.58-2.72,2.4-.82,2.98.37.11.75.2,1.12.28-.55.75.32,2,1.35,1.82,3.55-.62,6.91-.1,9.69,1.97-4.49,2.92-9.74,2.86-14.71.69-1.7-.74-3.1,1.48-1.48,2.53.03.02.06.03.09.05-.11.33-.04.7.36.88,2.11.98,3.36,2.73,3.76,4.83-2.28-.49-4.4-1.53-6.16-3.1-2.09-1.86-2.97-4.32-4.59-6.51-.39-.52-1-.59-1.46-.35.86-1.81-1.9-3.28-3.13-1.53-11.14,15.74-26.42,21.09-44.82,22-2.08-4.71-3.48-9.75-4.57-15.06ZM300.64,322.42c.14,0,.26-.04.39-.06-.89,7.88-.63,15.92-.64,23.84-2.73-.67-5.07-2.25-6.56-4.69-1.26-2.07-1.06-4.35-1.7-6.47.02-.01.04-.02.07-.03.8-.4.31-1.45-.41-1.53-.25-.03-.5-.03-.75-.05-.13-.03-.25-.04-.39-.03-4.7-.3-9.44.64-14.17.67-5.82.03-11.62-.57-17.36-1.46-.08-.01-.15.01-.23,0,3.55-5,7.11-10,10.65-15,.11.42.4.77.92.88,9.8,1.96,20.22,3.42,30.19,3.93ZM188.37,321.18c17.77-8.23,35.17-17.22,52.21-26.85-.02.52.18,1.06.69,1.53,8.39,7.6,17.76,11.95,28.69,13.33-7.45,10.92-14.6,23.21-23.54,32.71-5.19,5.52-10.47,5.51-15.66,3.12.06-.09.12-.17.18-.26,1.36-2.15-1.91-3.93-3.35-1.96l-.24.33c-6.69-4.26-13.18-11.37-19.12-14.49-1.48-.78-2.61,1.26-1.29,2.21,5.5,3.98,11.19,11.27,17.67,16.04-4.34,5.94-8.69,11.85-13.36,17.54-2.3,2.81-5.22,8.12-9.5,7.91-2.68-.13-8.29-6.37-10.28-8.15-10.37-9.27-17.98-20.38-25.45-31.9,9.09-3.66,18.73-9.43,22.35-11.11ZM199.37,246.73c-2.48,2.91-6.41,4.79-10.26,3.9-6.99-1.61-10.13-10.3-7.51-16.48.13-.31.14-.6.09-.87,4.94,1.89,10.01,3.4,15.15,4.43,1.78.36,3.57.65,5.38.92-.25,2.96-.74,5.62-2.85,8.1ZM281.99,150.8c-.06,22.65-1.92,45.43-17.91,63.09-17.29,19.1-45.23,22.53-69.18,16.65-50-12.27-83.3-61.74-63.83-111.68,36.24,16.01,83.45,23.88,116.2-2.95,4.5,7.25,9.62,13.99,15.81,19.94,3.03,2.91,6.25,5.62,9.62,8.12,2.13,1.59,4.33,3.08,6.59,4.47.94,1.17,1.87,1.8,2.78,1.96-.02.13-.08.24-.08.38Z"/>
  <path class="cls-1" d="M304.82,163.34c-1.25-3.37-3.88-5.98-7.41-6.79-1.39-.32-1.91,1.64-.58,2.11,2.75.97,4.7,3.29,5.42,6.1.69,2.66-.7,4.61-.68,7.11,0,.88.94,1.36,1.69.97,3.09-1.61,2.57-6.78,1.56-9.5Z"/>
  <path class="cls-1" d="M116.79,126.32c-3.44-.63-6.85,2.36-8.59,5.07-2.04,3.18-2.58,7.11-1.25,10.66.5,1.35,2.54.84,2.19-.6-.69-2.85-.09-5.75,1.55-8.18,1.71-2.55,4.04-3.12,6.4-4.72.79-.53.82-2.02-.29-2.22Z"/>
  <path class="cls-1" d="M271.52,82.87c4.55-5.01,9.73-8.95,15.96-12.09,1.7-.86,1.48-4.08-.57-4.36-12.82-1.74-25.33.14-35.58,8.36-1.86-11.51-6.91-20.88-15.32-28.93-1.44-1.38-3.84,0-3.33,1.94,1.6,6.18,3.25,12.35,4.89,18.52-21.15-17.9-47.89-29.26-76.03-22.82-31.69,7.25-51.61,37.03-56.48,67.8-.51,3.2,4.23,4.67,4.97,1.37,6.36-28.54,22.36-56.89,52.97-63.85,28.39-6.45,56.35,6.23,76.92,25.26,1.53,1.42,4.13.04,3.55-2.07-1.61-5.89-3.23-11.77-4.86-17.66,5.05,6.1,8.36,13,10.25,21.15.22.96,1.12,1.09,1.78.73.23.77,1.24,1.38,2.11.98,8.57-3.91,16.62-6.52,25.57-6.62-4.89,3.26-9.12,7.15-12.98,11.97-1.07,1.34-.89,3.67,1.08,4.11,32.87,7.39,52.48,36.62,53.15,69.21.06,2.75,3.86,2.6,4.17,0,3.98-33.2-21.15-64.27-52.24-72.99Z"/>
  <path class="cls-1" d="M274.2,172.07c-3.02.92-4.8,2.77-8.28,2.38-3.36-.38-6.27-2.24-7.89-5.22-.63-1.15-2.51-.37-2.12.9.91,3.02,2.98,5.35,5.64,6.78-.41.43-.72.98-.77,1.72-2.17,33.86-37.99,48.85-67.71,40.43-26.26-7.44-42.42-28.53-52.27-52.75.21.05.42.12.64.16,3.45.69,8.92.66,11.36-2.28.73-.88.36-2.65-1.05-2.53-3.08.28-5.59,1.78-8.83,1.48-3.73-.34-7.05-2.02-9.6-4.75-.93-1-2.76.34-1.93,1.49,1.91,2.63,4.43,4.63,7.4,5.79,0,.06-.02.11-.01.18,3.34,31.41,32.38,56.63,62.85,60.74,31.19,4.21,62.83-14.77,64.71-47.98,0-.1-.03-.16-.04-.25,3.73.42,8.54-.55,10.06-4.16.52-1.25-.99-2.5-2.14-2.14Z"/>
  <path class="cls-1" d="M180.32,152.49c-2.66-1.58-5.82-.59-7.82,1.48-.84-.51-1.95-.46-2.55.68-2.76,5.23,2.54,12.5,8.47,10.55,5.13-1.69,6.86-9.76,1.9-12.71Z"/>
  <path class="cls-1" d="M233.56,159.33c.05-.71-.37-1.42-1.35-1.44-5.78-.14-8.39,7.51-5.57,11.87,3.91,6.05,13.22,2.34,14.39-3.94.93-5.03-3.77-7.33-7.47-6.49Z"/>
  <path class="cls-1" d="M244.2,141.75c-1.41.22-1.27,2.07-.36,2.73,1.92,1.38,4.14,2.18,5.87,3.84,1.78,1.71,2.95,3.86,3.51,6.25.4,1.69,3.23,1.37,3.09-.42-.47-5.86-5.46-13.44-12.11-12.41Z"/>
  <path class="cls-1" d="M171.7,135.84c-2.58-2.36-7.4-.87-10.03.74-3.2,1.95-5.17,5.14-5.65,8.82-.18,1.35,2.11,1.66,2.39.32.61-2.95,2.46-5.27,5.1-6.69,1.2-.64,2.53-1.06,3.88-1.16,1.29-.09,2.49.27,3.77,0,.88-.19,1.19-1.43.54-2.03Z"/>
  <path class="cls-1" d="M207.69,180.63c-2.12-3.43-2.53-6.73-2.26-10.67.08-1.23-1.58-1.23-1.97-.27-.77,1.85-1.04,3.74-.97,5.6-2.61-1.89-5.63-3.17-9-3.7-1.01-.16-2.12.24-2.39,1.36-1.43,6.02.32,17.32,7.71,18.89,1.09.23,1.93-.85,1.42-1.84-1.2-2.34-3.33-3.98-4.46-6.41-1.15-2.48-1.49-5.15-1.19-7.82,4.01,1.03,7.39,3.24,9.91,6.72,1.37,1.89,4.48.2,3.2-1.87Z"/>
</svg>