<?xml version="1.0" encoding="UTF-8"?>
<svg id="Capa_1" data-name="Capa 1" xmlns="http://www.w3.org/2000/svg" viewBox="0 0 425.2 425.2">
  <defs>
    <style>
      .cls-1 {
        fill: #fefeff;
      }

      .cls-2 {
        fill: #f3c200;
      }

      .cls-3 {
        fill: #53afa2;
      }

      .cls-4 {
        fill: #251827;
      }

      .cls-5 {
        fill: #ee7f32;
      }
    </style>
  </defs>
  <g>
    <path class="cls-2" d="M374.63,108.16c-32.82,1.37-43.76-8.2-48.54-14.36-4.79-6.15,21.2-20.17,0-28.03-21.2-7.86-50.59,8.55-50.59,8.55-47.08,30.44-5.13,25.3-.34,31.45,4.79,6.15-14.02,23.25-9.23,49.91,4.79,26.66,43.42,26.66,58.46,21.88,5.72-1.82,4.21-5.67.15-9.74,15.59.88,35.08-6.47,39.5-11.11,4.82-5.05-4.18-11.52-10.62-15.24,13.81.07,37.93-34,21.22-33.3Z"/>
    <path class="cls-4" d="M352.7,140.61c-28.07,0-41-37.82-41.54-39.44-.29-.88.18-1.83,1.06-2.12.88-.29,1.83.18,2.12,1.06.13.38,12.71,37.15,38.38,37.15.22,0,.44,0,.67,0,.95.01,1.7.71,1.72,1.64.02.93-.71,1.7-1.64,1.72-.26,0-.52.01-.77.01Z"/>
    <path class="cls-4" d="M318.57,163.51c-.15,0-.29-.02-.44-.06-28.66-7.78-26.8-53.43-26.7-55.37.05-.93.86-1.55,1.76-1.6.93.04,1.64.83,1.6,1.76-.02.45-1.83,44.89,24.23,51.97.89.24,1.42,1.16,1.18,2.06-.2.75-.88,1.24-1.62,1.24Z"/>
    <path class="cls-4" d="M273.44,87.27c-.42,0-.84-.15-1.16-.47-.67-.64-.69-1.7-.05-2.37,8.2-8.56,39.05-11.66,40.36-11.79.95-.07,1.74.58,1.83,1.51.09.92-.58,1.74-1.51,1.83-8.58.84-32.17,4.41-38.27,10.77-.33.34-.77.52-1.21.52Z"/>
  </g>
  <g>
    <path class="cls-4" d="M125.49,385.22c-.21,0-.42-.05-.61-.14-.35-.16-.63-.46-.76-.83-10.98-30.35-43.46-25.07-44.85-24.83-.44.07-.87-.05-1.2-.33-.33-.28-.52-.7-.51-1.14.04-1.97.61-19.36,7.15-24.46,1.68-1.31,3.6-1.74,5.69-1.25,6.5,1.49,15.71,8.99,23.84,15.61,5.51,4.49,10.71,8.73,14.05,10.28.23.11.34.1.34.11,1.88-1.28.29-15.42-.67-23.87-1.47-13.03-2.23-21.15-.37-24.04,4.61-7.13,19.79,1.82,21.5,2.87.35.21.59.57.67.97.08.4-.02.82-.26,1.15-4,5.38-7.16,37.94,1.01,51.92.55.95.64,2.03.24,3.13-2.2,6.14-21.02,13.37-24.77,14.76-.16.06-.34.09-.51.09ZM85.57,356.1c10.86,0,31.79,3.12,40.76,25.78,8.24-3.18,20.41-8.93,21.68-12.49.13-.37.06-.54-.02-.67-7.91-13.52-6.06-44.63-1.66-53.74-4.51-2.5-13.92-6.71-16.29-3.06-1.43,2.21-.19,13.25.82,22.12,1.69,15,2.57,24.31-.57,26.58-.52.38-1.64.9-3.23.16-3.67-1.71-9.01-6.06-14.67-10.66-7.88-6.42-16.81-13.7-22.65-15.03-1.24-.28-2.26-.06-3.24.71-4.16,3.24-5.63,14.68-5.96,20.53,1.19-.12,2.92-.23,5.03-.23Z"/>
    <path class="cls-3" d="M182.99,290.64c-6.79-13.33-15.36-14.22-22.06-11.12-1.96-10.54-14.56-22.29-29.59-18.98-12.63,2.78-16.81,11.3-17.1,17.34-5.03-.76-12.69,1.13-18.4,9.23-1.95,2.76-2.98,5.39-3.33,7.86-1.14-6.95-5.51-13.58-16.56-14.06-19.97-.86-21.45,8.95-20.59,14.82-12.74-1.82-30.9,4.51-28.5,28.43.68,6.78,3.2,10.86,6.66,13.06-4.83,8.59-3.78,18.5,11.1,25.11,14.32,6.36,22.56,1.41,26.74-5.1,5.61,9.22,24.2,12.32,34.93-1.16,8.79-11.04,3.33-20.44-2.43-24.39.98-.95,1.96-2.14,2.92-3.57.27.36.51.72.81,1.08,9.35,11.35,18.44,8.33,23.28,5.27,5.39,10.95,21.05,21.33,35.5-.62,3.45-5.24,4.69-9.7,4.51-13.42,11.88-1.74,21.73-10.87,12.11-29.75Z"/>
    <path class="cls-4" d="M145.13,329.21c-3.18,0-6.84-.97-10.8-3.31-.69-.41-.92-1.31-.51-2,.41-.69,1.31-.92,2-.51,7.69,4.55,13.87,3.17,16.74-.26-.46-.06-.92-.14-1.38-.25-5.2-1.19-6.1-4.04-6.24-5.2-.24-1.94.87-3.89,2.76-4.85,1.78-.9,4.61-1.01,7.19,1.41,1.63,1.53,2.34,3.63,2.11,5.81,2.64-.61,5-2.2,6.76-4.63,2.91-4.02,4.35-11.09-.35-18.87-2.97-4.93-7.37-5.64-10.56-5.36-2.07.18-4.08.79-5.86,1.61-.02.69-.09,1.39-.22,2.1-.66,3.87-2.67,6.93-4.99,7.61-1.32.39-2.65-.01-3.65-1.1-.96-1.05-1.16-2.47-.55-4.01.82-2.12,3.27-4.51,6.44-6.32-.25-2.5-1.35-5.63-4.76-8.09-2.69-1.94-4.82-2.65-5.99-2.02-1.58.85-1.82,4.16-1.78,5.25.03.8-.6,1.48-1.4,1.51-.78.06-1.48-.59-1.52-1.4-.03-.62-.15-6.07,3.31-7.94,2.28-1.23,5.34-.48,9.08,2.22,3.16,2.27,5.17,5.5,5.82,9.11,1.85-.75,3.84-1.28,5.83-1.45,5.65-.49,10.38,1.92,13.31,6.77,5.44,9,3.68,17.31.22,22.09-2.51,3.46-6.14,5.57-10.09,6.03-.25.47-.54.94-.89,1.4-2.06,2.74-5.57,4.65-10.02,4.65ZM150.21,315.15c-.42,0-.82.09-1.19.28-.8.4-1.27,1.16-1.18,1.89.14,1.16,1.63,2.17,3.99,2.71.72.17,1.44.26,2.16.3.33-1.51-.04-2.96-1.1-3.95-.86-.8-1.8-1.22-2.68-1.22ZM143.85,294.61c-1.83,1.3-3.13,2.73-3.56,3.84-.27.7-.08.91-.01.98.35.37.54.31.67.28.85-.25,2.33-2.04,2.9-5.1Z"/>
    <path class="cls-4" d="M87.79,340.68c-2.09,0-3.98-.69-5.51-2.07-.6-.54-.64-1.46-.1-2.06.54-.6,1.46-.65,2.06-.1,2.59,2.34,6.21.95,7.64.24,4.73-2.32,9.47-8.27,8.96-14.71-.25-3.19-1.69-4.99-4.28-5.35-3.55-.47-7.96,1.86-10.06,5.08-.68,2.02-1.38,3.41-1.88,3.68-.53.29-1.2.22-1.66-.18-.83-.71-.51-1.57-.04-2.87.21-.57.48-1.14.8-1.68,1.38-4.23,3.37-12.57.89-18.17-1.24-2.8-3.4-4.51-6.63-5.23-7.57-1.69-10.83,2.44-12.24,6.21-.36.96-.61,1.93-.78,2.86,1.53.63,2.55,1.39,3.07,1.85,1.99,1.75,2.89,4.06,2.34,6.04-.47,1.72-1.95,2.92-4.05,3.3-.57.11-2,.15-3.12-1.6-.98-1.52-1.56-4.36-1.4-7.51-2.9-.56-6.78-.24-11.5,1.76-4.09,1.73-6.26,3.76-6.45,6.05-.34,3.94,5.16,8.37,7.31,9.74.68.43.88,1.34.44,2.02-.43.68-1.34.88-2.02.44-.38-.24-9.19-5.95-8.65-12.45.29-3.45,3.06-6.31,8.23-8.49,5.6-2.37,9.89-2.56,12.99-1.99.44-2.28,1.28-4.56,2.64-6.51,2.12-3.03,6.24-6.28,13.82-4.59,5.59,1.25,9.01,5.15,9.87,11.27.45,3.24.1,7.11-.57,10.56,2.74-1.89,6.08-2.93,9.04-2.53,3.95.54,6.43,3.46,6.79,8.01.62,7.72-4.99,14.81-10.58,17.57-1.87.92-3.69,1.37-5.39,1.37ZM64.69,309.42c0,2.85.71,4.97,1.25,5.26.55-.14,1.41-.45,1.62-1.23.24-.88-.33-2.08-1.45-3.07-.4-.35-.87-.68-1.42-.97Z"/>
    <path class="cls-4" d="M122.01,325.65c-2.39,0-6.33-1.47-9.91-9.47-1.85-4.12-1.75-7.19-1.08-9.33-2.97-2.59-5.45-6.11-5.95-9.5-.28-1.94.23-3.68,1.49-5.03,3.85-4.14,13.61-3.57,14.7-3.49.8.06,1.41.76,1.35,1.56-.06.81-.76,1.42-1.56,1.35-2.6-.19-9.89-.08-12.35,2.57-.66.71-.9,1.54-.74,2.62.37,2.5,2.24,5.15,4.45,7.22.19-.24.37-.44.52-.61,1.98-2.05,4.85-2.8,7.15-1.88,1.93.78,3.04,2.56,3.04,4.9,0,2.49-1.33,4.07-3.54,4.23-1.71.13-3.87-.67-6.01-2.03-.24,1.77.16,3.9,1.2,6.21,2.3,5.14,5.14,8.01,7.6,7.73,1.81-.23,3.35-2.22,3.83-4.96.14-.8.9-1.32,1.69-1.19.79.14,1.33.9,1.19,1.69-.71,4.08-3.2,6.97-6.34,7.36-.22.03-.46.04-.71.04ZM114.68,306c1.77,1.23,3.47,1.97,4.69,1.89.37-.03.83-.06.83-1.32,0-1.12-.41-1.86-1.21-2.18-1-.41-2.68-.13-3.95,1.19-.13.13-.25.27-.36.42Z"/>
    <path class="cls-4" d="M78.85,356.55c-4.04,0-7.61-1.8-10.16-5.2-.26-.35-.51-.72-.74-1.09-.64.48-1.32.91-2.02,1.26-3.76,1.87-7.55,1.17-10.66-1.97-3.25-3.27-4.52-6.32-3.8-9.05,1.09-4.11,6.31-5.6,6.54-5.66.77-.22,1.58.24,1.79,1.02.22.78-.24,1.58-1.01,1.8-1.07.3-3.95,1.53-4.5,3.6-.54,2.07,1.36,4.53,3.05,6.24,2.65,2.68,5.61,2.84,8.77.49.18-.13.36-.27.53-.42-1.17-3.14-1.23-6.43.06-8.5,1.04-1.69,2.86-2.43,4.97-2.04,1.27.23,2.14,1.18,2.33,2.54.32,2.27-1.25,5.85-3.84,8.68.26.46.55.92.88,1.36,1.53,2.05,5.01,5.23,11.04,3.58.77-.21,1.58.24,1.8,1.02.21.78-.25,1.58-1.02,1.8-1.37.37-2.7.56-3.99.56ZM70.67,339.79c-.86,0-1.25.42-1.49.81-.58.94-.68,2.63-.24,4.5,1.7-2.3,2.45-4.68,2.13-5.29-.14-.02-.27-.03-.39-.03Z"/>
  </g>
  <g>
    <path class="cls-5" d="M141.46,185.51s-4.18-2.82-10.91-7.45c0,0,2.57-34.9-26.66-59.69-26.65-22.61-60.52-4.47-60.52-4.47-8.52-7.33-13.53-12.76-12.23-14.54,5.7-7.8,61.68-51.37,104.6-18.34,36.03,27.73,19.61,115.88,5.72,104.49Z"/>
    <path class="cls-2" d="M43.36,113.9s27.73-43.09,64.33-27.74c49.66,20.82,25.47,93.5,22.85,91.9-52.54-32.13-87.18-64.16-87.18-64.16Z"/>
    <path class="cls-4" d="M82.04,135.52c-.7,0-1.32-.19-1.86-.55-2.21-1.5-1.53-5.03-.8-7.6.37-2.27,5.37-30.33,24.7-30.76,3.91-.07,5.23,1.97,5.66,3.2,2.61,7.37-12.39,25.8-21.19,32.58-2.73,2.11-4.86,3.14-6.51,3.14ZM104.33,99.98c-.06,0-.12,0-.18,0-16.9.38-21.41,27.73-21.45,28.01-.01.07-.03.14-.05.2-.93,3.26-.5,4.05-.49,4.05,1.67.25,9.21-5.72,16.74-15.53,6.48-8.45,8.47-14.2,7.58-15.96-.26-.52-.99-.78-2.15-.78ZM81.03,127.73h.03-.03Z"/>
    <path class="cls-4" d="M69.12,131.12c-.82,0-1.58-.39-2.11-1.13-.05-.07-.09-.14-.13-.21-.35-.68-8.46-16.82-4.01-27.38,1.6-3.8,4.6-6.41,8.91-7.74,5.89-1.83,8.19,1.21,9.04,3.18,3.47,8.04-5.04,29.96-10.18,32.86-.51.29-1.03.43-1.52.43ZM75.1,97.46c-.62,0-1.38.13-2.32.42-3.35,1.04-5.58,2.95-6.79,5.83-3.32,7.87,1.94,20.3,3.49,23.66,3.07-3,10.89-20.77,8.35-27.9-.37-1.04-1.01-2.01-2.74-2.01Z"/>
    <path class="cls-4" d="M94,142.48c-.61,0-1.09-.11-1.4-.34-.76-.55-1.79-1.9-.11-4.76.03-.04.05-.08.08-.13,2.01-2.81,20-27.48,30.84-28.22,2.03-.13,3.79.53,5.12,1.93,1.81,1.91,2.81,5.51-2.73,11.83-9.22,10.53-26.2,19.68-31.8,19.68ZM95.37,139.17s-.04.07-.06.1c5.47-.97,25.5-13.33,30.37-22,1.55-2.76.68-3.67.4-3.97-.64-.67-1.39-.94-2.43-.88-7.82.54-23.02,19.43-28.28,26.76Z"/>
    <path class="cls-4" d="M110.05,154.66c-4.47,0-8.37-.77-9.89-2.69-.99-1.24-.99-2.84,0-4.36.19-.29.46-.52.78-.65,3.82-1.56,23.14-9.12,28.95-5.3,1.23.81,1.89,2.04,1.92,3.55.03,2.03-1.21,4.92-7.35,7.12-3.86,1.38-9.47,2.32-14.4,2.32ZM102.79,149.86s0,.03,0,.03c.66,1.31,8.99,2.24,17.48.17,5.66-1.38,8.17-3.39,8.14-4.78,0-.44-.15-.63-.4-.79-3.1-2.05-16.4,1.84-25.22,5.37Z"/>
    <path class="cls-1" d="M149.58,130.22c-.08,0-.17,0-.25-.02-.92-.14-1.56-1-1.43-1.92,4.23-28.68-25.89-47.19-26.2-47.37-.8-.48-1.06-1.52-.58-2.32.48-.8,1.52-1.06,2.32-.58.33.19,32.35,19.87,27.8,50.76-.12.84-.85,1.44-1.67,1.44Z"/>
    <path class="cls-1" d="M150.19,152.4c-.27,0-.55-.07-.8-.2-.82-.44-1.13-1.47-.68-2.29,2.78-5.15.72-11.68.7-11.74-.29-.89.2-1.84,1.08-2.13.89-.28,1.84.2,2.13,1.08.11.32,2.55,7.95-.94,14.4-.31.57-.89.89-1.49.89Z"/>
  </g>
  <g>
    <path class="cls-4" d="M300.3,378.69c-2.01,0-3.73-.73-5.03-2.13-2.51-2.71-3.07-7.59-2.98-11.96-3.41,5.94-8.15,12.56-12.29,12.4-1.38-.04-3.29-.77-4.58-4.04-2.67-6.75.83-13.9,4.96-19.34-6.44,3.35-14.29,6.43-19.26,4.88-2.09-.65-3.61-2.09-4.4-4.15-.65-1.72-.51-3.5.41-5.29,5.22-10.07,36.03-18.27,39.53-19.17.88-.22,1.76.3,1.99,1.17.23.87-.3,1.76-1.17,1.99-9.11,2.35-33.59,10.08-37.44,17.52-.5.96-.58,1.79-.26,2.63.43,1.14,1.17,1.83,2.32,2.19,6.44,2,21.74-7.15,27.09-10.85.72-.5,1.71-.34,2.24.37.53.7.4,1.7-.29,2.25-.17.14-16.96,13.74-12.66,24.6.29.73.88,1.96,1.64,1.98h.04c2.95,0,9.17-9.53,13.27-18.41.35-.75,1.2-1.12,1.99-.87.79.26,1.26,1.06,1.09,1.88-.78,3.81-2.08,14.49,1.19,18.01.82.89,1.89,1.22,3.33,1.04,1-.12,1.85-.66,2.6-1.64,4.56-5.94,3.14-24.7,2.21-31.42-.12-.89.5-1.72,1.39-1.84.91-.14,1.72.5,1.84,1.39.14,1.04,3.47,25.63-2.85,33.86-1.29,1.68-2.9,2.65-4.79,2.89-.38.05-.74.07-1.1.07Z"/>
    <path class="cls-5" d="M289.24,327.17s9.02,30.81,39.58,18.72c39.2-15.5,53.48-83.56,42.52-95.1-10.96-11.54-90.59,32.14-82.1,76.37Z"/>
    <path class="cls-4" d="M331.21,328.29c-.08,0-.17,0-.25-.02-1.04-.16-25.5-4.16-28.42-21.62-.15-.89.45-1.73,1.34-1.88.89-.16,1.73.45,1.88,1.34,2.53,15.14,25.47,18.9,25.7,18.94.89.14,1.5.97,1.36,1.86-.12.8-.82,1.38-1.61,1.38Z"/>
    <path class="cls-4" d="M348.13,308.29c-.13,0-.27-.02-.4-.05-.92-.23-22.51-5.86-25.2-20.38-.16-.89.42-1.74,1.31-1.9.89-.16,1.74.42,1.9,1.31,2.31,12.46,22.59,17.76,22.79,17.81.87.22,1.4,1.11,1.18,1.98-.19.74-.85,1.23-1.58,1.23Z"/>
    <path class="cls-4" d="M360.8,284.33c-.07,0-.13,0-.2-.01-.91-.11-22.32-2.93-23.41-16.44-.07-.9.6-1.68,1.5-1.76.93-.07,1.69.6,1.76,1.5.88,10.87,20.36,13.44,20.56,13.47.89.11,1.53.93,1.42,1.82-.1.83-.81,1.43-1.62,1.43Z"/>
  </g>
</svg>