<?xml version="1.0" encoding="UTF-8"?>
<svg id="Capa_1" data-name="Capa 1" xmlns="http://www.w3.org/2000/svg" viewBox="0 0 425.2 425.2">
  <defs>
    <style>
      .cls-1 {
        fill: #fefeff;
      }

      .cls-2 {
        fill: #f3c200;
      }

      .cls-3 {
        fill: #413756;
      }

      .cls-4 {
        fill: #53afa2;
      }

      .cls-5 {
        fill: #f1ecd7;
      }

      .cls-6 {
        fill: #e1503f;
      }

      .cls-7 {
        fill: #251827;
      }

      .cls-8 {
        fill: #ee7f32;
      }
    </style>
  </defs>
  <path class="cls-2" d="M123.21,330.1s-3.48-9.32-1.74-8.58c1.74.75,7.37,3.59,7.37,3.59,0,0,6.06-4.2,6.43-3.63.37.57-.5,8.25-.5,8.25,0,0,7.46,3.98,6.09,4.85s-8.21,1.62-8.21,1.62c0,0-2.59,9.57-3.82,8.61-1.87-1.47-3.51-7.37-3.51-7.37,0,0-7.84-.12-7.59-1.37.25-1.24,5.48-5.97,5.48-5.97Z"/>
  <g>
    <path class="cls-7" d="M129.97,193.72c-.33,0-.6-.27-.6-.6,0-.21-.06-21.42,7.6-43.72,7.1-20.65,22.44-46.49,55.26-52.34,32.8-5.85,54.87,10.09,67.6,24.49,13.76,15.56,19.87,32.74,19.93,32.92.11.31-.06.66-.37.77-.31.11-.66-.06-.77-.37-.06-.17-6.11-17.16-19.72-32.54-12.53-14.15-34.22-29.82-66.46-24.07-32.24,5.75-47.34,31.21-54.33,51.55-7.6,22.11-7.54,43.11-7.54,43.32,0,.33-.26.6-.6.6h0Z"/>
    <path class="cls-2" d="M309.28,234.11c16.77-21.96,39.86-70.3,39.86-70.3,0,0-6.77-13.32-26.25-18.3-7.01-1.79-19.82,18.64-27.87,33.04-4.5-9.75-9.13-17.35-12.38-21.46-7.38-10.45-27.55-26.4-73-21.53-75.08,8.04-82.52,58.54-82.52,58.54,0,0,0,0,0,0-1.15,3.72-2.02,8.03-2.58,12.78-18.05,6.26-54.89,23.4-47.56,57.34,9.64,44.61,73.24,31.35,73.24,31.35l.05-.65c9.48,10.35,21.87,18.33,37.67,22.08-2.53,4.65-8.42,15.85-7.61,17.83,1.03,2.51,48.45,6.13,81.69-6.16,26.18-9.68,44.66-19.15,46.37-22.47,1.38-2.68-13.98-11.78-19.95-15.19,16.42-16.02,21.54-36.58,20.82-56.89ZM96.63,258.07c-2.66-19.65,13.51-28.58,27.38-32.61.76,15.56,4.46,32.95,12.14,48.49-15.45,3.88-36.67,5.16-39.52-15.88Z"/>
    <path class="cls-8" d="M168.99,98.35s47.33-11.91,49.29-8.92c1.95,2.99,8.03,15,5.29,16.19-2.75,1.18-47.04,10.91-50.32,11.08-3.28.17-4.25-18.34-4.25-18.34Z"/>
    <circle class="cls-3" cx="200.44" cy="131.55" r="11.6" transform="translate(29.89 300.05) rotate(-77.93)"/>
    <path class="cls-7" d="M169.01,210.28c-38.48,0-42.29-15.28-42.46-16.06-.07-.32.14-.64.46-.71.32-.07.64.13.71.46h0c.05.22,5.61,21.65,68.64,13.05,78.06-10.65,85.19-48.24,85.25-48.61.05-.33.36-.55.69-.49.33.05.55.36.5.69-.07.4-1.73,9.89-13.25,20.83-19.13,18.17-50.27,25.68-73.03,28.78-10.73,1.46-19.82,2.07-27.52,2.07Z"/>
    <path class="cls-1" d="M254.75,148.59c-.12,0-.25-.04-.36-.12-18.59-13.86-38.82-6.89-39.03-6.82-.31.11-.66-.05-.77-.36-.11-.31.05-.66.36-.77.21-.08,21.03-7.27,40.15,6.99.27.2.32.57.12.84-.12.16-.3.24-.48.24Z"/>
    <path class="cls-7" d="M194.77,322.65c-.33,0-.59-.26-.6-.59,0-.33.26-.61.59-.61.64-.01,64.73-1.68,93.5-22.18.27-.19.65-.13.84.14.19.27.13.65-.14.84-29.07,20.72-93.52,22.39-94.17,22.4h-.01Z"/>
    <path class="cls-1" d="M272.75,158.03c-.23,0-.45-.13-.55-.36-1.15-2.62-8.5-6.08-11.23-7.19-.31-.12-.46-.48-.33-.78.12-.31.48-.46.78-.33.42.17,10.3,4.23,11.88,7.82.13.3,0,.66-.31.79-.08.03-.16.05-.24.05Z"/>
    <path class="cls-3" d="M332.67,153.79s17.37,10.11,11.89,13.51c-5.49,3.4-18.93,2.97-24.53-5.67-5.6-8.64-1.14-15.94,12.64-7.84Z"/>
    <path class="cls-5" d="M276.14,113.27c17.33,28.26,40.06-.2,44.2,8.21,4.14,8.41-9.2,14.8,7.34,20.03,16.54,5.23-1.3-4.01,2.51-15.1,10.46-30.43-6.31-11.91-28.66-14.61-22.35-2.7,1.9-35.72-3.63-36.41-23.15-2.9-29.47,25.3-21.75,37.89Z"/>
    <g>
      <path class="cls-1" d="M161.63,160.38c-.06,0-.13,0-.19-.03-.31-.11-.48-.45-.38-.76,1.1-3.26,3.82-3.92,5.09-3.82.33.03.58.32.55.65-.03.33-.31.58-.65.55-.12-.01-2.79-.15-3.85,3.01-.08.25-.32.41-.57.41Z"/>
      <path class="cls-1" d="M161.52,167.02c-.06,0-.13,0-.19-.03-.31-.11-.48-.45-.38-.76,1.1-3.26,3.81-3.92,5.09-3.82.33.03.58.32.55.65-.03.33-.32.58-.65.55-.13-.01-2.79-.15-3.85,3.01-.08.25-.32.41-.57.41Z"/>
      <path class="cls-1" d="M153.58,166.62c-.06,0-.13,0-.19-.03-.31-.11-.48-.45-.38-.76,1.1-3.26,3.82-3.92,5.09-3.82.33.03.58.32.55.65-.03.33-.31.57-.65.55-.12-.01-2.79-.15-3.85,3.01-.08.25-.32.41-.57.41Z"/>
      <path class="cls-1" d="M152.46,173.71c-.06,0-.13,0-.19-.03-.31-.11-.48-.45-.38-.76,1.1-3.26,3.81-3.92,5.09-3.82.33.03.58.32.55.65-.03.33-.32.58-.65.55-.13-.01-2.79-.15-3.85,3.01-.09.25-.32.41-.57.41Z"/>
      <path class="cls-1" d="M160.28,173.97c-.06,0-.13,0-.19-.03-.31-.11-.48-.45-.38-.76,1.1-3.26,3.81-3.92,5.09-3.82.33.03.58.32.55.65-.03.33-.32.58-.65.55-.13-.01-2.79-.15-3.85,3.01-.08.25-.32.41-.57.41Z"/>
      <path class="cls-1" d="M144.78,174.08c-.06,0-.13,0-.19-.03-.31-.11-.48-.45-.38-.76,1.1-3.26,3.81-3.92,5.09-3.82.33.03.58.32.55.65-.03.33-.32.57-.65.55-.13-.01-2.79-.15-3.85,3.01-.08.25-.32.41-.57.41Z"/>
      <path class="cls-1" d="M145.97,180.91s-.03,0-.04,0c-.33-.02-.58-.31-.56-.64.31-4.48,3.77-5.2,3.8-5.21.33-.07.64.15.71.47.06.32-.15.64-.47.7h0c-.11.02-2.6.59-2.84,4.11-.02.32-.29.56-.6.56Z"/>
    </g>
    <g>
      <path class="cls-1" d="M286.5,275.55c-.32,0-.59-.25-.6-.57-.01-.33.24-.61.57-.63.12,0,2.78-.2,3.45-3.46.07-.33.39-.53.71-.47.33.07.54.38.47.71-.69,3.37-3.29,4.37-4.57,4.42,0,0-.02,0-.03,0Z"/>
      <path class="cls-1" d="M285.77,268.95c-.32,0-.59-.25-.6-.58-.01-.33.24-.61.57-.63.12,0,2.78-.2,3.45-3.46.07-.33.39-.54.71-.47.33.07.54.38.47.71-.69,3.37-3.29,4.37-4.57,4.42,0,0-.02,0-.03,0Z"/>
      <path class="cls-1" d="M293.7,268.36c-.32,0-.59-.25-.6-.58-.01-.33.24-.61.57-.63.12,0,2.78-.2,3.45-3.46.07-.33.39-.53.71-.47.33.07.54.38.47.71-.69,3.37-3.29,4.37-4.57,4.42,0,0-.02,0-.03,0Z"/>
      <path class="cls-1" d="M293.93,261.19c-.32,0-.59-.25-.6-.58-.01-.33.24-.61.57-.63.12,0,2.78-.2,3.45-3.46.07-.33.39-.53.71-.47.33.07.53.38.47.71-.69,3.37-3.29,4.37-4.57,4.42,0,0-.02,0-.03,0Z"/>
      <path class="cls-1" d="M286.14,261.9c-.32,0-.59-.25-.6-.57-.01-.33.24-.61.57-.63.12,0,2.78-.2,3.45-3.46.07-.33.39-.53.71-.47.33.07.53.38.47.71-.69,3.37-3.29,4.37-4.57,4.42,0,0-.02,0-.03,0Z"/>
      <path class="cls-1" d="M301.51,259.87c-.32,0-.59-.25-.6-.57-.01-.33.24-.61.57-.63.12,0,2.78-.2,3.45-3.46.07-.33.38-.53.71-.47.33.07.53.38.47.71-.69,3.37-3.29,4.37-4.57,4.42,0,0-.02,0-.03,0Z"/>
      <path class="cls-1" d="M300.78,254.33c-.25,0-.49-.16-.57-.41-.1-.31.07-.65.38-.76.11-.04,2.5-.91,2.3-4.44-.02-.33.23-.61.57-.63.33-.02.61.23.63.57.25,4.48-3.09,5.63-3.12,5.64-.06.02-.13.03-.19.03Z"/>
    </g>
    <path class="cls-1" d="M89.63,255.67c-.22,0-.44-.13-.54-.34-9.12-19.19,18.33-34.38,18.61-34.53.29-.16.66-.05.81.24.16.29.05.66-.24.81-.27.15-26.74,14.8-18.1,32.96.14.3.02.66-.28.8-.08.04-.17.06-.26.06Z"/>
    <g>
      <path class="cls-4" d="M236.51,245.92s-5.47-18.41,11.85-24.63c0,0,9.46,23.79-11.85,24.63Z"/>
      <path class="cls-7" d="M249.5,230.69c-.17-.28-.54-.36-.82-.2-.28.16-3.13,1.44-4.96,2.22,1.58-3.22,3.14-6.32,4.1-8.2.15-.3.03-.66-.26-.81s-.66-.03-.81.26c-.17.33-2.1,4.13-4.19,8.39-.38-1.48-.97-3.88-1.39-5.57-.08-.32-.41-.52-.73-.44-.32.08-.52.4-.44.73,1.21,4.92,1.59,6.42,1.76,6.92-.7,1.45-1.4,2.9-2.04,4.25-.34-1.18-.81-2.85-1.14-4.05-.09-.32-.42-.5-.74-.42-.32.09-.51.42-.42.74.88,3.17,1.29,4.65,1.55,5.34-1,2.18-1.73,3.92-1.88,4.61-.07.32.14.64.46.71.04,0,.08.01.12.01.28,0,.53-.19.59-.48.13-.6.81-2.22,1.77-4.31.98-.22,4.83-.89,7.25-1.3.33-.06.55-.37.49-.69-.06-.33-.36-.55-.69-.49-3.4.58-5.31.91-6.42,1.13.69-1.48,1.48-3.12,2.29-4.77,2.07-.54,6.31-2.73,6.36-2.76.28-.18.35-.54.18-.82Z"/>
    </g>
    <g>
      <path class="cls-4" d="M242.75,273.21s19.18.95,19.31,19.35c0,0-25.59,1.04-19.31-19.35Z"/>
      <path class="cls-7" d="M260.07,290.14c-.26-.27-3.2-3.35-6.52-6.73,1.52.13,3.99.37,5.72.54.32.03.62-.21.66-.54.03-.33-.21-.62-.54-.66-5.04-.49-6.58-.62-7.11-.64-1.13-1.14-2.27-2.28-3.34-3.33,1.23.07,2.96.18,4.2.27.34.02.62-.23.64-.56.02-.33-.23-.62-.56-.64-3.29-.22-4.81-.33-5.56-.31-1.73-1.66-3.12-2.93-3.72-3.3-.28-.17-.65-.08-.83.2-.17.28-.08.65.2.83.53.32,1.82,1.5,3.48,3.1-.12,1-.76,4.85-1.18,7.28-.06.33.16.64.49.69.03,0,.07,0,.1,0,.29,0,.54-.21.59-.5.58-3.4.91-5.31,1.07-6.43,1.17,1.15,2.45,2.43,3.75,3.74-.18,2.13.48,6.85.5,6.91.07.28.31.46.58.46.04,0,.09,0,.13-.01.32-.07.52-.39.46-.71-.06-.32-.32-3.43-.45-5.41,2.51,2.56,4.92,5.05,6.38,6.58.12.12.28.19.43.19.15,0,.3-.06.41-.17.24-.23.25-.61.02-.85Z"/>
    </g>
    <g>
      <path class="cls-4" d="M213.23,279.77s-19.01,2.7-17.46,21.03c0,0,25.57-1.31,17.46-21.03Z"/>
      <path class="cls-7" d="M212.99,281.03c-.2-.27-.58-.32-.84-.12-.57.42-1.84,1.81-3.4,3.63-.74.05-2.25.29-5.5.81-.33.05-.55.36-.5.69.05.33.36.55.69.5,1.23-.2,2.94-.47,4.16-.65-.97,1.14-2,2.38-3.02,3.62-.53.06-2.05.33-7.02,1.28-.33.06-.54.38-.48.7.06.33.38.54.7.48,1.71-.33,4.14-.79,5.64-1.06-3,3.67-5.64,7.01-5.88,7.3-.21.26-.16.64.1.84.11.09.24.13.37.13.18,0,.35-.08.47-.23,1.31-1.66,3.48-4.36,5.75-7.14.05,1.98.08,5.11.04,5.42-.05.33.18.63.51.68.03,0,.06,0,.08,0,.29,0,.55-.22.59-.52,0-.06.23-4.82-.14-6.93,1.17-1.42,2.33-2.82,3.39-4.07.26,1.1.76,2.97,1.65,6.31.07.27.31.45.58.45.05,0,.1,0,.16-.02.32-.09.51-.41.43-.74-.63-2.38-1.62-6.15-1.84-7.14,1.5-1.74,2.68-3.04,3.18-3.4.27-.2.32-.57.12-.84Z"/>
    </g>
    <g>
      <path class="cls-4" d="M205.93,256.36s-9.58-19.98-29.21-11.89c0,0,10.34,27.68,29.21,11.89Z"/>
      <path class="cls-7" d="M204.25,255.63c-.66-.48-2.63-1.39-5.19-2.49-.29-.76-1.07-2.31-2.83-5.8-.15-.3-.51-.42-.81-.27-.3.15-.42.51-.27.81.68,1.36,1.65,3.29,2.27,4.57-1.66-.7-3.48-1.44-5.29-2.17-.22-.5-1.01-2-3.87-7.31-.16-.29-.52-.4-.81-.24-.29.16-.4.52-.24.81,1,1.85,2.44,4.53,3.24,6.06-5.18-2.06-9.9-3.86-10.31-4.02-.31-.12-.66.04-.78.35-.12.31.04.66.35.78,2.73,1.04,6.42,2.47,10.09,3.93-2.14.75-5.83,1.95-6.21,2.02-.33.05-.55.36-.49.69.05.29.3.5.59.5.03,0,.07,0,.1,0,.45-.08,4.2-1.32,4.24-1.34,1.84-.61,2.88-.96,3.46-1.2,2.03.82,4.01,1.62,5.76,2.36-1.08.64-2.98,1.85-6.53,4.1-.28.18-.36.55-.18.83.11.18.31.28.51.28.11,0,.22-.03.32-.09,2.43-1.55,6.31-3.99,7.26-4.53,2.48,1.06,4.32,1.92,4.91,2.34.11.08.23.11.35.11.19,0,.37-.09.49-.25.19-.27.13-.64-.13-.84Z"/>
    </g>
    <g>
      <path class="cls-6" d="M250.81,260.34c1.95-2.03,2.88-5.43,1-10.57-3.14-8.58-9.7-9.33-14.22-7.79.42-3.38-1.22-7.45-8.16-9.34-8.66-2.35-12.21,2.09-13.66,6.1-2.64-1.25-6.34-1.5-10.61.06-5.73,2.09-5.63,10.23-3.36,14.67-4.69,2.27-9.68,6.99-7.78,13.17,1.16,3.77,3.52,5.7,6.12,6.56-.81,1.55-.71,4.17,1.08,8.5,3.14,7.62,9.25,5.81,12.88,3.41-.45,3.38,3.22,8.03,12.79,6.72,10.8-1.48,14.95-7.04,15.84-11.49,3.93.87,9.51-.62,11.51-7.74,1.55-5.52-.48-9.69-3.41-12.25Z"/>
      <path class="cls-7" d="M225.52,282.66c-3.56,0-6.1-2.37-7.26-4.58-.05-.1-.11-.21-.15-.31-.47.15-.96.27-1.46.33-3.01.4-5.44-1.1-6.68-4.11-.73-1.76-.87-3.16-.74-4.23-1.49-.84-2.8-2.36-3.53-4.72-1.14-3.69,1.51-6.66,4.39-8.23-.43-1.06-.67-2.3-.67-3.45,0-2.75,1.17-4.76,3.24-5.51,2.1-.77,4.18-.7,5.91-.19.36-.96.96-1.98,1.95-2.74,1.65-1.27,3.95-1.51,6.85-.72,4.41,1.2,5.23,3.76,5.3,5.29.73-.16,1.5-.22,2.29-.14,2.74.27,4.88,2.17,6.04,5.34,1.18,3.23.53,5.24-.33,6.4,1.18,1.2,2.83,3.66,1.76,7.45-1.2,4.27-4.31,5-5.59,5.12-.24.02-.49.03-.73.02-.02.33-.05.65-.1.98-.33,2.03-1.9,6.88-9.35,7.9-.39.05-.76.08-1.13.08ZM219.23,277.31c.03.07.07.14.1.21,1.1,2.09,3.63,4.35,7.16,3.87,6.66-.91,8.04-5.13,8.33-6.9.05-.32.08-.64.09-.94-1.26-.28-2.31-.94-2.73-1.81-.37-.76-.22-1.58.42-2.26.54-.57,1.2-.72,1.82-.42.91.45,1.52,1.8,1.67,3.43.21,0,.43,0,.64-.02,1.28-.12,3.58-.82,4.54-4.25.89-3.18-.46-5.24-1.44-6.26-1.78,1.44-4.31,1.48-5.64.69-.81-.49-1.19-1.25-1.02-2.11.15-.77.68-1.33,1.49-1.58,1.43-.45,3.45.11,5.1,1.35.86-1.23.9-3.01.1-5.19-1.27-3.48-3.44-4.4-5.03-4.56-.8-.08-1.57.01-2.26.21-.32,1.65-1.34,2.98-2.29,3.26-.58.17-1.12-.02-1.45-.53-.18-.29-.42-.89.08-1.71.45-.73,1.38-1.44,2.55-1.91.04-1.35-.58-3.45-4.41-4.5-2.51-.68-4.46-.51-5.79.51-.79.6-1.27,1.43-1.56,2.21,1.29.58,2.26,1.42,2.73,2.27.6,1.09.37,2.2-.62,2.95-.87.66-1.65.84-2.33.51-1.32-.63-1.44-2.9-1.45-3.35h0c0-.07,0-.74.19-1.63-1.51-.44-3.35-.51-5.15.14-2.22.81-2.45,3.33-2.45,4.38,0,1.09.22,2.11.55,2.93,1.69-.72,3.5-1.02,4.19-.18.31.38.48,1.07-.44,2.19-1.08,1.31-2.15,1.18-2.68.99-.63-.22-1.17-.74-1.6-1.41-.3.17-.61.35-.92.57-1.48,1.01-3.81,3.16-2.86,6.24.61,1.97,1.6,3.17,2.67,3.86.23-.59.54-1.03.81-1.34,1.27-1.4,3.13-1.66,4.33-1.3.91.27,1.51.89,1.63,1.69.2,1.25-.9,2.41-2.67,2.82-1.02.24-2.15.2-3.24-.15-.04.95.19,2.05.69,3.27,1.52,3.7,4.44,3.63,6.05,3.26.19-.04.38-.1.56-.15-.32-1.17-.21-2.19.33-2.79.34-.37,1.14-.9,2.72-.24.59.25.9.74.83,1.31-.11.84-1.07,1.75-2.35,2.39ZM219.38,274.5c-.21,0-.37.05-.46.16-.21.23-.28.79-.1,1.51.99-.52,1.57-1.15,1.58-1.41,0,0-.04-.02-.1-.05-.36-.15-.67-.22-.91-.22ZM233.79,270.11c-.07,0-.17.04-.31.19-.39.42-.31.72-.22.91.21.43.8.84,1.59,1.07-.16-1.14-.57-1.96-.96-2.15-.02-.01-.06-.03-.1-.03ZM210.61,269.08c1.02.36,2.02.34,2.75.17,1.09-.25,1.85-.88,1.75-1.46-.07-.44-.52-.64-.79-.72-.87-.26-2.22-.02-3.09.96-.28.3-.48.66-.62,1.06ZM235.72,260.01c-.26,0-.5.03-.7.1-.57.18-.64.55-.67.67-.04.22-.04.55.45.84.93.56,2.79.49,4.1-.45-1.09-.78-2.28-1.16-3.18-1.16ZM211.74,257.36c.29.41.6.7.91.81.16.06.65.23,1.35-.62.42-.5.42-.72.42-.72-.21-.14-1.3-.03-2.68.54ZM231.14,251.35c-.57.33-1,.71-1.21,1.05-.07.11-.17.32-.1.43.23.06.9-.48,1.31-1.49ZM219.23,250.46c.02.79.28,2.06.77,2.29.31.15.81-.18,1.08-.39.51-.39.6-.84.29-1.41-.33-.61-1.05-1.21-2.01-1.66-.13.65-.13,1.12-.13,1.18Z"/>
      <path class="cls-7" d="M224.47,269.02c-.75,0-1.46-.15-2.02-.42-.27-.13-.51-.29-.71-.47-.16.03-.33.05-.5.07-1.38.14-2.56-.44-3.3-1.61-.98-1.54-.98-3.83,0-5.44.57-.94,1.4-1.57,2.41-1.86.09-.28.23-.58.45-.87.67-.9,1.84-1.44,3.47-1.61,1.38-.15,2.41.56,2.82,1.94.2.67.24,1.48.16,2.25.59.03,1.16.2,1.61.52.73.52,1.72,1.84.16,4.89-.94,1.85-2.85,2.61-4.54,2.61ZM223.22,267.62c1.4.51,3.76.11,4.71-1.75.74-1.46.9-2.58.43-3.16-.3-.37-.87-.53-1.37-.51-.25.85-.65,1.55-1.13,1.8-.38.2-.96.2-1.41-.38-.43-.56-.39-1.22.11-1.74.34-.35.86-.62,1.46-.76.1-.66.1-1.39-.09-2.03-.33-1.09-1.04-1.14-1.54-1.09-1.25.13-2.16.52-2.62,1.12,0,0,0,0,0,0,.09,0,.19,0,.28.01,1.34.1,2.04.51,2.08,1.2.04.73-.76,1.28-1.57,1.44-1.08.22-1.98-.24-2.31-1.16,0,0,0-.02,0-.02-.62.28-1.03.74-1.28,1.16-.74,1.22-.74,3.02,0,4.18.34.54.99,1.16,2.1,1.07-.1-.46-.05-.96.18-1.46.69-1.5,1.68-1.37,1.97-1.29.7.18,1.18.92,1.12,1.72-.02.31-.18,1.09-1.12,1.65ZM222.89,265.41c-.11,0-.34.16-.56.63-.12.26-.15.5-.1.72.62-.23.88-.58.9-.88.02-.25-.12-.44-.23-.46,0,0-.01,0-.02,0ZM225.59,262.57c-.15.1-.23.19-.24.23,0,0,.02.03.05.06.06-.07.13-.17.19-.29ZM221.43,260.32c.07.14.2.27.49.3.3.03.62-.06.82-.17-.16-.05-.4-.1-.78-.12-.19-.01-.36-.02-.53,0Z"/>
    </g>
    <g>
      <g>
        <path class="cls-4" d="M298.35,221.73s7.51,17.42-8.75,25.55c0,0-12.06-22.24,8.75-25.55Z"/>
        <path class="cls-7" d="M298.8,233.03c-1.23-3.01-1.8-4.41-2.14-5.06.72-2.25,1.24-4.04,1.3-4.73.03-.33-.21-.62-.54-.65-.33-.03-.62.21-.65.54-.05.61-.54,2.27-1.23,4.43-.94.33-4.63,1.43-6.96,2.12-.32.09-.5.43-.41.75.09.32.43.5.75.41,3.25-.96,5.09-1.51,6.16-1.85-.51,1.53-1.09,3.22-1.68,4.93-1.97.76-5.87,3.42-5.92,3.45-.25.21-.29.58-.08.83.2.26.58.3.84.1.25-.19,2.89-1.77,4.59-2.75-1.17,3.34-2.34,6.55-3.06,8.5-.11.31.05.66.36.77.07.03.14.04.21.04.24,0,.47-.15.56-.39.13-.35,1.57-4.28,3.13-8.7.54,1.41,1.4,3.69,2.01,5.29.09.24.32.39.56.39.07,0,.14-.01.21-.04.31-.12.47-.46.35-.77-1.76-4.68-2.31-6.1-2.53-6.58.52-1.49,1.03-2.99,1.5-4.39.47,1.12,1.12,2.69,1.59,3.82.1.23.32.37.56.37.08,0,.15-.01.23-.04.31-.13.45-.48.33-.78Z"/>
      </g>
      <g>
        <path class="cls-4" d="M297.9,221.48s-16.62-9.16-8.76-25.55c0,0,23.17,10.17,8.76,25.55Z"/>
        <path class="cls-7" d="M300.62,208.36c-.27-.2-.65-.13-.84.14-1.98,2.75-3.1,4.31-3.73,5.24-.54-1.52-1.12-3.21-1.7-4.93,1.08-1.82,2.54-6.29,2.56-6.35.07-.32-.13-.63-.44-.71-.32-.08-.64.12-.73.44-.08.31-1.19,3.17-1.93,4.98-1.12-3.35-2.17-6.6-2.8-8.59-.1-.32-.44-.49-.75-.39-.32.1-.49.44-.39.75.11.35,1.39,4.35,2.87,8.79-1.3-.78-3.37-2.05-4.83-2.95-.29-.18-.65-.09-.83.2-.17.28-.09.65.2.83,4.26,2.62,5.57,3.4,6.04,3.65.51,1.5,1.02,3,1.51,4.38-1.06-.59-2.54-1.44-3.6-2.05-.29-.17-.65-.07-.82.22-.17.29-.07.65.22.82,2.81,1.62,4.12,2.37,4.8,2.68.81,2.23,1.5,3.95,1.87,4.54.11.18.31.28.51.28.11,0,.22-.03.32-.1.28-.18.36-.55.18-.83-.33-.51-.97-2.12-1.74-4.25.54-.84,2.78-3.97,4.2-5.95.19-.27.13-.64-.14-.84Z"/>
      </g>
      <path class="cls-7" d="M309.84,225.86c0-.06-.01-.15-.03-.26-2.41-20.84-10.87-32.06-10.98-32.21-.2-.26-.58-.31-.84-.11-.26.2-.31.58-.11.84.04.05,3.58,4.69,6.67,13.48,1.4,3.98,2.85,9.25,3.76,15.68-1.58-1.29-4.9-2.62-11.95-2.38-5.9.2-10.21,3.97-14.01,7.3-4.93,4.32-9.18,8.05-15.84,4.26-.29-.16-.66-.06-.82.23-.16.29-.06.66.23.82,2.16,1.23,4.1,1.74,5.88,1.74,4.33,0,7.77-3.01,11.34-6.15,3.83-3.35,7.79-6.82,13.26-7,7.16-.23,10.14,1.13,11.39,2.32.42.4.67.85.82,1.19.71,6.14.91,13.24.14,21.24-.03.33.21.62.54.66.02,0,.04,0,.06,0,.31,0,.57-.23.6-.54.75-7.86.59-14.9-.11-21.1Z"/>
      <path class="cls-6" d="M268,219.76c-4.62-.34-4.89,2.55-4.06,5.13-2.4-1.43-5.84-1.66-7.48,1.64-1.07,2.15-.66,4.4.22,6.02-2.12,1.11-4.05,3.4-2.59,5.75,1.28,2.06,3.6,3.18,5.58,3.55-1.25,2.25-1.63,5.67,1.42,7.05,5.41,2.46,13.65-7.27,12.52-14.25,0,0,3.66-14.2-5.61-14.89Z"/>
      <path class="cls-7" d="M266.23,244.72c-.23,0-.46-.02-.7-.05-2.19-.33-3.02-1.98-2.88-3.47.04-.39.14-.78.3-1.15-.15-.07-.31-.14-.47-.22-1.89-.97-2.03-2.41-1.95-3.18.08-.72.38-1.4.81-2-.56-.62-.85-1.43-.81-2.35.11-2.44,2.83-3.56,5.35-3.59-.07-1.17.51-2.21,1.69-2.96,1.14-.72,2.19-.87,3.12-.43,2.08.97,2.61,4.5,2.66,4.9.04.33-.19.63-.52.67-.33.04-.63-.19-.67-.52-.12-.9-.71-3.38-1.98-3.97-.54-.25-1.19-.14-1.96.36-.84.54-1.22,1.21-1.12,2.02,1.81.25,2.98,1.12,3.03,2.31.04,1.06-.64,1.29-.85,1.34-1.09.24-2.54-1.13-3.1-2.51,0,0,0,0,0,0-.06,0-.12,0-.19,0-2.06,0-4.18.84-4.25,2.44-.03.62.15,1.08.42,1.41.54-.48,1.15-.82,1.72-.98.91-.24,1.7,0,2.19.67.6.82.26,1.44.09,1.66-.62.83-2.19.89-3.35.48-.17-.06-.34-.13-.49-.21-.31.43-.52.91-.57,1.39-.09.83.35,1.5,1.3,1.99.19.1.38.19.57.26.69-.8,1.73-1.34,2.99-1.29,1.46.06,1.94.57,2.09.99.15.43,0,.91-.42,1.27-.78.68-2.35.97-4.18.47-.13.27-.21.56-.23.85-.04.44-.03,1.89,1.87,2.17,3.39.51,5.63-4.39,5.65-4.44.14-.3.49-.44.79-.3.3.13.44.49.31.79-.1.22-2.35,5.19-6.23,5.19ZM264.91,239.42c1.07.2,1.8.01,2.06-.08.25-.08.4-.18.48-.25-.13-.06-.4-.14-.92-.17-.64-.03-1.19.17-1.62.49ZM263.18,234.45c.14.05.27.09.37.11.93.21,1.57-.05,1.63-.18,0-.02-.01-.1-.11-.23-.07-.09-.28-.38-.9-.21-.32.08-.66.27-.99.52ZM267.64,230.12c.43.62,1,1.04,1.28,1.12,0-.03,0-.06,0-.1-.02-.42-.52-.79-1.28-1.01Z"/>
      <path class="cls-7" d="M294.78,222.22c-10.37,0-17.13-14.39-17.43-15.03-.14-.3,0-.66.29-.8.3-.14.66,0,.8.29.07.16,7.44,15.8,17.85,14.22.33-.05.63.18.68.5.05.33-.18.63-.5.68-.58.09-1.14.13-1.7.13Z"/>
      <path class="cls-6" d="M284.57,191.7c-3.52-3.01-5.45-.85-6.31,1.72-1.09-2.58-3.72-4.79-7-3.11-2.14,1.1-3.14,3.15-3.39,4.98-2.37-.36-5.28.34-5.49,3.09-.19,2.42,1.01,4.69,2.39,6.17-2.34,1.07-4.67,3.6-3.04,6.52,2.9,5.19,13.71,3.03,16.94-3.26,0,0,12.96-10.06,5.9-16.11Z"/>
      <path class="cls-7" d="M271.43,211.69c-1.27,0-2.57-.35-3.61-1.39-1.57-1.56-1.26-3.39-.26-4.5.26-.29.57-.54.92-.75-.08-.15-.17-.3-.25-.46-.95-1.9-.21-3.15.32-3.72.49-.53,1.14-.9,1.83-1.13-.09-.83.16-1.66.74-2.38,1.53-1.9,4.39-1.19,6.44.28.64-.98,1.72-1.47,3.12-1.38,1.34.09,2.27.6,2.76,1.5,1.1,2.02-.57,5.17-.76,5.52-.16.29-.53.4-.82.24-.29-.16-.4-.53-.24-.82.44-.8,1.43-3.14.76-4.37-.29-.53-.87-.81-1.79-.88-1-.08-1.7.25-2.1.96,1.31,1.27,1.74,2.67,1.07,3.65-.59.88-1.28.66-1.48.57-1.02-.45-1.37-2.41-1.01-3.86,0,0,0,0,0,0-.04-.03-.09-.07-.13-.1-1.66-1.23-3.87-1.81-4.88-.56-.39.49-.51.96-.5,1.38.72-.06,1.41.02,1.96.23.87.34,1.37,1.01,1.36,1.83,0,1.01-.64,1.31-.91,1.4-.99.3-2.3-.58-2.98-1.6-.1-.15-.19-.31-.27-.46-.5.17-.96.43-1.29.78-.56.62-.61,1.41-.13,2.37.1.2.2.38.3.55,1.03-.23,2.19-.06,3.18.73,1.14.91,1.23,1.61,1.1,2.04-.13.44-.54.73-1.09.78-1.04.09-2.47-.61-3.64-2.1-.26.14-.5.33-.69.55-.29.33-1.14,1.5.22,2.85,2.44,2.43,7.14-.19,7.18-.22.29-.16.65-.06.82.23.16.29.06.65-.22.82-.15.08-2.53,1.42-5.01,1.42ZM270.43,205.71c.75.79,1.44,1.08,1.71,1.16.25.08.42.09.53.08-.07-.13-.24-.35-.64-.68-.5-.4-1.06-.57-1.6-.56ZM271.98,200.68c.08.12.17.23.23.31.62.72,1.3.89,1.42.82,0-.01.05-.09.05-.25,0-.12,0-.47-.6-.71-.31-.12-.7-.17-1.1-.17ZM278.44,201.55h0ZM278.13,199.83c-.02.76.18,1.43.37,1.66.02-.02.04-.05.06-.08.24-.35.05-.95-.43-1.58Z"/>
    </g>
    <g>
      <g>
        <path class="cls-4" d="M133.58,237.93s-6.64-18.29,10.95-25.76c0,0,11.07,23.48-10.95,25.76Z"/>
        <path class="cls-7" d="M146.08,222.2c.26-.19.32-.56.13-.83-.19-.27-.56-.33-.83-.15-.27.18-2.99,1.6-4.74,2.47,1.37-3.26,2.72-6.4,3.56-8.31.13-.3,0-.66-.31-.79-.3-.13-.66,0-.79.31-.15.34-1.83,4.18-3.64,8.5-.46-1.44-1.18-3.76-1.69-5.4-.1-.32-.43-.49-.75-.4-.32.1-.49.43-.4.75,1.47,4.77,1.94,6.23,2.13,6.72-.61,1.46-1.21,2.93-1.75,4.29-.4-1.14-.96-2.76-1.35-3.91-.11-.31-.45-.49-.76-.37-.31.11-.48.45-.37.76,1.05,3.07,1.54,4.5,1.84,5.18-.86,2.21-1.48,3.96-1.58,4.65-.05.33.18.63.5.68.03,0,.06,0,.09,0,.29,0,.55-.21.59-.51.09-.6.67-2.23,1.5-4.35.96-.27,4.71-1.16,7.08-1.7.32-.08.52-.4.45-.72-.08-.32-.4-.52-.72-.45-3.3.77-5.17,1.2-6.26,1.48.6-1.5,1.27-3.14,1.97-4.82,2.02-.64,6.07-3.07,6.11-3.1Z"/>
      </g>
      <g>
        <path class="cls-4" d="M134.75,237.15s17.4,7.05,7.22,26.03c0,0-22.52-11.53-7.22-26.03Z"/>
        <path class="cls-7" d="M144.43,253.43c-4.09-2.87-5.35-3.73-5.81-4-.42-1.53-.84-3.05-1.25-4.47,1.02.65,2.45,1.59,3.47,2.26.28.18.65.11.83-.17.18-.28.11-.65-.17-.83-2.71-1.79-3.97-2.62-4.63-2.96-.68-2.27-1.26-4.04-1.6-4.64-.16-.29-.53-.39-.82-.23-.29.16-.39.53-.23.82.3.53.84,2.17,1.48,4.35-.55.76-2.99,3.78-4.54,5.69-.21.26-.17.64.09.84.11.09.25.13.38.13.17,0,.35-.08.47-.22,2.14-2.63,3.35-4.12,4.03-5.01.45,1.55.93,3.28,1.4,5.03-1.2,1.75-2.91,6.13-2.93,6.19-.09.31.09.64.4.73.06.02.12.03.17.03.25,0,.49-.17.58-.42.1-.3,1.38-3.09,2.23-4.86.92,3.42,1.77,6.72,2.28,8.74.07.27.31.45.58.45.05,0,.1,0,.15-.02.32-.08.52-.41.43-.73-.09-.36-1.12-4.42-2.34-8.94,1.25.86,3.24,2.25,4.64,3.23.27.19.65.12.84-.15.19-.27.12-.65-.15-.84Z"/>
      </g>
      <path class="cls-7" d="M168.23,227.51c-7.14-4.63-12.15-.75-17.46,3.37-3.71,2.88-7.52,5.84-12.41,6.17-.41-.01-.83,0-1.25.03-7.15-.19-10.05-1.73-11.22-2.99-.5-.53-.66-1-.72-1.28-1.66-15.92.14-27.07.18-27.3.06-.33-.16-.64-.49-.69-.33-.06-.64.16-.69.49-.04.23-1.83,11.33-.23,27.23,0,.1,0,.27.05.49,1.88,17.88,8.07,41.68,25.8,62.93.12.14.29.22.46.22.14,0,.27-.05.38-.14.25-.21.29-.59.08-.85-16.76-20.08-23.1-42.47-25.26-59.86,1.56,1.34,4.82,2.78,11.64,2.96.13,0,.25,0,.38,0,.31,0,.6-.01.9-.03,9.8.32,15.7,15.13,15.76,15.29.09.24.32.38.56.38.07,0,.15-.01.22-.04.31-.12.46-.47.34-.78-.23-.6-5.03-12.61-13.54-15.46,3.76-1.13,6.92-3.58,9.8-5.81,5.18-4.02,9.65-7.48,16.07-3.31.28.18.65.1.83-.18s.1-.65-.18-.83Z"/>
      <path class="cls-6" d="M171.07,250.15c-2.59-5.35-14.02-4.22-17.61,1.87,0,0-14.71,7.99-6.34,16.1,3.33,3.22,5.39,1.18,6.4-1.34.93,2.64,3.42,5.01,6.8,3.52,2.2-.97,3.32-2.96,3.68-4.77,2.34.5,5.29-.02,5.67-2.76.33-2.4-.73-4.75-2.02-6.3,2.4-.93,4.88-3.31,3.42-6.32Z"/>
      <path class="cls-7" d="M158.53,264.28c-1.36,0-2.86-.7-4.05-1.67-.7.94-1.81,1.37-3.2,1.19-1.33-.17-2.23-.73-2.67-1.66-.98-2.08.88-5.12,1.09-5.46.18-.28.55-.36.83-.19.28.18.36.55.19.83-.49.77-1.61,3.05-1.02,4.31.25.54.82.86,1.74.98.99.13,1.71-.15,2.15-.83-1.23-1.35-1.58-2.77-.85-3.71.65-.84,1.32-.58,1.51-.48.99.51,1.23,2.49.78,3.92,0,0,0,0,0,0,.04.04.09.07.13.11,1.58,1.33,3.76,2.04,4.84.85.42-.46.57-.93.58-1.35-.72.02-1.41-.1-1.94-.35-.85-.39-1.31-1.09-1.25-1.91.07-1.01.72-1.27.99-1.34,1.01-.24,2.26.72,2.88,1.78.09.16.17.32.24.48.51-.13.99-.37,1.33-.7.6-.58.69-1.38.27-2.36-.09-.2-.18-.39-.27-.57-1.05.17-2.19-.07-3.13-.92-1.08-.98-1.13-1.68-.97-2.1.16-.43.58-.7,1.13-.71,1.05.02,2.43.76,3.51,2.31.27-.13.52-.3.73-.51.31-.31,1.23-1.43-.04-2.86-2.29-2.57-7.14-.23-7.18-.2-.3.14-.66.02-.8-.27-.15-.3-.02-.66.27-.8.23-.12,5.72-2.77,8.61.48,1.47,1.65,1.06,3.46,0,4.51-.28.27-.6.51-.96.69.08.15.15.31.22.47.83,1.95.02,3.15-.54,3.69-.52.5-1.19.83-1.9,1.02.04.83-.26,1.64-.88,2.33-.65.71-1.47,1.01-2.36,1.01ZM153.76,258.72s-.04.05-.07.08c-.26.34-.11.94.34,1.6.07-.76-.1-1.44-.27-1.68ZM158.7,258.68s-.05,0-.06.01c-.01.01-.05.08-.06.25,0,.12-.03.47.56.74.3.14.68.22,1.09.23-.08-.13-.15-.24-.22-.32-.52-.67-1.1-.91-1.31-.91ZM159.91,253.61c.06.13.22.37.6.71.47.43,1.02.63,1.56.66-.7-.84-1.38-1.16-1.63-1.26-.24-.09-.39-.14-.53-.11Z"/>
      <path class="cls-6" d="M180.32,223.43c-1.16-2.13-3.4-3.39-5.36-3.88,1.38-2.17,1.96-5.56-.99-7.12-5.26-2.78-14.08,8.36-13.37,15.4,0,0-4.48,12.04,4.74,13.28,4.59.61,5.04-2.25,4.36-4.87,2.31,1.58,5.73,2,7.56-1.2,1.2-2.09.92-4.35.13-6.02,2.18-.98,4.24-3.15,2.93-5.58Z"/>
      <path class="cls-7" d="M164.23,235.71c-.44,0-.86-.11-1.24-.32-2.02-1.1-2.33-4.65-2.36-5.05-.02-.33.22-.62.56-.64.33-.02.62.22.64.56.07.91.51,3.41,1.74,4.08.53.29,1.17.21,1.98-.24.88-.48,1.29-1.14,1.24-1.95-1.79-.36-2.91-1.29-2.89-2.48.02-1.06.72-1.25.93-1.28,1.1-.17,2.46,1.28,2.95,2.69,0,0,0,0,0,0,.06,0,.11,0,.17.01,2.06.13,4.24-.58,4.4-2.18.06-.62-.09-1.08-.34-1.43-.57.44-1.19.75-1.77.87-.92.19-1.7-.1-2.14-.8-.55-.86-.18-1.45,0-1.67.67-.79,2.24-.76,3.38-.28.17.07.33.15.48.24.33-.41.58-.88.66-1.36.14-.82-.26-1.52-1.18-2.06-.19-.11-.37-.21-.55-.3-.74.76-1.8,1.24-3.06,1.11-1.45-.14-1.91-.69-2.03-1.11-.13-.44.06-.91.49-1.24.82-.64,2.41-.83,4.2-.22.14-.27.24-.55.28-.84.07-.43.14-1.88-1.73-2.28-3.35-.71-5.88,4.05-5.91,4.09-.15.29-.52.41-.81.26-.29-.15-.41-.52-.26-.81.12-.23,2.96-5.62,7.22-4.72,2.16.46,2.9,2.16,2.67,3.64-.06.39-.18.77-.36,1.13.15.08.3.16.45.25,1.83,1.08,1.89,2.53,1.76,3.29-.12.71-.46,1.38-.93,1.95.52.65.76,1.48.67,2.4-.25,2.43-3.03,3.37-5.55,3.26,0,1.17-.65,2.18-1.87,2.85-.67.37-1.31.56-1.89.56ZM165.1,229.59s0,.06,0,.1c0,.42.47.82,1.22,1.09-.39-.65-.93-1.1-1.22-1.19ZM169.82,226.47c-.46,0-.77.13-.81.21,0,.02,0,.1.1.24.06.1.25.4.89.27.32-.07.68-.23,1.02-.46-.14-.06-.26-.1-.36-.13-.31-.09-.59-.12-.83-.12ZM167.03,221.84c.13.07.39.17.91.22.63.06,1.19-.1,1.65-.4-1.06-.26-1.79-.12-2.06-.04-.25.07-.41.16-.49.22Z"/>
    </g>
    <path class="cls-7" d="M177.94,102.47c-.28,0-.53-.2-.59-.48-.07-.33.15-.64.47-.71,1.23-.25,30.3-6.08,37.34-6.08.33,0,.6.27.6.6s-.27.6-.6.6c-6.92,0-36.8,5.99-37.1,6.06-.04,0-.08.01-.12.01Z"/>
  </g>
</svg>