<?xml version="1.0" encoding="UTF-8"?>
<svg id="Capa_1" data-name="Capa 1" xmlns="http://www.w3.org/2000/svg" viewBox="0 0 425.2 425.2">
  <defs>
    <style>
      .cls-1 {
        fill: #b7543a;
      }

      .cls-2 {
        fill: #53afa2;
      }

      .cls-3 {
        fill: #f1ecd7;
      }

      .cls-4 {
        fill: #e1503f;
      }

      .cls-5 {
        fill: #251827;
      }

      .cls-6 {
        fill: #db607c;
      }

      .cls-7 {
        fill: #ee7f32;
      }
    </style>
  </defs>
  <g>
    <path class="cls-1" d="M362.81,326.84s8.85-54.56-54.83-60.92c-63.68-6.36-60,80.44-48.65,82.71,11.35,2.27,86.48,36.97,103.48-21.78Z"/>
    <path class="cls-3" d="M257.83,303.01s20.59,5.31,37.15-8.38c11.04-9.13,15.82-15.93,43.98-2.71,15.33,7.2,24.33,8.97,21.9-5.73-2.43-14.7-17.24-15.12-17.24-15.12,0,0,7.37,1.96,6.92-12.22-.46-14.18-30.09-21.69-60.52-14.3-30.43,7.39-18.39,27.15-18.39,27.15,0,0-24.6,10.39-13.81,31.3Z"/>
    <path class="cls-5" d="M278.97,287s-.04-.03-.06-.04c-.83-.62-1-1.8-.38-2.63,18.42-24.62,36.16-16.64,49.12-10.82,5.24,2.36,9.77,4.39,13.12,3.8,1.02-.18,1.99.5,2.17,1.53.18,1.02-.51,1.99-1.53,2.17-4.49.78-9.5-1.47-15.31-4.08-13.1-5.89-27.95-12.56-44.57,9.65-.61.81-1.74.99-2.56.42Z"/>
    <path class="cls-5" d="M303.17,236.8c-.35-.24-.63-.61-.75-1.06-4.15-15.5,8.81-23.42,16.24-25.44,1-.27,2.03.32,2.3,1.32.27,1-.31,2.03-1.31,2.3-.73.2-17.83,5.11-13.61,20.85.27,1-.33,2.03-1.33,2.3-.55.15-1.11.03-1.55-.27Z"/>
    <path class="cls-4" d="M322.63,251.27c-2.49,9.38-12.11,14.96-21.48,12.47-9.38-2.49-14.96-12.11-12.47-21.48,2.49-9.38,12.11-14.96,21.48-12.47,9.38,2.49,14.96,12.11,12.47,21.48Z"/>
    <path class="cls-6" d="M373.39,308.16c-10.91-4.09-24.33,2.13-32.88,10.77-3.19-8-8.75-15.29-16.92-17.45-12.58-3.34-29.39,8.35-38.49,21.08-9.51-14.16-25.81-24.75-39.53-3.82-11.39,17.37,25.97,89.87,25.97,89.87,0,0,78.75-2,83.55-4.94,4.8-2.94,39.41-87.59,18.31-95.5Z"/>
    <path class="cls-5" d="M289.57,395.13c-.25-.17-.46-.4-.6-.69-.69-1.33-16.88-33-21.26-58.85-.17-1.02.51-1.99,1.54-2.16,1.02-.17,1.99.52,2.16,1.54,4.29,25.28,20.73,57.44,20.9,57.76.47.92.11,2.05-.81,2.53-.64.33-1.37.26-1.92-.12Z"/>
    <path class="cls-5" d="M335.01,397.35c-.34-.24-.61-.59-.74-1.02-2.29-7.93,12.19-53.38,13.85-58.54.32-.99,1.38-1.53,2.36-1.21.99.33,1.53,1.38,1.21,2.36-6.13,19.06-15.31,51.2-13.82,56.35.29.99-.29,2.04-1.28,2.32-.56.16-1.14.05-1.59-.26Z"/>
    <path class="cls-5" d="M310.06,390.73c-.43-.3-.74-.78-.8-1.35-1.59-15.12-.85-62.73-.81-64.75.01-1.04.87-1.86,1.9-1.84,1.04.01,1.86.87,1.84,1.9,0,.49-.77,49.4.8,64.3.11,1.03-.64,1.95-1.67,2.06-.46.05-.9-.08-1.26-.32Z"/>
    <path class="cls-5" d="M314.25,250.88c-.65-.44-.97-1.27-.74-2.06.85-2.95.67-5.29-.52-6.93-2.01-2.78-6.48-3.04-6.53-3.04-1.04-.04-1.84-.91-1.8-1.95.04-1.03.91-1.84,1.95-1.8.26,0,6.31.3,9.42,4.59,1.9,2.62,2.26,6.04,1.08,10.16-.29,1-1.32,1.57-2.32,1.29-.2-.06-.38-.15-.55-.26Z"/>
  </g>
  <g>
    <path class="cls-2" d="M50.38,97.24s3.51,58.13-4.77,78.13c-4.76,11.48,76.17,39.88,78.19,35.46,7.45-16.35,27.6-61.49,43.91-72.87,16.32-11.38-87.76-62.66-117.33-40.72Z"/>
    <path class="cls-5" d="M61.44,185.17c-.25,0-.5-.04-.75-.14-1.1-.41-1.65-1.63-1.23-2.73,9.37-24.84,15.32-68.85,15.38-69.29.15-1.16,1.2-1.97,2.38-1.82,1.16.15,1.97,1.22,1.82,2.38-.24,1.82-6.08,44.93-15.62,70.22-.32.85-1.12,1.37-1.98,1.37Z"/>
    <path class="cls-5" d="M81.89,192.88c-.59,0-1.18-.25-1.6-.73-2.79-3.2,6.17-28,26.62-73.72.48-1.07,1.72-1.54,2.8-1.07,1.07.48,1.55,1.73,1.07,2.8-13.73,30.68-27.49,64.86-27.03,69.58.47.85.3,1.95-.47,2.62-.4.35-.9.52-1.39.52ZM83.77,189.88h.04-.04ZM83.49,189.38s0,0,0,0t0,0Z"/>
    <path class="cls-5" d="M106.18,202.05c-1.03,0-1.94-.76-2.09-1.81-1.81-12.37,31.48-58.74,35.28-63.99.68-.95,2.01-1.16,2.96-.47.95.69,1.16,2.01.47,2.96-13.97,19.28-35.7,52.86-34.52,60.89.17,1.16-.63,2.23-1.79,2.4-.1.02-.21.02-.31.02Z"/>
    <path class="cls-7" d="M43.48,84.62S102.21,2.19,154.67,44.3c52.46,42.11,27.32,115.56,7.42,109.57-19.9-5.99-23.6-32.26-29.03-27.58-5.43,4.68-16.09,26.5-30.99,14.09-14.9-12.41-7.78-32.22-17.63-28.99-9.84,3.23-60.38,14.17-40.96-26.77Z"/>
    <path class="cls-5" d="M87.39,56.54c-.89,0-1.73-.57-2.02-1.47-.36-1.11.25-2.3,1.37-2.66l19.54-6.3c1.11-.35,2.31.25,2.66,1.37s-.25,2.3-1.37,2.66l-19.54,6.3c-.21.07-.43.1-.65.1Z"/>
    <path class="cls-5" d="M122.59,84.62c-.66,0-1.3-.3-1.72-.87l-13.16-18.17c-.69-.95-.48-2.27.47-2.96.95-.69,2.27-.47,2.96.47l13.16,18.17c.69.95.48,2.27-.47,2.96-.38.27-.81.4-1.24.4Z"/>
    <path class="cls-5" d="M127.94,65.94s-.07,0-.11,0c-1.17-.06-2.07-1.05-2.01-2.22l.97-20.08c.06-1.17,1.11-2.05,2.22-2.01,1.17.06,2.07,1.05,2.01,2.22l-.97,20.08c-.06,1.13-.99,2.01-2.11,2.01Z"/>
    <path class="cls-5" d="M140.31,75.45c-.79,0-1.55-.44-1.91-1.2-.51-1.05-.06-2.32.99-2.82l17.16-8.22c1.06-.51,2.32-.06,2.82.99.51,1.05.06,2.32-.99,2.82l-17.16,8.22c-.3.14-.61.21-.91.21Z"/>
    <path class="cls-5" d="M165.87,95.74c-.49,0-.98-.17-1.38-.51l-14.46-12.48c-.88-.76-.98-2.1-.22-2.99.76-.89,2.1-.98,2.98-.22l14.46,12.48c.88.76.98,2.1.22,2.99-.42.49-1.01.73-1.6.73Z"/>
  </g>
</svg>