<?xml version="1.0" encoding="UTF-8"?>
<svg id="Capa_1" data-name="Capa 1" xmlns="http://www.w3.org/2000/svg" viewBox="0 0 425.2 425.2">
  <defs>
    <style>
      .cls-1 {
        fill: #fefeff;
      }

      .cls-2 {
        fill: #251827;
      }

      .cls-3 {
        fill: #db607c;
      }
    </style>
  </defs>
  <path class="cls-3" d="M319.07,312.28s9.74-161.31-22.45-166.1c-32.19-4.79-15.31,43.96-41.64,45.52-26.34,1.56-19.73-129.32-86.57-110.33-66.84,18.99-81.75,119.06-41.4,167.66,40.35,48.6,49.41,39.83,56.49,76.84s134.52,13.41,135.58-13.59Z"/>
  <path class="cls-1" d="M188.26,164.93c-.42,0-.8-.27-.92-.69-2.44-8.44-18.24-21.68-18.4-21.81-.41-.34-.46-.95-.12-1.35.34-.41.95-.46,1.35-.12.67.56,16.42,13.75,19.02,22.75.15.51-.15,1.04-.66,1.19-.09.03-.18.04-.27.04Z"/>
  <path class="cls-1" d="M158.34,221.02c-.42,0-.8-.27-.92-.69-2.44-8.44-18.24-21.68-18.4-21.81-.41-.34-.46-.95-.12-1.35.34-.41.95-.46,1.35-.12.67.56,16.42,13.75,19.02,22.75.15.51-.15,1.04-.66,1.19-.09.03-.18.04-.27.04Z"/>
  <path class="cls-1" d="M229.13,211.33c-.42,0-.8-.27-.92-.69-2.44-8.44-18.24-21.68-18.4-21.81-.41-.34-.46-.95-.12-1.35.34-.41.95-.46,1.35-.12.67.56,16.42,13.75,19.02,22.75.15.51-.15,1.04-.66,1.19-.09.03-.18.04-.27.04Z"/>
  <path class="cls-1" d="M202.85,256.22c-.42,0-.8-.27-.92-.69-2.44-8.45-18.24-21.68-18.4-21.81-.41-.34-.46-.95-.12-1.35.34-.41.95-.46,1.35-.12.67.56,16.42,13.75,19.02,22.75.15.51-.15,1.04-.66,1.19-.09.03-.18.04-.27.04Z"/>
  <path class="cls-1" d="M265.14,252.05c-.42,0-.8-.27-.92-.69-2.44-8.44-18.24-21.68-18.4-21.81-.41-.34-.46-.95-.12-1.35.34-.41.95-.46,1.35-.12.67.56,16.42,13.75,19.02,22.75.15.51-.15,1.04-.66,1.19-.09.03-.18.04-.27.04Z"/>
  <path class="cls-1" d="M296.9,294.87c-.42,0-.8-.27-.92-.69-2.44-8.44-18.24-21.68-18.4-21.81-.41-.34-.46-.95-.12-1.35.34-.41.95-.46,1.35-.12.67.56,16.42,13.75,19.02,22.75.15.51-.15,1.04-.66,1.19-.09.03-.18.04-.27.04Z"/>
  <path class="cls-1" d="M150.89,131.6c-.42,0-.8-.27-.92-.69-2.44-8.45-18.24-21.68-18.4-21.81-.41-.34-.46-.95-.12-1.35.34-.41.95-.46,1.35-.12.67.56,16.42,13.75,19.02,22.75.15.51-.15,1.04-.66,1.19-.09.03-.18.04-.27.04Z"/>
  <path class="cls-1" d="M185.95,101.05c-.42,0-.8-.27-.92-.69-2.36-8.16-15.54-10.88-15.68-10.91-.52-.1-.86-.61-.75-1.13.1-.52.61-.87,1.13-.75.59.12,14.47,2.98,17.15,12.26.15.51-.15,1.04-.66,1.19-.09.03-.18.04-.27.04Z"/>
  <path class="cls-2" d="M313.56,219.96c-.49-.63-5.97-7.63-13.06-15.44,4.68-12.48,7.51-23.07,7.02-29.65-.04-.53-.5-.93-1.03-.89-.53.04-.93.5-.89,1.03.45,6.14-2.18,16.09-6.58,27.9-8.6-9.3-19.13-19.22-26.12-20.71-.52-.11-1.03.22-1.14.74-.11.52.22,1.03.74,1.14,6.67,1.42,17.23,11.55,25.75,20.86-5.18,13.54-12.5,29.29-20.09,44.52-9.63-11.67-20.92-25.22-32.85-39.29,5.83-7.78,9.77-12.7,9.93-12.89.33-.41.27-1.02-.14-1.35-.42-.33-1.02-.27-1.35.14-.08.1-3.95,4.92-9.71,12.59-13.02-15.34-26.75-31.23-39.89-45.94,11.68-16.43,20.8-27.6,21.06-27.93.34-.41.28-1.02-.13-1.35-.41-.34-1.02-.28-1.35.13-.13.16-9.24,11.29-20.91,27.65-10.74-11.99-21.04-23.13-30.21-32.47,14.39-21.11,26.79-36.05,27.1-36.43.34-.41.29-1.01-.12-1.35-.41-.34-1.01-.29-1.35.12-.16.19-12.62,15.15-27.04,36.22-14.84-15.01-26.51-25.07-31.85-25.9-.53-.08-1.02.28-1.1.8-.08.52.28,1.02.8,1.1,5.07.8,16.49,10.73,31.08,25.58-3.52,5.19-7.14,10.72-10.72,16.48-6.33,10.21-11.76,19.85-16.28,28.93-16.07-16.66-26.89-28.09-27.29-28.5-.37-.39-.97-.4-1.36-.04-.39.37-.4.97-.04,1.36,1.57,1.66,12.32,13.01,27.78,29.05-8.15,16.67-13.19,31.38-15.08,44.02-8.74-9.25-14.39-15.43-14.61-15.67-.36-.39-.97-.42-1.36-.06-.39.36-.42.97-.06,1.36.91,1,6.87,7.51,15.7,16.86-.73,6.15-.72,11.82.11,16.93.08.47.48.81.95.81.05,0,.1,0,.15-.01.52-.09.88-.58.8-1.1-.75-4.61-.79-9.57-.27-14.78,7.18,7.58,16.02,16.79,25.51,26.37-2.8,9.81-3.86,18.36-3.12,25.59.05.5.47.86.96.86.03,0,.07,0,.1,0,.53-.05.91-.53.86-1.05-.72-7.03.39-15.12,2.8-23.79,12.93,13.01,26.91,26.54,39.41,37.47-2.55,7.2-3.8,13.32-3.69,18.28.01.52.44.94.96.94h.02c.53-.01.95-.45.94-.98-.11-4.79,1.14-10.55,3.34-16.87,12.8,11.08,23.88,19.22,30.41,20.93.08.02.16.03.24.03.43,0,.82-.29.93-.72.13-.51-.17-1.04-.69-1.17-6.34-1.66-17.38-9.86-30.19-21.03,4.28-11.56,11.51-24.84,19.44-37.66,14.47,14.21,28.41,27.52,40.21,38.12-7.35,13.4-12.59,22.43-12.77,22.74-.27.46-.11,1.05.35,1.31.15.09.32.13.48.13.33,0,.65-.17.83-.48.71-1.21,5.72-9.85,12.61-22.37,13.07,11.68,23.33,19.84,28.46,21.86.12.04.24.07.35.07.38,0,.75-.23.89-.61.19-.49-.05-1.05-.54-1.25-4.98-1.96-15.17-10.11-28.21-21.81,5.67-10.34,12.48-23.07,19.17-36.38,16.4,19.87,27.54,33.72,27.94,34.21.19.24.47.36.75.36.21,0,.42-.07.6-.21.41-.33.48-.94.15-1.35-1.58-1.97-12.65-15.73-28.48-34.92,7.57-15.14,14.9-30.89,20.17-44.58,6.93,7.7,12.2,14.43,12.32,14.58.19.24.47.37.76.37.21,0,.41-.07.59-.2.42-.33.49-.93.17-1.35ZM242.83,210.27c-5.77,7.73-13.17,17.98-20.5,29.09-2.09,3.17-4.05,6.23-5.93,9.23-13.68-13.46-27.79-27.66-40.96-41.08,8.8-15.67,18.82-30.8,27.56-43.18,13.11,14.71,26.82,30.6,39.83,45.94ZM171.53,130.32c9.12,9.34,19.4,20.5,30.13,32.51-5.11,7.21-10.66,15.35-16.14,23.99-4.24,6.68-8.06,13.08-11.53,19.22-10.71-10.92-20.76-21.26-29.39-30.21,7.98-16.14,17.8-32.01,26.93-45.51ZM128.85,221.99c1.85-13.77,7.49-29.11,14.85-44.29,8.63,8.95,18.64,19.26,29.29,30.12-8.57,15.38-14.67,29.03-18.29,40.9-9.68-9.79-18.67-19.15-25.84-26.73ZM195.76,287.99c-12.51-11.01-26.55-24.64-39.49-37.67,3.88-12.99,10.51-27.17,18.17-41.01,13.15,13.4,27.23,27.56,40.89,40.99-9.12,14.69-15.65,27.28-19.57,37.69ZM257.92,288.08c-11.74-10.6-25.65-23.89-40.1-38.09,9.1-14.55,18.97-28.36,26.29-38.2,12.04,14.21,23.43,27.88,33.1,39.59-6.71,13.38-13.57,26.25-19.29,36.71Z"/>
  <path class="cls-1" d="M129.97,180.66c-.06,0-.13,0-.19-.02-.52-.11-.86-.61-.75-1.13.8-3.96-8.95-12.56-15.29-17.05-.43-.31-.54-.91-.23-1.34.31-.43.91-.54,1.34-.23,1.78,1.26,17.38,12.53,16.06,19-.09.46-.49.77-.94.77Z"/>
  <path class="cls-1" d="M210.42,134.46c-.43,0-.83-.3-.93-.74-3.3-13.87-11.12-21.82-11.2-21.9-.37-.38-.38-.98,0-1.36.38-.38.98-.37,1.36,0,.34.34,8.28,8.39,11.71,22.82.12.52-.2,1.04-.71,1.16-.07.02-.15.03-.22.03Z"/>
  <path class="cls-1" d="M301.38,172.55c-.27,0-.54-.11-.73-.34-8.3-9.7-13.88-13.83-13.94-13.87-.43-.31-.52-.92-.21-1.34.31-.43.92-.52,1.34-.21.23.17,5.79,4.28,14.26,14.17.35.4.3,1.01-.11,1.36-.18.15-.4.23-.63.23Z"/>
  <path class="cls-1" d="M287.28,211.33h0c-.53,0-.96-.43-.96-.96.02-11.15-18.78-19.13-18.97-19.21-.49-.2-.72-.77-.52-1.26.2-.49.77-.72,1.26-.52.82.34,20.17,8.56,20.15,20.99,0,.53-.43.96-.96.96Z"/>
  <path class="cls-1" d="M312.8,244.96c-.47,0-.89-.35-.95-.83-2.01-14.79-10.29-16.47-10.64-16.54-.52-.09-.87-.59-.78-1.11.09-.52.58-.86,1.11-.78.41.07,9.99,1.89,12.21,18.17.07.53-.3,1.01-.82,1.08-.04,0-.09,0-.13,0Z"/>
  <path class="cls-1" d="M241.66,298.59c-.42,0-.8-.27-.92-.69-1.13-3.85-17.79-17.36-28.71-25.5-.43-.32-.51-.92-.2-1.35.32-.43.92-.51,1.35-.2,2.83,2.11,27.74,20.8,29.41,26.5.15.51-.14,1.04-.65,1.19-.09.03-.18.04-.27.04Z"/>
  <path class="cls-2" d="M317.21,302.25c-.29-.44-.89-.56-1.33-.27-63.66,42.45-133.15,14.96-133.84,14.68-.49-.2-1.05.04-1.25.53-.2.49.04,1.05.53,1.25.22.09,7.28,2.88,18.83,5.36l-2.13,15.73c-.07.53.3,1.01.82,1.08.04,0,.09,0,.13,0,.47,0,.89-.35.95-.83l2.11-15.59c5.2,1.05,11.21,2.01,17.86,2.64l-.03,17.92c0,.53.43.96.96.96h0c.53,0,.96-.43.96-.96l.03-17.75c4.39.37,9.03.58,13.89.58,4,0,8.16-.16,12.42-.5l1.88,16.43c.06.49.47.85.95.85.04,0,.07,0,.11,0,.53-.06.91-.54.84-1.06l-1.88-16.36c7.09-.64,14.47-1.82,22.02-3.66l5.23,15.07c.14.4.51.65.91.65.1,0,.21-.02.32-.05.5-.17.77-.72.59-1.22l-5.17-14.9c7.26-1.88,14.65-4.38,22.08-7.69l4.47,12.54c.14.39.51.64.91.64.11,0,.22-.02.32-.06.5-.18.76-.73.58-1.23l-4.48-12.58s-.05-.08-.08-.13c6.41-2.96,12.84-6.49,19.21-10.74.44-.29.56-.89.27-1.33Z"/>
</svg>