<?xml version="1.0" encoding="UTF-8"?>
<svg id="Capa_1" data-name="Capa 1" xmlns="http://www.w3.org/2000/svg" viewBox="0 0 425.2 425.2">
  <defs>
    <style>
      .cls-1 {
        fill: #fefeff;
      }

      .cls-2 {
        fill: #f3c200;
      }

      .cls-3 {
        fill: #53afa2;
      }

      .cls-4 {
        fill: #251827;
      }
    </style>
  </defs>
  <g>
    <g>
      <path class="cls-1" d="M237.6,284.48s1.68,9.4,7.58,8.03c5.9-1.38-2.08-13.18-3.2-9.05-.48,1.78,8.67,2.7,9.44-1.63.76-4.33-15.1-6.66-13.83,2.65Z"/>
      <path class="cls-4" d="M244.03,293.34c-1,0-1.93-.28-2.8-.85-3.26-2.15-4.28-7.66-4.32-7.89,0,0,0-.02,0-.03-.46-3.35,1.13-5.11,2.55-5.99,3.14-1.95,8.42-1.43,11.04.35,1.24.84,1.81,1.91,1.61,3.02-.27,1.51-1.37,2.63-3.2,3.24-.64.21-1.36.35-2.09.41.65,1.22,1.12,2.57,1.19,3.75.13,2.02-.85,3.42-2.68,3.84-.45.1-.89.16-1.31.16ZM238.29,284.36c.05.28,1.02,5.18,3.71,6.96.91.6,1.9.76,3.02.5.74-.17,1.72-.61,1.6-2.39-.08-1.28-.68-2.67-1.39-3.81-1.5-.07-2.87-.44-3.51-1.05-.39-.37-.54-.84-.41-1.3.38-1.41,1.41-1.41,1.72-1.38.93.09,2.03,1.05,2.97,2.35.5-.01,1.03-.06,1.57-.16,1.06-.2,2.89-.78,3.17-2.38.12-.68-.49-1.25-1.02-1.61-2.22-1.5-6.86-1.97-9.52-.32-1.55.96-2.19,2.51-1.91,4.59ZM242.88,283.29c-.08,0-.15.12-.22.35.1.12.63.32,1.4.46-.46-.48-.89-.78-1.18-.81h0Z"/>
    </g>
    <g>
      <path class="cls-1" d="M231.93,284.14s-7.9,5.36-11.04.18c-3.14-5.19,10.88-7.71,8.71-4.03-.94,1.59-7.99-4.32-5.42-7.9,2.57-3.57,15.31,6.16,7.76,11.75Z"/>
      <path class="cls-4" d="M225.03,287.28c-.46,0-.93-.04-1.37-.14-1.44-.32-2.57-1.14-3.37-2.46-.98-1.61-.66-3.29.88-4.61.9-.77,2.19-1.38,3.51-1.76-.46-.57-.87-1.18-1.16-1.78-.84-1.73-.81-3.3.08-4.55.66-.92,1.83-1.25,3.29-.95,3.1.64,7.17,4.05,7.96,7.66.36,1.63.22,4-2.51,6.01,0,0-.02.01-.02.02-.17.12-3.82,2.56-7.29,2.56ZM225.77,279.47c-1.31.28-2.72.83-3.69,1.67-1.35,1.16-.98,2.16-.59,2.81.6.99,1.4,1.58,2.47,1.81,3.15.69,7.33-2.04,7.57-2.2,1.69-1.25,2.35-2.79,1.96-4.57-.67-3.05-4.25-6.05-6.88-6.59-.63-.13-1.46-.17-1.86.4-.95,1.32-.09,3.03.51,3.94.3.46.64.87.98,1.23,1.59-.24,3.04-.12,3.76.48.24.2.95.94.21,2.2-.24.41-.7.64-1.22.61-.89-.04-2.11-.75-3.21-1.78ZM231.93,284.14h.01-.01ZM227.71,279.25c.65.44,1.18.65,1.38.6.03-.13.06-.27,0-.33-.22-.19-.66-.3-1.37-.28Z"/>
    </g>
    <path class="cls-2" d="M238.83,277.3s5.36-1.24,5.79-5.85c.44-4.61-1.18-9.47-4.5-9.01-3.32.46-7.57,3.81-7.05,8.51.52,4.71,4.22,6.91,5.76,6.35Z"/>
    <path class="cls-4" d="M243.02,275.63c-.07,0-.15-.01-.22-.03-3.78-1.24-8.34-2.41-9.12-2.17-.37.12-.76-.09-.88-.45-.12-.37.09-.76.45-.88,1.57-.5,8.04,1.54,9.99,2.17.37.12.57.52.45.88-.1.3-.37.48-.67.48Z"/>
    <path class="cls-4" d="M244.52,271.73c-.07,0-.13,0-.2-.03-3.87-1.14-9.83-2.57-10.97-2.19-.37.12-.77-.08-.89-.45-.12-.37.08-.77.45-.89,1.97-.65,10.18,1.7,11.81,2.17.37.11.58.5.47.87-.09.31-.37.5-.67.5Z"/>
    <path class="cls-4" d="M238.35,295.38c-.15,0-.3-.05-.43-.15-5.02-3.96-2.98-9.74-2.96-9.79.13-.36.53-.55.9-.42.36.13.55.53.42.9-.07.2-1.7,4.89,2.51,8.21.3.24.36.68.12.98-.14.18-.34.27-.55.27Z"/>
    <path class="cls-4" d="M243.74,268c-.08,0-.17-.01-.25-.05-2.53-.96-7.07-2.29-8.49-1.73-.36.14-.77-.04-.91-.4-.14-.36.04-.77.4-.91,2.39-.93,8.78,1.45,9.5,1.72.36.14.54.54.41.91-.11.28-.37.45-.66.45Z"/>
    <path class="cls-4" d="M227.36,292.45c-.38,0-.7-.31-.7-.69,0-.39.3-.7.69-.71h0c.2,0,4.79-.19,6.11-6.32.08-.38.46-.62.83-.54.38.08.62.45.54.83-1.56,7.26-7.4,7.43-7.46,7.43h-.01Z"/>
  </g>
  <path class="cls-4" d="M231.66,245.4c-.29,0-.56-.18-.66-.47-.13-.37.07-.77.44-.89.86-.29,1.72-.63,2.55-1.01.35-.16.77,0,.93.35.16.35,0,.77-.35.93-.87.4-1.77.76-2.68,1.07-.08.03-.15.04-.23.04ZM236.77,243.07c-.24,0-.48-.12-.61-.35-.2-.33-.08-.76.25-.96.8-.47,1.57-.98,2.27-1.51.31-.23.75-.17.98.14.23.31.17.75-.14.98-.75.56-1.56,1.1-2.41,1.6-.11.07-.23.1-.35.1ZM241.23,239.69c-.18,0-.36-.07-.5-.21-.27-.28-.27-.72,0-.99.65-.64,1.24-1.33,1.76-2.03.23-.31.67-.38.98-.15.31.23.38.67.15.98-.57.77-1.21,1.51-1.91,2.2-.14.14-.32.2-.49.2ZM244.52,235.18c-.1,0-.21-.02-.31-.07-.35-.17-.49-.59-.32-.94.4-.8.72-1.64.97-2.49.11-.37.5-.59.87-.48.37.11.59.5.48.87-.27.94-.63,1.85-1.06,2.72-.12.25-.37.39-.63.39ZM246.08,229.83s-.05,0-.08,0c-.38-.04-.66-.39-.62-.77.07-.62.1-1.26.1-1.9,0-.26,0-.53-.02-.79-.02-.39.28-.71.67-.73.4-.01.71.28.73.67.01.29.02.57.02.85,0,.69-.04,1.38-.11,2.05-.04.36-.34.62-.7.62ZM245.84,224.25c-.33,0-.62-.23-.69-.56-.18-.87-.42-1.74-.74-2.58-.14-.36.05-.77.41-.9.36-.13.77.05.9.41.34.91.61,1.85.8,2.8.08.38-.17.75-.55.83-.05,0-.09.01-.14.01ZM243.88,219.02c-.25,0-.48-.13-.61-.36-.43-.77-.94-1.53-1.49-2.25-.24-.31-.18-.75.13-.98.31-.24.75-.18.98.13.6.77,1.14,1.59,1.61,2.42.19.34.07.77-.27.96-.11.06-.23.09-.34.09ZM225.11,215.02h0c-1.25,0-1.87-.57-2.17-1.04-.21-.33-.11-.76.21-.97.33-.21.76-.11.97.21.06.1.25.39.99.39.27-.01.52-.03.83-.1.38-.08.75.16.83.54.08.38-.16.75-.54.83-.4.09-.78.13-1.12.13ZM240.47,214.59c-.18,0-.36-.07-.49-.2-.64-.63-1.33-1.23-2.05-1.78-.31-.23-.37-.67-.13-.98.23-.31.67-.37.98-.13.77.59,1.51,1.22,2.19,1.89.28.27.28.72,0,.99-.14.14-.32.21-.5.21ZM228.69,213.9c-.25,0-.5-.14-.62-.38-.18-.34-.05-.77.3-.95.74-.38,1.51-.86,2.31-1.42.32-.22.76-.15.98.17.22.32.15.75-.17.98-.85.6-1.68,1.11-2.47,1.52-.1.05-.21.08-.32.08ZM223.51,211.58c-.08,0-.16-.01-.24-.04-.36-.13-.55-.54-.42-.9.39-1.07,1.11-1.89,2.14-2.43.34-.19.77-.05.95.29.18.34.05.77-.29.95-.71.38-1.21.94-1.48,1.68-.1.28-.37.46-.66.46ZM236.01,211.2c-.12,0-.24-.03-.35-.09-.53-.3-1.07-.58-1.62-.83-.1.09-.2.17-.29.25-.29.25-.74.22-.99-.08-.24-.29-.22-.71.06-.97-.05-.15-.04-.31.02-.47.14-.36.55-.54.91-.39,0,0,.02,0,.03.01.37-.34.73-.68,1.09-1.04.27-.27.72-.27.99,0,.27.27.27.72,0,.99-.23.23-.46.45-.69.67.4.2.8.41,1.19.63.34.19.45.62.26.96-.13.23-.37.35-.61.35ZM230.81,209.15s-.1,0-.15-.02c-.82-.18-1.6-.27-2.32-.27h-.3c-.37.03-.71-.29-.72-.67-.01-.39.29-.71.68-.72h.34c.82,0,1.7.09,2.61.29.38.08.62.45.54.83-.07.33-.36.55-.69.55ZM237.27,206.74c-.16,0-.33-.06-.46-.17-.29-.25-.32-.7-.07-.99.6-.69,1.18-1.41,1.73-2.15.23-.31.67-.37.98-.14.31.23.37.67.14.98-.57.76-1.17,1.51-1.79,2.22-.14.16-.33.24-.53.24ZM240.64,202.25c-.13,0-.26-.04-.38-.11-.33-.21-.42-.64-.21-.97.5-.77.97-1.57,1.41-2.37.18-.34.61-.47.95-.28.34.18.47.61.28.95-.45.83-.94,1.65-1.46,2.46-.13.21-.36.32-.59.32ZM243.32,197.33c-.1,0-.19-.02-.29-.06-.35-.16-.51-.57-.35-.93.38-.85.72-1.7,1.02-2.55.13-.37.53-.56.89-.43.37.13.56.53.43.89-.31.88-.67,1.78-1.06,2.66-.12.26-.37.42-.64.42ZM245.18,192.04c-.06,0-.12,0-.18-.02-.38-.1-.6-.48-.5-.85.23-.89.42-1.79.57-2.68.06-.38.42-.64.81-.58.38.06.64.42.58.81-.15.94-.35,1.88-.59,2.81-.08.32-.37.53-.68.53ZM246.08,186.52s-.03,0-.05,0c-.39-.03-.68-.36-.65-.75.04-.61.06-1.22.06-1.81,0-.31,0-.62-.02-.92-.01-.39.29-.71.68-.73.39-.03.71.29.73.68.01.32.02.64.02.97,0,.62-.02,1.26-.06,1.9-.02.37-.33.65-.7.65ZM245.87,180.92c-.34,0-.64-.25-.69-.6-.14-.91-.33-1.8-.57-2.65-.1-.37.11-.76.48-.87.38-.1.76.11.87.48.26.91.46,1.86.61,2.83.06.38-.21.74-.59.8-.04,0-.07,0-.11,0ZM244.35,175.54c-.27,0-.53-.16-.64-.42-.36-.83-.78-1.64-1.25-2.39-.2-.33-.1-.76.23-.97.33-.2.76-.1.97.23.5.81.96,1.68,1.35,2.57.15.36,0,.77-.36.92-.09.04-.19.06-.28.06ZM225.96,175.22c-.29,0-.56-.18-.66-.47-.13-.37.07-.77.44-.89.67-.23,1.46-.63,2.34-1.2.33-.21.76-.11.97.21.21.33.12.76-.21.97-.98.63-1.87,1.08-2.65,1.35-.08.03-.15.04-.23.04ZM223.46,174.75c-.26,0-.52-.15-.64-.4-.16-.35-.25-.78-.25-1.27,0-.55.11-1.22.32-1.97.1-.37.5-.59.86-.49.37.1.59.49.49.86-.18.63-.27,1.17-.27,1.6,0,.28.04.51.11.67.17.35.02.77-.33.93-.1.05-.2.07-.3.07ZM230.72,172.29c-.2,0-.41-.09-.55-.26-.24-.3-.2-.74.1-.99.68-.55,1.38-1.16,2.07-1.82.28-.26.73-.25.99.03.26.28.25.73-.03.99-.72.68-1.45,1.31-2.15,1.89-.13.1-.29.16-.44.16ZM241.39,170.8c-.2,0-.39-.08-.53-.24-.59-.69-1.23-1.32-1.91-1.88-.3-.25-.34-.69-.09-.99.25-.3.69-.34.99-.09.74.61,1.44,1.3,2.08,2.05.25.29.22.74-.07.99-.13.11-.3.17-.46.17ZM224.67,169.43c-.12,0-.25-.03-.36-.1-.33-.2-.44-.63-.23-.96.55-.9,1.22-1.67,2-2.29.31-.24.75-.19.98.12.24.3.19.74-.12.98-.65.51-1.21,1.16-1.67,1.91-.13.22-.36.34-.6.34ZM234.82,168.45c-.17,0-.35-.06-.48-.19-.28-.27-.3-.71-.03-.99.27-.28.54-.58.8-.87-.27-.1-.54-.19-.81-.27-.37-.11-.58-.5-.47-.87.11-.37.5-.58.87-.47.46.14.92.31,1.38.5.02-.03.04-.05.07-.08.25-.29.69-.33.99-.08.23.19.3.5.21.77.03.01.05.03.08.04.34.19.46.61.27.95s-.61.46-.95.27c-.1-.05-.2-.11-.29-.16-.37.42-.75.83-1.12,1.23-.14.15-.32.22-.51.22ZM228.98,166.04c-.3,0-.58-.2-.67-.5-.11-.37.1-.76.47-.87.84-.26,1.75-.38,2.68-.38h.32c.39.02.69.34.68.73-.01.39-.3.72-.73.68h-.27c-.79,0-1.56.11-2.27.32-.07.02-.14.03-.2.03ZM238.43,164.16c-.15,0-.3-.05-.42-.14-.31-.23-.37-.67-.14-.98.55-.73,1.09-1.48,1.6-2.26.22-.32.65-.41.97-.19.32.22.41.65.19.97-.53.79-1.08,1.57-1.65,2.32-.14.18-.35.28-.56.28ZM241.55,159.49c-.12,0-.24-.03-.35-.1-.33-.2-.45-.63-.25-.96.47-.81.92-1.62,1.32-2.43.17-.35.59-.49.94-.31.35.17.49.59.31.94-.41.83-.87,1.67-1.36,2.51-.13.22-.37.35-.61.35ZM244.05,154.47c-.09,0-.18-.02-.26-.05-.36-.15-.53-.55-.39-.91.35-.87.66-1.74.92-2.58.11-.37.5-.58.88-.47.37.11.58.5.47.88-.27.89-.59,1.8-.96,2.7-.11.27-.37.44-.65.44ZM245.67,149.1s-.09,0-.13-.01c-.38-.07-.63-.44-.56-.82.17-.92.29-1.82.34-2.69.02-.39.36-.69.74-.66.39.02.68.35.66.74-.05.93-.18,1.9-.36,2.87-.06.34-.36.57-.69.57ZM245.97,143.52c-.36,0-.66-.27-.7-.64l-.02-.21c-.09-.85-.23-1.68-.4-2.47-.08-.38.15-.75.53-.84.37-.08.75.15.84.53.19.84.33,1.72.43,2.63l.02.23c.04.39-.25.73-.63.76-.02,0-.04,0-.07,0ZM244.74,138.07c-.28,0-.55-.17-.66-.45-.32-.85-.71-1.67-1.15-2.42-.19-.33-.08-.76.25-.96.34-.2.76-.08.96.25.48.82.9,1.71,1.25,2.63.14.36-.05.77-.41.9-.08.03-.17.05-.25.05ZM241.92,133.26c-.2,0-.39-.08-.53-.25-.57-.67-1.22-1.3-1.91-1.87-.3-.25-.34-.69-.1-.99.24-.3.69-.34.99-.1.76.62,1.46,1.31,2.09,2.05.25.29.22.74-.08.99-.13.11-.29.17-.46.17ZM237.61,129.71c-.12,0-.24-.03-.35-.09-.76-.44-1.58-.83-2.44-1.17-.36-.14-.54-.55-.39-.91.14-.36.55-.54.91-.39.92.36,1.8.79,2.62,1.26.34.19.45.62.26.96-.13.23-.37.35-.61.35ZM232.41,127.63c-.06,0-.12,0-.18-.02-.86-.22-1.76-.4-2.68-.54-.38-.06-.65-.41-.59-.8.06-.38.41-.65.8-.59.97.14,1.92.33,2.83.57.37.1.6.48.5.85-.08.32-.37.53-.68.53ZM224.05,126.82c-.36,0-.66-.27-.7-.64-.03-.38.25-.73.63-.76,0,0,1.13-.11,2.9-.02.39.02.68.35.67.73-.02.39-.35.69-.73.67-1.62-.08-2.68.02-2.71.02-.02,0-.04,0-.06,0Z"/>
  <g>
    <path class="cls-3" d="M213.24,370.06s-18.15-275.54-26.52-279.95c-8.37-4.41-31.01,48.13-36.42,101.22-9.19,90.25,19.96,56.81,32.37,83.75,18.96,41.17.94,73.65-1.7,83.63-5.19,19.6,28.5,30.79,32.27,11.35Z"/>
    <path class="cls-1" d="M192.06,188.72c-.36,0-.67-.28-.7-.64-4.82-55.42-9.33-75.11-9.37-75.3-.09-.38.15-.75.52-.84.37-.09.75.15.84.52.05.19,4.57,19.95,9.41,75.5.03.39-.25.73-.64.76-.02,0-.04,0-.06,0Z"/>
    <path class="cls-1" d="M195.03,222.78c-.36,0-.67-.28-.7-.64l-2.06-23.65c-.03-.39.25-.73.64-.76.38-.05.73.25.76.64l2.06,23.65c.03.39-.25.73-.64.76-.02,0-.04,0-.06,0Z"/>
    <path class="cls-4" d="M180.56,253.71c-6.02,0-10.83-2.09-14.33-6.24-13.16-15.59-3.52-54.66-3.1-56.31.09-.38.47-.6.85-.51.38.09.6.48.51.85-.1.4-9.88,40.03,2.81,55.06,3.6,4.27,8.76,6.17,15.31,5.66.38-.03.72.26.75.64s-.26.72-.64.75c-.74.06-1.46.09-2.17.09Z"/>
    <path class="cls-4" d="M197.56,371c-1.64,0-3.41-.54-5-1.87-3.84-3.22-8.71-12.89,1.81-41.4,9.71-26.33-12.06-59.25-12.28-59.58-.22-.32-.13-.76.19-.97.32-.22.76-.13.97.19.23.34,22.39,33.84,12.43,60.85-10.6,28.74-5.08,37.44-2.22,39.84,2.35,1.98,5.17,1.83,6.92.82,7.33-4.27,5.2-29.69,2.95-56.61-1.36-16.25-2.77-33.06-2.41-47.52,0-.39.34-.69.72-.68.39,0,.69.33.68.72-.36,14.39,1.05,31.15,2.4,47.37,2.39,28.56,4.46,53.22-3.64,57.93-.97.57-2.21.92-3.53.92Z"/>
  </g>
</svg>